<?xml version="1.0" encoding="UTF-8" standalone="no"?>
<svg
   xmlns:dc="http://purl.org/dc/elements/1.1/"
   xmlns:cc="http://creativecommons.org/ns#"
   xmlns:rdf="http://www.w3.org/1999/02/22-rdf-syntax-ns#"
   xmlns:svg="http://www.w3.org/2000/svg"
   xmlns="http://www.w3.org/2000/svg"
   xmlns:sodipodi="http://sodipodi.sourceforge.net/DTD/sodipodi-0.dtd"
   xmlns:inkscape="http://www.inkscape.org/namespaces/inkscape"
   height="2112.000000pt"
   id="svg228"
   preserveAspectRatio="xMidYMid meet"
   version="1.0"
   viewBox="0 0 3268.000000 2112.000000"
   width="3268.000000pt"
   sodipodi:docname="gnw_ball.svg"
   inkscape:version="0.92.4 (5da689c313, 2019-01-14)">
  <defs
     id="defs232" />
  <sodipodi:namedview
     bordercolor="#666666"
     borderopacity="1"
     gridtolerance="10"
     guidetolerance="10"
     id="namedview230"
     objecttolerance="10"
     pagecolor="#ffffff"
     showgrid="false"
     inkscape:current-layer="layer1"
     inkscape:cx="1197.9824"
     inkscape:cy="1732.1324"
     inkscape:pageopacity="0"
     inkscape:pageshadow="2"
     inkscape:snap-page="true"
     inkscape:window-height="1017"
     inkscape:window-maximized="1"
     inkscape:window-width="1920"
     inkscape:window-x="-8"
     inkscape:window-y="-8"
     inkscape:zoom="0.14160037"
     inkscape:showpageshadow="false"
     borderlayer="true"
     inkscape:pagecheckerboard="true" />
  <metadata
     id="metadata2">
Created by potrace 1.14, written by Peter Selinger 2001-2017
<rdf:RDF>
  <cc:Work
     rdf:about="">
    <dc:format>image/svg+xml</dc:format>
    <dc:type
       rdf:resource="http://purl.org/dc/dcmitype/StillImage" />
    <dc:title></dc:title>
  </cc:Work>
</rdf:RDF>
</metadata>
  <g
     id="layer2"
     style="display:inline"
     inkscape:groupmode="layer"
     inkscape:label="white"
     sodipodi:insensitive="true">
    <rect
       height="2228.5251"
       id="rect236"
       style="fill:#ffffff;fill-opacity:1;stroke-width:0.78586513"
       width="3400.415"
       x="-52.965965"
       y="-52.965965" />
  </g>
  <g
     id="layer1"
     style="display:inline"
     inkscape:groupmode="layer"
     inkscape:label="segs">
    <g
       id="g4218"
       style="fill:#000000;fill-opacity:0.84705883">
      <title
         id="title1000">0.1.1</title>
      <desc
         id="desc4262">h2o21</desc>
      <path
         d="m 2257.9,217 -17.6,0.5 -4.6,3.8 c -5.9,4.8 -6,6.9 -0.4,10.3 2.3,1.5 6.2,4.5 8.7,6.7 7.5,6.6 13.1,8.7 23.4,8.7 8.8,0 9,0 14,-3.9 9.3,-7.1 18.6,-16.6 18.6,-18.8 0,-1.2 -1,-3.4 -2.3,-4.8 -2.1,-2.5 -2.8,-2.7 -12.2,-2.8 -5.5,-0.1 -17.9,0 -27.6,0.3 z"
         id="path14"
         style="fill:#000000;stroke:none;stroke-width:0.1;fill-opacity:0.84705883"
         inkscape:connector-curvature="0" />
    </g>
    <g
       id="g4190"
       style="fill:#000000;fill-opacity:0.84705883">
      <title
         id="title1001">1.1.1</title>
      <desc
         id="desc4192">h2o22</desc>
      <path
         d="m 2463.6,221.3 c -3.4,3 -4.8,4.9 -4.3,5.9 0.8,2.3 18.7,16.5 23,18.3 4.4,1.8 17.7,1.9 22.4,0.2 3.4,-1.3 22.8,-17.9 23.7,-20.4 0.7,-1.6 -0.6,-4.3 -3,-6.7 -1.3,-1.4 -5.3,-1.6 -29.2,-1.6 h -27.7 z"
         id="path16"
         style="fill:#000000;stroke:none;stroke-width:0.1;fill-opacity:0.84705883"
         inkscape:connector-curvature="0" />
    </g>
    <g
       id="g4221"
       style="fill:#000000;fill-opacity:0.84705883">
      <title
         id="title1002">2.1.1</title>
      <desc
         id="desc4280">h2o23</desc>
      <path
         d="m 2699.3,218 c -4.9,0.7 -11.6,5.6 -12.1,8.7 -0.2,1.3 0.8,2.9 2.7,4.4 1.7,1.3 5.6,4.4 8.6,6.9 9.9,8 12.6,9 24.1,9 h 10.1 l 6.5,-4.9 c 16,-12.1 19.9,-18.5 14.2,-23 -2.5,-2 -3.8,-2.1 -26.3,-1.9 -13,0 -25.5,0.4 -27.8,0.8 z"
         id="path18"
         style="fill:#000000;stroke:none;stroke-width:0.1;fill-opacity:0.84705883"
         inkscape:connector-curvature="0" />
    </g>
    <g
       id="g4242"
       style="fill:#000000;fill-opacity:0.84705883">
      <title
         id="title1003">3.1.1</title>
      <desc
         id="desc4294">h2o24</desc>
      <path
         d="m 2930.5,217.7 c -4,0.4 -6.1,1.3 -10.2,4.5 -2.9,2.2 -5.3,4.6 -5.3,5.2 0,1.2 7.3,7.4 18.5,15.8 l 4.9,3.8 h 11.3 11.2 l 6.8,-5.9 c 12,-10.5 16.3,-14.7 16.3,-16.3 0,-0.9 -1.6,-3 -3.5,-4.7 l -3.6,-3.1 -20.7,0.2 c -11.4,0.1 -22.9,0.3 -25.7,0.5 z"
         id="path20"
         style="fill:#000000;stroke:none;stroke-width:0.1;fill-opacity:0.84705883"
         inkscape:connector-curvature="0" />
    </g>
    <g
       id="g4215"
       style="fill:#000000;fill-opacity:0.84705883">
      <title
         id="title1004">0.0.1</title>
      <desc
         id="desc4264">h2o11</desc>
      <path
         d="m 2298,239.2 c -14.4,12.2 -16,14.1 -16,18.5 0,2.2 -0.5,6.5 -1,9.4 -0.6,3 -2,11.4 -3.1,18.7 l -2,13.3 4,4.7 c 2.1,2.6 5.1,5.4 6.5,6.1 2.3,1.3 2.8,1.2 6.3,-1.5 12.6,-9.5 14,-12.1 16.8,-30.9 0.9,-6.1 2.3,-14.7 3.1,-19.1 0.8,-4.5 1.7,-11 2.1,-14.6 0.5,-6.2 0.4,-6.5 -2.2,-8.6 -1.5,-1.2 -3.8,-2.2 -5,-2.2 -1.2,0 -5.4,2.7 -9.5,6.2 z"
         id="path22"
         style="fill:#000000;stroke:none;stroke-width:0.1;fill-opacity:0.84705883"
         inkscape:connector-curvature="0" />
    </g>
    <g
       id="g462"
       style="fill:#000000;fill-opacity:0.84705883">
      <title
         id="title1005">1.0.1</title>
      <desc
         id="desc4167">h2o12</desc>
      <path
         d="m 2534.2,234.1 c -1.3,0.5 -5.1,3.2 -8.4,6.1 -14.2,12.3 -14.5,12.6 -15.1,17.1 -1.2,8.1 -3.6,23.3 -5.2,32.5 -0.9,5.1 -1.4,9.9 -1.2,10.6 0.3,0.7 3,3.4 6.1,6 6.6,5.7 7.3,5.6 15.7,-2.1 7.1,-6.6 8.3,-8.7 9.7,-17.3 0.6,-3.6 1.4,-8.3 1.8,-10.5 0.4,-2.2 0.8,-4.9 0.9,-6 0.2,-1.1 1.3,-6.6 2.4,-12.2 2.9,-13.8 2.8,-20.3 -0.2,-23.1 -2.6,-2.4 -3.1,-2.5 -6.5,-1.1 z"
         id="path24"
         style="fill:#000000;stroke:none;stroke-width:0.1;fill-opacity:0.84705883"
         inkscape:connector-curvature="0" />
    </g>
    <g
       id="g4227"
       style="fill:#000000;fill-opacity:0.84705883">
      <title
         id="title1006">2.0.1</title>
      <desc
         id="desc4276">h2o13</desc>
      <path
         d="m 2751.9,241.9 c -12.7,10.6 -13,11 -13.9,18.3 -0.7,5.8 -4,27.2 -5.6,36 -0.6,3.4 -0.3,4 4.6,9.2 3.4,3.6 6.1,5.6 7.6,5.6 2.2,0 9.9,-5.5 14.1,-10.1 2.7,-3 4.8,-8.6 6.2,-16.4 0.6,-3.3 1.7,-9.6 2.5,-14 0.8,-4.4 1.8,-10 2.1,-12.5 0.3,-2.5 1.1,-6.8 1.7,-9.6 1.2,-6 0.6,-9.6 -2.2,-12.4 -3.8,-3.8 -7,-2.6 -17.1,5.9 z"
         id="path26"
         style="fill:#000000;stroke:none;stroke-width:0.1;fill-opacity:0.84705883"
         inkscape:connector-curvature="0" />
    </g>
    <g
       id="g4248"
       style="fill:#000000;fill-opacity:0.84705883">
      <title
         id="title1007">3.0.1</title>
      <desc
         id="desc4298">h2o14</desc>
      <path
         d="m 2986.9,236.9 c -2.4,1.6 -7.9,6.2 -12.3,10.2 l -7.8,7.4 -1.5,9.5 c -0.8,5.2 -1.5,10.2 -1.5,11 0,0.8 -0.9,5.7 -1.9,10.9 -1.1,5.1 -1.9,10.2 -1.9,11.3 0,2.5 10.7,13.8 13.1,13.8 1.1,0 5.4,-3.5 9.8,-7.8 7.9,-7.7 7.9,-7.7 9,-14.7 0.6,-3.9 2.4,-15.5 4.1,-25.8 1.6,-10.3 3,-19.8 3,-21 0,-2.3 -4.7,-7.7 -6.6,-7.7 -0.6,0 -3,1.3 -5.5,2.9 z"
         id="path28"
         style="fill:#000000;stroke:none;stroke-width:0.1;fill-opacity:0.84705883"
         inkscape:connector-curvature="0" />
    </g>
    <g
       id="g4212"
       style="fill:#000000;fill-opacity:0.84705883">
      <title
         id="title1008">0.1.0</title>
      <desc
         id="desc4266">h1o21</desc>
      <path
         d="m 2216.7,241 c -1.7,1.3 -2.8,3.5 -3.2,5.8 -0.3,2 -1.5,8.9 -2.5,15.2 -6.1,36.2 -6.4,38.7 -4.7,41.3 2.9,4.3 6.6,7.7 8.6,7.7 1.9,0 6.3,-3.4 16.3,-12.6 2.2,-2 4.1,-4.9 4.8,-7.3 1.3,-4.9 6,-32.8 6,-35.8 0,-2.4 -6.4,-8.1 -14.6,-13.2 -6,-3.7 -7.3,-3.8 -10.7,-1.1 z"
         id="path30"
         style="fill:#000000;stroke:none;stroke-width:0.1;fill-opacity:0.84705883"
         inkscape:connector-curvature="0" />
    </g>
    <g
       id="g4185"
       style="fill:#000000;fill-opacity:0.84705883">
      <title
         id="title1009">1.1.0</title>
      <desc
         id="desc4187">h1o22</desc>
      <path
         d="m 2445,240.8 c -1.9,1.5 -2.8,4.9 -6,22.2 -4.4,23.9 -6,34.1 -6,37.4 0,2.4 7.7,11.6 9.8,11.6 2,0 16.3,-12.2 18.9,-16.1 2.3,-3.5 4.9,-16.1 7.9,-38.9 l 0.6,-4.5 -5.8,-4.6 c -11.7,-9.2 -15.2,-10.5 -19.4,-7.1 z"
         id="path32"
         style="fill:#000000;stroke:none;stroke-width:0.1;fill-opacity:0.84705883"
         inkscape:connector-curvature="0" />
    </g>
    <g
       id="g4224"
       style="fill:#000000;fill-opacity:0.84705883">
      <title
         id="title1010">2.1.0</title>
      <desc
         id="desc4278">h1o23</desc>
      <path
         d="m 2673.8,240.1 c -1,0.5 -2.2,1.8 -2.7,2.7 -1,1.9 -5.8,27.2 -8.6,45.2 -0.8,5.8 -1.8,11.3 -2.1,12.3 -0.7,2.3 8.4,11.7 11.3,11.7 2.5,0 16.1,-12.2 18.9,-16.9 2.1,-3.5 7.4,-31.4 7.4,-38.8 0,-3.5 -1,-4.8 -8.4,-10.2 -9.1,-6.7 -12.5,-8 -15.8,-6 z"
         id="path34"
         style="fill:#000000;stroke:none;stroke-width:0.1;fill-opacity:0.84705883"
         inkscape:connector-curvature="0" />
    </g>
    <g
       id="g4245"
       style="fill:#000000;fill-opacity:0.84705883">
      <title
         id="title1011">3.1.0</title>
      <desc
         id="desc4296">h1o24</desc>
      <path
         d="m 2900.5,242.2 c -2.9,2.6 -3.2,3.5 -6.6,24.3 -3.2,19.5 -3.7,23.4 -4.5,30.5 l -0.6,6.5 4.6,4.3 c 2.5,2.3 5,4.2 5.7,4.2 1.4,0 11.2,-7.6 16.5,-12.8 4.8,-4.6 5,-5.4 8.5,-28.9 1.7,-11.8 1.9,-15.5 1,-16.6 -2.7,-3.4 -15.9,-12.5 -18.7,-13.1 -2.5,-0.6 -3.7,-0.2 -5.9,1.6 z"
         id="path36"
         style="fill:#000000;stroke:none;stroke-width:0.1;fill-opacity:0.84705883"
         inkscape:connector-curvature="0" />
    </g>
    <g
       id="g4478"
       style="fill:#000000;fill-opacity:0.84705883">
      <title
         id="title1012">8.3.1</title>
      <desc
         id="desc4480">h2os4</desc>
      <path
         d="m 1528.5,280.7 c -12.5,1.5 -29.4,8.8 -36.4,15.6 -7.8,7.5 -11.7,18.2 -13.1,35.2 -1,12.5 0.2,20.2 4.6,30.7 5.6,13.6 11.2,19.4 24.8,26.1 8.4,4.1 12.3,4.9 25.9,5.4 13.6,0.5 24.1,-1.6 33.8,-6.8 17.5,-9.4 28.4,-39.2 23.5,-64.4 -1.4,-7.5 -6.6,-20.7 -9.4,-24.1 -9.9,-11.9 -34.7,-20.1 -53.7,-17.7 z"
         id="path38"
         style="fill:#000000;stroke:none;stroke-width:0.1;fill-opacity:0.84705883"
         inkscape:connector-curvature="0" />
    </g>
    <g
       id="g4488"
       style="fill:#000000;fill-opacity:0.84705883">
      <title
         id="title1013">8.2.1</title>
      <desc
         id="desc4490">h2os3</desc>
      <path
         d="m 1752.5,281.2 c -7.4,0.8 -15.5,3.8 -24.8,9 -7.8,4.5 -9.3,5.9 -13.6,13.3 -6.8,11.6 -9.8,31.5 -7.1,46.1 1.5,7.9 6.3,19.6 10.7,25.8 5.5,7.8 20.6,15.7 34.8,18.1 5.8,1 20.7,0.6 26.8,-0.6 6.8,-1.5 21.4,-8.3 25,-11.7 4.8,-4.6 11.6,-18.2 14.2,-28.7 3.9,-15.3 3.3,-25.9 -2.5,-42.4 -3.2,-9.1 -5.5,-12.6 -10.8,-16.4 -15,-10.7 -32.4,-14.8 -52.7,-12.5 z"
         id="path40"
         style="fill:#000000;stroke:none;stroke-width:0.1;fill-opacity:0.84705883"
         inkscape:connector-curvature="0" />
    </g>
    <g
       id="g4209"
       style="fill:#000000;fill-opacity:0.84705883">
      <title
         id="title1014">0.2.1</title>
      <desc
         id="desc4268">h2o31</desc>
      <path
         d="m 2255.6,304.7 -12,0.4 -7,5.7 c -12.8,10.3 -13,11.1 -5.8,18.2 4.5,4.5 5,4.7 11.7,5.3 3.9,0.3 9.9,0.4 13.5,0.4 7.3,-0.2 9.2,-1.3 18.1,-10 6.5,-6.5 6.5,-9 0.1,-15.7 -2.7,-2.8 -5.3,-4.9 -5.8,-4.8 -0.5,0.1 -6.3,0.4 -12.8,0.5 z"
         id="path42"
         style="fill:#000000;stroke:none;stroke-width:0.1;fill-opacity:0.84705883"
         inkscape:connector-curvature="0" />
    </g>
    <g
       id="g4180"
       style="fill:#000000;fill-opacity:0.84705883">
      <title
         id="title1015">1.2.1</title>
      <desc
         id="desc4182">h2o32</desc>
      <path
         d="m 2472.5,305.7 c -4,1 -19.5,14.5 -19.5,17 0,2.1 9.3,10.3 13,11.3 1.9,0.6 8.1,1 13.6,1 h 10.2 l 6,-4.4 c 6.5,-4.8 11.2,-10.8 11.2,-14.2 0,-1.2 -2,-4.3 -4.3,-6.8 l -4.4,-4.6 -11.9,0.1 c -6.5,0.1 -12.8,0.4 -13.9,0.6 z"
         id="path44"
         style="fill:#000000;stroke:none;stroke-width:0.1;fill-opacity:0.84705883"
         inkscape:connector-curvature="0" />
    </g>
    <g
       id="g4230"
       style="fill:#000000;fill-opacity:0.84705883">
      <title
         id="title1016">2.2.1</title>
      <desc
         id="desc4282">h2o33</desc>
      <path
         d="m 2690.8,312.5 c -4.4,4 -8.5,8 -9,8.9 -1.1,2 1.8,6.5 6.9,10.4 3.4,2.6 4.3,2.7 16,3 l 12.3,0.4 7,-4.7 c 7.2,-4.8 11,-9.9 11,-14.6 0,-1.2 -1.9,-4.1 -4.4,-6.6 l -4.4,-4.4 -13.6,0.2 -13.6,0.1 z"
         id="path46"
         style="fill:#000000;stroke:none;stroke-width:0.1;fill-opacity:0.84705883"
         inkscape:connector-curvature="0" />
    </g>
    <g
       id="g4251"
       style="fill:#000000;fill-opacity:0.84705883">
      <title
         id="title1017">3.2.1</title>
      <desc
         id="desc4300">h2o34</desc>
      <path
         d="m 2928.2,306.3 c -5.1,2.9 -18.1,15.3 -18.2,17.3 0,1.3 2,4 5,6.8 4.9,4.5 5,4.6 12.2,4.8 17.7,0.4 18.6,0.2 25.8,-6 12,-10.3 12.5,-12 5.1,-19.3 l -4.8,-4.9 h -11.4 c -7.2,0.1 -12.2,0.5 -13.7,1.3 z"
         id="path48"
         style="fill:#000000;stroke:none;stroke-width:0.1;fill-opacity:0.84705883"
         inkscape:connector-curvature="0" />
    </g>
    <g
       id="g4206"
       style="fill:#000000;fill-opacity:0.84705883">
      <title
         id="title1018">0.3.1</title>
      <desc
         id="desc4270">h2o41</desc>
      <path
         d="m 2277.9,332.2 c -8.1,6.9 -9.7,9.3 -10.4,15.3 -0.4,2.7 -1.5,9.3 -2.5,14.5 -2.7,14.3 -4.3,27.3 -3.7,31.1 0.5,3.3 6.1,17.8 8.9,22.9 3.2,5.8 4.3,7 6.9,7 5.6,0 9.7,-7.9 11.8,-22.5 1.8,-11.9 5.1,-32.1 6,-36.5 1.4,-6.3 3.2,-17.6 3.8,-23.6 0.4,-4.9 0.3,-5.3 -3.5,-9.3 -5.7,-6 -9.2,-5.8 -17.3,1.1 z"
         id="path50"
         style="fill:#000000;stroke:none;stroke-width:0.1;fill-opacity:0.84705883"
         inkscape:connector-curvature="0" />
    </g>
    <g
       id="g4170"
       style="fill:#000000;fill-opacity:0.84705883">
      <title
         id="title1019">1.3.1</title>
      <desc
         id="desc4172">h2o42</desc>
      <path
         d="m 2508.3,330.7 c -10.7,8.1 -11.3,8.8 -12.4,15 -0.5,3.2 -1.4,8 -1.9,10.8 -6.7,36.6 -6.6,36.8 2,54 7.1,14.3 8.2,15.1 14,9.9 4.5,-4.1 5.5,-6.8 7,-18.4 0.6,-4.7 1.7,-12.3 2.5,-17 3.6,-20.7 4.6,-27.2 6.2,-37.8 l 1.7,-11.2 -4.4,-4.5 c -5.5,-5.6 -8.1,-5.8 -14.7,-0.8 z"
         id="path52"
         style="fill:#000000;stroke:none;stroke-width:0.1;fill-opacity:0.84705883"
         inkscape:connector-curvature="0" />
    </g>
    <g
       id="g4236"
       style="fill:#000000;fill-opacity:0.84705883">
      <title
         id="title1020">2.3.1</title>
      <desc
         id="desc4286">h2o43</desc>
      <path
         d="m 2739,329 c -1.9,1 -5.9,4.1 -8.9,6.7 l -5.3,4.8 -2.4,13.5 c -4.5,25.6 -4.9,28.5 -4.9,35.5 0,6.2 0.6,8.3 5.2,18.9 2.9,6.5 6,12.7 6.9,13.7 2.9,3.2 6.6,2.4 10.1,-2.1 3.1,-4 4.3,-8.9 7.2,-27.5 0.5,-3.3 2.1,-12.8 3.6,-21 4.1,-23 5.3,-32.8 4.5,-35 -1.1,-2.9 -8.6,-9.5 -10.8,-9.5 -0.9,0.1 -3.3,0.9 -5.2,2 z"
         id="path54"
         style="fill:#000000;stroke:none;stroke-width:0.1;fill-opacity:0.84705883"
         inkscape:connector-curvature="0" />
    </g>
    <g
       id="g4257"
       style="fill:#000000;fill-opacity:0.84705883">
      <title
         id="title1021">3.3.1</title>
      <desc
         id="desc4304">h2o44</desc>
      <path
         d="m 2965.9,330.9 c -8.7,5.7 -13,10.3 -14,15.1 -2.9,12.9 -6.3,36.5 -6.4,43.5 0,7.8 0.2,8.3 6.2,20.8 6.8,13.9 8.7,15.7 13.4,13 4.4,-2.6 7.7,-10.6 9,-21.8 0.6,-5.5 2.4,-17.4 4.1,-26.5 2.7,-15.3 5.7,-33.9 5.8,-36.7 0,-0.6 -1.9,-3.2 -4.3,-5.7 -5.1,-5.5 -7.5,-5.8 -13.8,-1.7 z"
         id="path56"
         style="fill:#000000;stroke:none;stroke-width:0.1;fill-opacity:0.84705883"
         inkscape:connector-curvature="0" />
    </g>
    <g
       id="g4203"
       style="fill:#000000;fill-opacity:0.84705883">
      <title
         id="title1022">0.2.0</title>
      <desc
         id="desc4272">h1o31</desc>
      <path
         d="m 2214.3,330.8 c -1.7,0.9 -6.3,4.7 -10.3,8.3 l -7.1,6.6 -2.9,17.4 c -4.4,26.4 -5,30.7 -5,33.7 0,4.2 5.1,13.6 7.6,14 2,0.3 17.1,-10.6 20.1,-14.5 2.7,-3.4 4.7,-13.7 9.5,-47.4 1,-7.1 1,-7.9 -1,-11 -1.1,-1.9 -3.3,-4.6 -4.9,-6.1 -2.8,-2.7 -2.9,-2.8 -6,-1 z"
         id="path58"
         style="fill:#000000;stroke:none;stroke-width:0.1;fill-opacity:0.84705883"
         inkscape:connector-curvature="0" />
    </g>
    <g
       id="g4233"
       style="fill:#000000;fill-opacity:0.84705883">
      <title
         id="title1023">2.2.0</title>
      <desc
         id="desc4284">h1o33</desc>
      <path
         d="m 2662.7,337 c -10.9,9.2 -9.5,6 -14.1,33.5 -1.4,8.2 -3,17.2 -3.5,20 -0.7,3.9 -0.6,6.1 0.9,10.8 1.9,6 5.2,10.7 7.6,10.7 1.5,0 10.8,-7.2 17,-13.2 4.6,-4.4 4.7,-4.7 9.3,-33.3 3.8,-23.2 3.8,-23.3 -0.1,-28.9 -6.1,-8.8 -6.1,-8.8 -17.1,0.4 z"
         id="path60"
         style="fill:#000000;stroke:none;stroke-width:0.1;fill-opacity:0.84705883"
         inkscape:connector-curvature="0" />
    </g>
    <g
       id="g4175"
       style="fill:#000000;fill-opacity:0.84705883">
      <title
         id="title1024">1.2.0</title>
      <desc
         id="desc4177">h1o32</desc>
      <path
         d="m 2434.3,336.7 c -4.5,3.8 -8.4,7.5 -8.8,8.3 -0.6,1.3 -1.9,8.2 -7.2,38 -1.9,11.2 -1.8,15 0.7,20.7 2.8,6.4 4.8,8.5 7.4,7.7 3.7,-1.2 19.4,-16.3 20.5,-19.7 0.6,-1.8 1.5,-7 2.1,-11.7 0.7,-4.7 2.2,-13.8 3.6,-20.4 2.8,-14.1 3,-18.3 0.7,-21.6 -2.7,-4 -7.4,-8 -9.2,-8 -0.9,0 -5.3,3 -9.8,6.7 z"
         id="path62"
         style="fill:#000000;stroke:none;stroke-width:0.1;fill-opacity:0.84705883"
         inkscape:connector-curvature="0" />
    </g>
    <g
       id="g4254"
       style="fill:#000000;fill-opacity:0.84705883">
      <title
         id="title1025">3.2.0</title>
      <desc
         id="desc4302">h1o34</desc>
      <path
         d="m 2900,330.8 c -0.8,0.3 -5.4,3.8 -10.2,7.9 l -8.6,7.4 -1.5,7.2 c -1.4,6.7 -3,15.8 -5.9,33.2 -1.4,8.9 -1.4,10.1 0.6,15.4 2.2,5.7 5.3,10.1 7.3,10.1 1.8,0 12.1,-8.1 18.3,-14.4 4.8,-5 4.3,-3.1 6.9,-24.6 0.6,-4.7 1.5,-10.1 2.1,-12 0.5,-1.9 1.3,-7.5 1.6,-12.5 l 0.6,-9 -3.2,-3.8 c -3.6,-4.3 -5.9,-5.7 -8,-4.9 z"
         id="path64"
         style="fill:#000000;stroke:none;stroke-width:0.1;fill-opacity:0.84705883"
         inkscape:connector-curvature="0" />
    </g>
    <g
       id="g4468"
       style="fill:#000000;fill-opacity:0.84705883">
      <title
         id="title1026">7.0.1</title>
      <desc
         id="desc4470">h2o18</desc>
      <path
         d="m 1295,365.7 c -9.8,1.6 -17.4,3.9 -24.4,7.3 -14.5,6.9 -19.4,12.9 -24.1,29.4 -5.2,18.3 -3.7,34.7 4.6,50.5 4.6,8.7 10.9,14.8 20.1,19.3 10.4,5.1 18.6,7.1 29.3,7.1 17.1,0.1 33.4,-5.5 41.2,-14.1 16.9,-18.8 21,-51.3 9.3,-74.9 -5,-10.2 -10.5,-14.8 -24,-20 -8.5,-3.3 -25.4,-5.8 -32,-4.6 z"
         id="path66"
         style="fill:#000000;stroke:none;stroke-width:0.1;fill-opacity:0.84705883"
         inkscape:connector-curvature="0" />
    </g>
    <g
       id="g4483"
       style="fill:#000000;fill-opacity:0.84705883">
      <title
         id="title1027">8.2.0</title>
      <desc
         id="desc4485">h1os3</desc>
      <path
         d="m 1983.2,367.5 c -22,5.8 -32.8,13.9 -37.8,28.4 -4.1,11.9 -5.6,20.8 -4.9,29.4 1.6,19.3 8.8,35.3 18.9,42 13.4,8.9 22.9,11.9 38.6,12 12,0.2 20.4,-1.7 31.7,-6.9 12.7,-5.7 19.9,-16.4 24.8,-36.9 2,-8.1 1.5,-23.2 -1,-32.5 -2.6,-9.8 -8.4,-19.9 -13.5,-23.6 -11.3,-8.3 -24,-12.7 -39.5,-13.8 -6.6,-0.5 -9.7,-0.1 -17.3,1.9 z"
         id="path68"
         style="fill:#000000;stroke:none;stroke-width:0.1;fill-opacity:0.84705883"
         inkscape:connector-curvature="0" />
    </g>
    <g
       id="g4200"
       style="fill:#000000;fill-opacity:0.84705883">
      <title
         id="title1028">0.3.0</title>
      <desc
         id="desc4274">h1o41</desc>
      <path
         d="m 2231.5,401.6 c -6.2,3.2 -20,15 -22.9,19.5 -1.7,2.7 -1.7,3.1 -0.2,5.3 2.6,4.1 6.8,4.7 29,4.4 15.1,-0.2 20.8,-0.6 21.8,-1.6 0.8,-0.8 1.3,-3.7 1.3,-7 0,-4.6 -0.8,-7.4 -3.9,-14 l -3.9,-8.2 h -9.1 c -6.3,0 -10,0.5 -12.1,1.6 z"
         id="path70"
         style="fill:#000000;stroke:none;stroke-width:0.1;fill-opacity:0.84705883"
         inkscape:connector-curvature="0" />
    </g>
    <g
       id="g4195"
       style="fill:#000000;fill-opacity:0.84705883">
      <title
         id="title1029">1.3.0</title>
      <desc
         id="desc4197">h1o42</desc>
      <path
         d="m 2462.6,400.7 c -4,0.6 -9.3,4.5 -19.6,14.1 -8.2,7.6 -8.4,8 -7.2,10.6 2.2,4.9 6,5.6 29.5,5.6 15.2,0 21.6,-0.3 22.5,-1.2 3.3,-3.3 -1.8,-23.6 -7,-28.1 -2,-1.7 -10.3,-2.1 -18.2,-1 z"
         id="path72"
         style="fill:#000000;stroke:none;stroke-width:0.1;fill-opacity:0.84705883"
         inkscape:connector-curvature="0" />
    </g>
    <g
       id="g4239"
       style="fill:#000000;fill-opacity:0.84705883">
      <title
         id="title1030">2.3.0</title>
      <desc
         id="desc4288">h1o43</desc>
      <path
         d="m 2689.6,401.1 c -3.8,1.1 -10.8,6.6 -22.8,18.1 -3.6,3.4 -3.6,7 -0.2,9.7 2.5,2 3.9,2.1 26.1,2.1 h 23.3 l 1.1,-2.7 c 1.3,-3.4 0.5,-7.1 -3.4,-15.8 -5.4,-12.2 -5.6,-12.4 -14,-12.3 -4,0 -8.5,0.4 -10.1,0.9 z"
         id="path74"
         style="fill:#000000;stroke:none;stroke-width:0.1;fill-opacity:0.84705883"
         inkscape:connector-curvature="0" />
    </g>
    <g
       id="g4260"
       style="fill:#000000;fill-opacity:0.84705883">
      <title
         id="title1031">3.3.0</title>
      <desc
         id="desc4306">h1o44</desc>
      <path
         d="m 2916.5,402.9 c -3.6,1.7 -20.9,15.8 -22.7,18.5 -1.7,2.5 -0.8,6.6 1.9,8.3 2.4,1.6 5.3,1.8 25.6,1.7 18.5,-0.1 23.1,-0.4 23.8,-1.5 2.2,-3.5 1,-11.5 -3.1,-19.6 -2.2,-4.5 -4.7,-8.4 -5.6,-8.7 -3.5,-1.4 -15.9,-0.5 -19.9,1.3 z"
         id="path76"
         style="fill:#000000;stroke:none;stroke-width:0.1;fill-opacity:0.84705883"
         inkscape:connector-curvature="0" />
    </g>
    <g
       id="g4463"
       style="fill:#000000;fill-opacity:0.84705883">
      <title
         id="title1032">7.0.0</title>
      <desc
         id="desc4465">h1o18</desc>
      <path
         d="m 1529,486.7 c -6.7,0.8 -17.6,4.6 -23.5,8 -11.7,6.9 -14,9.5 -19.8,23.3 -5.1,12.1 -4.9,35 0.5,49 5.2,13.6 11.3,20.3 24.3,26.5 8.9,4.3 13.5,5.3 26.5,6.1 8.8,0.5 11.8,0.3 18.6,-1.5 9.4,-2.4 18.5,-6.9 23.2,-11.4 14.2,-13.7 20.7,-40.1 15.2,-62.2 -2.5,-10.4 -8.2,-20.9 -13.4,-24.9 -5.1,-3.9 -15.8,-9.2 -22.4,-11.2 -5.6,-1.7 -22.2,-2.7 -29.2,-1.7 z"
         id="path78"
         style="fill:#000000;stroke:none;stroke-width:0.1;fill-opacity:0.84705883"
         inkscape:connector-curvature="0" />
    </g>
    <g
       id="g4473"
       style="fill:#000000;fill-opacity:0.84705883">
      <title
         id="title1033">8.3.0</title>
      <desc
         id="desc4475">h1os4</desc>
      <path
         d="m 1746,487.4 c -10.7,2.4 -20,6.5 -27.8,12.4 -12.3,9.1 -19.4,38 -14.2,58.2 5.6,22.2 14.5,31.9 35.5,39.1 6.2,2.1 8.7,2.4 22,2.4 17,-0.1 20.1,-0.9 32.3,-8.6 11.3,-7.2 18.9,-19.6 21.7,-35.4 2.7,-15.5 1.6,-26.1 -4.3,-41.4 -4.3,-11 -10.2,-16.6 -24.2,-22.9 -11.2,-5 -28.4,-6.6 -41,-3.8 z"
         id="path80"
         style="fill:#000000;stroke:none;stroke-width:0.1;fill-opacity:0.84705883"
         inkscape:connector-curvature="0" />
    </g>
    <g
       id="g4443"
       style="fill:#000000;fill-opacity:0.84705883">
      <title
         id="title1034">7.3.1</title>
      <desc
         id="desc4445">h2o48</desc>
      <path
         d="m 1111.1,512.2 c -16.1,4.1 -18.2,5 -25.3,11.6 -8,7.6 -11.9,14.9 -14.8,27.8 -3.2,14.4 -2.3,25.9 3.1,39.3 6.8,17.1 14.1,24 31.8,30.1 7.7,2.6 10.2,3 19.5,3 12.5,0 22.4,-2 31.4,-6.3 5.1,-2.4 7.5,-4.4 11.6,-9.6 6.5,-8.3 8,-11.1 11.3,-20.8 2.5,-7.1 2.7,-9.1 2.8,-23.3 v -15.5 l -3.9,-9 c -6,-13.8 -13.9,-20.6 -29.7,-25.4 -14.4,-4.4 -25.7,-5 -37.8,-1.9 z"
         id="path82"
         style="fill:#000000;stroke:none;stroke-width:0.1;fill-opacity:0.84705883"
         inkscape:connector-curvature="0" />
    </g>
    <g
       id="g4344"
       style="fill:#000000;fill-opacity:0.84705883">
      <title
         id="title1035">4.3.0</title>
      <desc
         id="desc4346">h1o45</desc>
      <path
         d="m 2157.9,512.9 c -9.2,2 -18,6.1 -27.4,12.7 -6.9,4.8 -9.9,10.2 -13.6,23.9 -6.3,23.7 1.6,53.4 17.1,64.6 6.2,4.5 20.2,9.5 30,10.8 15.5,2 31.8,-1.4 44.8,-9.2 12,-7.2 21.8,-30.4 21.5,-50.7 -0.3,-12.2 -7.2,-31.8 -13.3,-37.6 -14,-13.3 -37.8,-19.2 -59.1,-14.5 z"
         id="path84"
         style="fill:#000000;stroke:none;stroke-width:0.1;fill-opacity:0.84705883"
         inkscape:connector-curvature="0" />
    </g>
    <g
       id="g4448"
       style="fill:#000000;fill-opacity:0.84705883">
      <title
         id="title1036">7.2.1</title>
      <desc
         id="desc4450">h2o38</desc>
      <path
         d="m 1321.5,582.6 c -11.1,1.8 -23.8,7.5 -32.6,14.6 -2.4,2 -7.6,10.7 -9.3,15.8 -5.5,16.2 -5.7,31.8 -0.6,46.7 5.5,16.3 13.1,24.7 27.1,30.2 10.5,4.2 15.9,5.1 29.3,5.1 12.7,0 19.9,-1.8 30,-7.5 6.7,-3.7 11.6,-9.6 17,-20.2 7.3,-14.6 9,-34.9 4.1,-50.3 -3.2,-10.1 -7.6,-18 -11.7,-21.5 -3.8,-3.2 -20.7,-11.5 -23.4,-11.5 -1.2,0 -3.4,-0.4 -5,-0.9 -4.9,-1.6 -16.5,-1.8 -24.9,-0.5 z"
         id="path86"
         style="fill:#000000;stroke:none;stroke-width:0.1;fill-opacity:0.84705883"
         inkscape:connector-curvature="0" />
    </g>
    <g
       id="g4503"
       style="fill:#000000;fill-opacity:0.84705883">
      <title
         id="title1037">8.0.0</title>
      <desc
         id="desc4505">h1os1</desc>
      <path
         d="m 1951,583.9 c -8.9,1.9 -18.4,6.1 -25.9,11.5 -10.6,7.5 -16.5,22.7 -16.5,42.6 0,13.1 1.5,20.1 7,31.6 5.2,10.9 10.5,15.5 25.3,21.8 9.3,4 13,4.7 24,4.7 21.5,0 39.6,-8 48.3,-21.3 6.2,-9.5 11.2,-28.3 10.2,-38.3 -1.8,-19.9 -7.5,-34.2 -15.8,-40.5 -16,-11.9 -37,-16.4 -56.6,-12.1 z"
         id="path88"
         style="fill:#000000;stroke:none;stroke-width:0.1;fill-opacity:0.84705883"
         inkscape:connector-curvature="0" />
    </g>
    <g
       id="g4458"
       style="fill:#000000;fill-opacity:0.84705883">
      <title
         id="title1038">7.1.1</title>
      <desc
         id="desc4460">h2o28</desc>
      <path
         d="m 1534,685.7 c -8.9,1.5 -20.4,6.7 -29.5,13.3 -11.7,8.6 -18.2,33.2 -14.5,54.3 1.6,8.7 3.5,14.1 8.1,22.4 5.7,10.3 11.5,14.6 27.4,20 9.8,3.3 26.5,4.2 35.5,1.8 12.6,-3.3 20.6,-7.3 25.5,-12.8 5.8,-6.3 12.1,-19.3 14.1,-28.8 1.8,-8.3 2.1,-23.1 0.6,-29.9 -1.4,-6.5 -5.9,-17.9 -8.5,-21.8 -5,-7.4 -17.4,-14.3 -31.7,-17.7 -6,-1.3 -21,-1.8 -27,-0.8 z"
         id="path90"
         style="fill:#000000;stroke:none;stroke-width:0.1;fill-opacity:0.84705883"
         inkscape:connector-curvature="0" />
    </g>
    <g
       id="g4493"
       style="fill:#000000;fill-opacity:0.84705883">
      <title
         id="title1039">8.1.0</title>
      <desc
         id="desc4495">h1os2</desc>
      <path
         d="m 1740.5,685.7 c -11.4,2.6 -26.4,9.5 -31.5,14.5 -7.5,7.3 -14,26.6 -14,41.8 0,14.8 6.7,33.5 15.2,42.1 5.2,5.3 16.8,11.2 26.3,13.5 19,4.5 43.6,-0.5 55.5,-11.2 13.8,-12.5 20.6,-40.7 15,-62.9 -2.8,-11.2 -7.1,-19.6 -12.4,-24.1 -9.7,-8.3 -28.5,-14.5 -43.6,-14.3 -4.7,0.1 -9.4,0.3 -10.5,0.6 z"
         id="path92"
         style="fill:#000000;stroke:none;stroke-width:0.1;fill-opacity:0.84705883"
         inkscape:connector-curvature="0" />
    </g>
    <g
       id="g4366"
       style="fill:#000000;fill-opacity:0.84705883">
      <title
         id="title1040">7.3.0</title>
      <desc
         id="desc4368">h1o48</desc>
      <path
         d="m 988,721 c -8,1.7 -22.9,8.6 -28.6,13.4 -4.3,3.5 -9.6,13.9 -12.6,24.3 -2.9,10.3 -2.9,25.9 0.1,35.1 3,9.2 7.5,18.1 11.6,22.9 10.5,12.3 35.3,19.4 55.2,15.9 8.3,-1.5 22.3,-7.3 26.2,-10.9 5.7,-5.3 13.2,-19.3 16.2,-30.4 5.6,-20.3 -2.3,-50.9 -15.4,-59.9 -6.1,-4.2 -19.5,-9.4 -27.2,-10.5 -7.1,-1 -20.5,-1 -25.5,0.1 z"
         id="path94"
         style="fill:#000000;stroke:none;stroke-width:0.1;fill-opacity:0.84705883"
         inkscape:connector-curvature="0" />
    </g>
    <g
       id="g4376"
       style="fill:#000000;fill-opacity:0.84705883">
      <title
         id="title1041">4.3.1</title>
      <desc
         id="desc4378">h2o45</desc>
      <path
         d="m 2285.5,722.7 c -8.6,1 -20.6,5.9 -29.8,12 -11.2,7.5 -18.7,35.2 -15.1,56 1.6,9.6 8.7,25.4 12.9,29.2 8.5,7.5 23.1,13.6 36.1,15.2 15.3,1.9 34.7,-3.1 46.7,-11.9 5.2,-3.9 10.1,-11.2 13.5,-20.2 4,-10.4 5.5,-33.3 2.7,-42.3 -2.7,-9.1 -9.1,-21.1 -12.8,-24.4 -5.2,-4.6 -19.1,-11.1 -27.2,-12.8 -6.4,-1.3 -19.6,-1.7 -27,-0.8 z"
         id="path96"
         style="fill:#000000;stroke:none;stroke-width:0.1;fill-opacity:0.84705883"
         inkscape:connector-curvature="0" />
    </g>
    <g
       id="g4371"
       style="fill:#000000;fill-opacity:0.84705883">
      <title
         id="title1042">7.2.0</title>
      <desc
         id="desc4373">h1o38</desc>
      <path
         d="m 1176,752.9 c -8.2,1 -26.3,10.7 -31.8,17.1 -3,3.4 -8.2,16 -9.6,23.2 -3.4,16.5 -1.4,31.1 6.1,46.5 8.2,16.8 25.6,25.5 51.3,25.7 11.2,0 13.3,-0.3 19.7,-2.7 12.4,-4.5 14.8,-6.2 21.2,-14.4 7.2,-9.2 11.5,-20.5 13.2,-34.8 1.5,-12 -0.6,-23.4 -6.5,-36 -3.7,-7.9 -5,-9.6 -9.7,-12.9 -14.9,-10.8 -31.4,-14.3 -53.9,-11.7 z"
         id="path102"
         style="fill:#000000;stroke:none;stroke-width:0.1;fill-opacity:0.84705883"
         inkscape:connector-curvature="0" />
    </g>
    <g
       id="g4508"
       style="fill:#000000;fill-opacity:0.84705883">
      <title
         id="title1043">8.0.1</title>
      <desc
         id="desc4510">h2os1</desc>
      <path
         d="m 2094.4,754.4 c -9,2.1 -19.7,7 -26.2,12 -14.4,11 -21.2,38.6 -15.2,61 2.4,9.1 3.7,11.8 9.3,20.4 3.8,5.6 5.1,6.7 12.9,10.8 11.5,5.9 21.5,8.4 33.6,8.4 11.3,0 18.9,-1.8 29.8,-7 9.6,-4.6 14.9,-10 19.6,-19.9 6.8,-14.2 8.9,-36.8 4.7,-49.3 -4.2,-12.6 -9,-20.8 -14.5,-24.9 -6.7,-5 -14.5,-8.7 -21.9,-10.4 -9,-2.2 -24.9,-2.7 -32.1,-1.1 z"
         id="path104"
         style="fill:#000000;stroke:none;stroke-width:0.1;fill-opacity:0.84705883"
         inkscape:connector-curvature="0" />
    </g>
    <g
       id="g4453"
       style="fill:#000000;fill-opacity:0.84705883">
      <title
         id="title1044">7.1.0</title>
      <desc
         id="desc4455">h1o28</desc>
      <path
         d="m 1371.5,799.1 c -5.7,0.5 -11.2,2 -19,5 -14.4,5.6 -20.2,11.1 -25.8,24.1 -9.1,21.2 -7,43.5 6,64.3 4.2,6.8 14.9,13.8 25.4,16.8 16.7,4.7 30.5,3.9 47.9,-2.6 11.6,-4.4 21.7,-18 26.6,-35.8 2.5,-8.8 2.5,-27.2 0,-35.4 -3.6,-12.2 -7.9,-19.8 -13.2,-23.7 -9.2,-6.7 -19.7,-10.9 -30.9,-12.3 -2.7,-0.3 -5.9,-0.7 -7,-0.9 -1.1,-0.1 -5.6,0.1 -10,0.5 z"
         id="path106"
         style="fill:#000000;stroke:none;stroke-width:0.1;fill-opacity:0.84705883"
         inkscape:connector-curvature="0" />
    </g>
    <g
       id="g4498"
       style="fill:#000000;fill-opacity:0.84705883">
      <title
         id="title1045">8.1.1</title>
      <desc
         id="desc4500">h2os2</desc>
      <path
         d="m 1910.5,799.6 c -1.1,0.2 -4.5,0.9 -7.5,1.5 -7.4,1.5 -19.4,7.2 -25,11.9 -6.1,5.1 -13.4,20.2 -15.1,31 -2.3,15.1 0.6,32.2 7.6,44.2 6.5,11.2 7.9,12.5 18.8,17.7 12.9,6.2 19.4,7.5 34.5,6.9 12.6,-0.6 20.3,-2.7 29.6,-8.2 5.5,-3.2 7.8,-5.5 12,-12.1 13.2,-20.6 14.4,-47.1 3.2,-69.4 -2.7,-5.3 -4.8,-8 -8.4,-10.6 -7.4,-5.4 -14,-8.7 -21.6,-10.7 -6.8,-1.9 -23.9,-3.2 -28.1,-2.2 z"
         id="path108"
         style="fill:#000000;stroke:none;stroke-width:0.1;fill-opacity:0.84705883"
         inkscape:connector-curvature="0" />
    </g>
    <g
       id="g4438"
       style="fill:#000000;fill-opacity:0.84705883">
      <title
         id="title1046">6.2.1</title>
      <desc
         id="desc4440">h2o37</desc>
      <path
         d="m 944.5,948 c -12.5,2 -27.1,8.6 -34.1,15.5 -5.1,5.2 -9.8,16.2 -11.9,28.1 -1.8,10.3 -0.8,25 2.3,33.1 2.6,7 9.6,18.4 13.4,22.2 8.2,8.1 21.6,13 37.8,13.8 13.7,0.7 19.2,-0.3 30.4,-5.5 11.7,-5.5 19.5,-15.2 25.4,-31.4 2.5,-6.7 2.7,-8.5 2.7,-21.8 -0.1,-15.3 -0.4,-17.1 -6.2,-30 -7.6,-17 -34.8,-27.9 -59.8,-24 z"
         id="path110"
         style="fill:#000000;stroke:none;stroke-width:0.1;fill-opacity:0.84705883"
         inkscape:connector-curvature="0" />
    </g>
    <g
       id="g4326"
       style="fill:#000000;fill-opacity:0.84705883">
      <title
         id="title1047">4.0.0</title>
      <desc
         id="desc4328">h1o15</desc>
      <path
         d="m 2333.5,950.1 c -13.2,2 -28,8.4 -34.2,14.8 -3.9,4 -9.1,14.6 -11.9,24.1 -2.7,9.3 -2.5,27.2 0.4,35.7 5.9,17.1 11.3,24.4 22.1,30.2 10.7,5.7 16.5,7.2 30.1,7.7 11.1,0.5 13.5,0.3 21.7,-1.9 5.6,-1.5 11.9,-4 16.1,-6.5 5.8,-3.5 7.8,-5.4 11.8,-11.4 2.6,-4 5.9,-10.5 7.3,-14.3 2.4,-6.4 2.6,-8.4 2.6,-22.5 0,-17.6 -0.9,-21.7 -7.6,-33.6 -3.3,-5.7 -5.2,-7.8 -10.2,-11.1 -8.3,-5.5 -10.9,-6.7 -19.7,-9.1 -9.2,-2.5 -20.5,-3.4 -28.5,-2.1 z"
         id="path112"
         style="fill:#000000;stroke:none;stroke-width:0.1;fill-opacity:0.84705883"
         inkscape:connector-curvature="0" />
    </g>
    <g
       id="g4433"
       style="fill:#000000;fill-opacity:0.84705883">
      <title
         id="title1048">6.1.1</title>
      <desc
         id="desc4435">h2o27</desc>
      <path
         d="m 1112.5,970 c -10.1,1.5 -26,9.4 -31.4,15.5 -3.7,4.2 -7,10.5 -10.1,19.5 -1.9,5.4 -2.3,8.6 -2.4,19 0,13.6 0.8,17.5 5.8,28.5 6.2,13.4 13.4,20.3 27.2,25.9 13.4,5.5 34.5,5.2 49.7,-0.5 10.7,-4.1 16.8,-10.2 23.2,-23.2 9.7,-19.8 9.9,-40.1 0.6,-60.2 -4.5,-9.5 -8.6,-13.5 -19.2,-18.8 -12,-5.9 -28.1,-8 -43.4,-5.7 z"
         id="path114"
         style="fill:#000000;stroke:none;stroke-width:0.1;fill-opacity:0.84705883"
         inkscape:connector-curvature="0" />
    </g>
    <g
       id="g4321"
       style="fill:#000000;fill-opacity:0.84705883">
      <title
         id="title1049">4.1.0</title>
      <desc
         id="desc4323">h1o25</desc>
      <path
         d="m 2154.2,972.5 c -14.7,4.5 -25.6,11.2 -30.3,18.8 -5.4,8.9 -9.9,24.3 -9.9,34 0,12.8 4.6,28.7 11.1,38.9 10.3,16 40.7,24.4 64.9,17.9 7.9,-2.1 17.7,-6.8 22.7,-10.8 2.5,-2.1 10.3,-13.2 10.3,-14.7 0,-0.6 0.7,-2.5 1.6,-4.1 4.2,-8 5.7,-28.8 3,-41.7 -0.8,-3.6 -3.3,-10.4 -5.5,-15.1 -3.6,-7.5 -4.7,-8.9 -9.7,-12.2 -13.6,-9 -23.3,-12.2 -39.6,-13 -9.1,-0.5 -11.3,-0.2 -18.6,2 z"
         id="path116"
         style="fill:#000000;stroke:none;stroke-width:0.1;fill-opacity:0.84705883"
         inkscape:connector-curvature="0" />
    </g>
    <g
       id="g4428"
       style="fill:#000000;fill-opacity:0.84705883">
      <title
         id="title1050">6.0.1</title>
      <desc
         id="desc4430">h2o17</desc>
      <path
         d="m 1286.8,988 c -30.1,7.6 -40.3,19.2 -44.3,50.5 -0.9,6.3 1.6,20.9 4.9,29.3 1.4,3.5 4.5,9.3 6.9,13 3.8,5.7 5.6,7.4 12.1,11.1 11.5,6.5 18.7,8.4 33.1,8.4 25.6,0.1 39.9,-7.9 49.6,-27.8 9.3,-19 9.2,-41.9 -0.2,-61 -4.3,-8.7 -6.5,-10.9 -14.9,-15.6 -10.8,-6 -18.4,-8.1 -31.5,-8.5 -6.6,-0.2 -13.7,0.1 -15.7,0.6 z"
         id="path118"
         style="fill:#000000;stroke:none;stroke-width:0.1;fill-opacity:0.84705883"
         inkscape:connector-curvature="0" />
    </g>
    <g
       id="g4316"
       style="fill:#000000;fill-opacity:0.84705883">
      <title
         id="title1051">4.2.0</title>
      <desc
         id="desc4318">h1o35</desc>
      <path
         d="m 1982.5,989.4 c -8.6,2 -15.9,5.1 -23.2,9.9 -6.2,4 -6.6,4.6 -11.7,15.2 -6.5,13.4 -8.1,21.2 -7.2,33.9 0.8,11.4 2.4,17.5 7.2,27.2 4.3,8.8 8.4,13.1 16.3,17.5 10,5.5 18.6,8 30.1,8.6 13.2,0.6 22.5,-1.2 33.6,-6.7 12.1,-5.9 17.7,-13 23.6,-29.7 2.8,-7.8 3.1,-10.1 3.2,-20.3 0,-9.1 -0.5,-13.2 -2.3,-19.5 -2.4,-8.5 -6.8,-17.2 -11,-21.8 -4.7,-5.1 -18.8,-12.5 -27.2,-14.2 -7,-1.4 -25.3,-1.5 -31.4,-0.1 z"
         id="path120"
         style="fill:#000000;stroke:none;stroke-width:0.1;fill-opacity:0.84705883"
         inkscape:connector-curvature="0" />
    </g>
    <g
       id="g4351"
       style="fill:#000000;fill-opacity:0.84705883">
      <title
         id="title1052">6.2.0</title>
      <desc
         id="desc4353">h1o37</desc>
      <path
         d="m 941.5,1188.3 c -11.9,2.1 -25.2,8.5 -32.2,15.6 -3.5,3.5 -7.7,13.9 -9.9,24.6 -1.4,6.8 -1.5,9.6 -0.5,19 1.6,16.2 6.2,26.6 17.2,39 7.2,8.1 10.6,10.6 16.9,12.4 2.5,0.7 5.8,1.7 7.4,2.2 4.3,1.3 19,1 27.6,-0.5 12,-2.2 19.9,-6.6 27.1,-15 12.5,-14.8 16.4,-25.5 16.4,-46.1 0,-10.9 -0.4,-14.2 -2.3,-20.4 -2.1,-6.6 -3.1,-8.2 -9,-14.1 -13.8,-13.6 -37.7,-20.4 -58.7,-16.7 z"
         id="path130"
         style="fill:#000000;stroke:none;stroke-width:0.1;fill-opacity:0.84705883"
         inkscape:connector-curvature="0" />
    </g>
    <g
       id="g4387"
       style="fill:#000000;fill-opacity:0.84705883">
      <title
         id="title1053">4.0.1</title>
      <desc
         id="desc4393">h2o15</desc>
      <path
         d="m 2331.5,1189 c -20.2,4.9 -32.2,12.4 -37.9,23.9 -10.8,21.5 -10.8,42.6 0,64.5 6.4,13.1 22.2,22.1 43,24.7 9,1.1 10.9,1 20.7,-0.9 14,-2.7 24.5,-7.8 29.4,-14.2 14.8,-19.3 18.4,-47.5 9,-69.6 -5.1,-12 -8.6,-15.7 -20.6,-21.9 -10.6,-5.4 -33.7,-8.8 -43.6,-6.5 z"
         id="path132"
         style="fill:#000000;stroke:none;stroke-width:0.1;fill-opacity:0.84705883"
         inkscape:connector-curvature="0" />
    </g>
    <g
       id="g4356"
       style="fill:#000000;fill-opacity:0.84705883">
      <title
         id="title1054">6.1.0</title>
      <desc
         id="desc4358">h1o27</desc>
      <path
         d="m 1112.6,1191.6 c -15.6,2.9 -29.1,10.4 -34.6,19.2 -7.1,11.3 -10.9,32.8 -8.1,46 3.5,16.2 12.5,32 22.7,39.7 4.5,3.5 15.1,7.3 23.6,8.5 8.9,1.3 24,-0.5 33.8,-3.9 7.7,-2.7 9.1,-3.7 14.8,-9.8 12.5,-13.2 19,-31.9 17.9,-51.3 -0.9,-16.6 -5.7,-27.6 -15.5,-35.3 -14.4,-11.3 -36.3,-16.6 -54.6,-13.1 z"
         id="path134"
         style="fill:#000000;stroke:none;stroke-width:0.1;fill-opacity:0.84705883"
         inkscape:connector-curvature="0" />
    </g>
    <g
       id="g4361"
       style="fill:#000000;fill-opacity:0.84705883">
      <title
         id="title1055">6.0.0</title>
      <desc
         id="desc4363">h1o17</desc>
      <path
         d="m 1278.7,1191.1 c -8.6,1.3 -25.6,9.7 -29.6,14.8 -7.1,8.9 -11.9,23.2 -12.8,37.6 -1,16.9 5.7,34.9 17.9,48 6.3,6.8 7.1,7.3 15.5,9.9 10.6,3.4 25.9,4.5 35.5,2.6 9.6,-1.8 20.8,-6.8 25.4,-11.2 4.6,-4.4 12.8,-17.4 15.1,-24 5.9,-16.6 5.8,-32.4 0,-48.4 -3.6,-9.9 -5.4,-12 -15.9,-19 -13.9,-9.3 -32.5,-13 -51.1,-10.3 z"
         id="path136"
         style="fill:#000000;stroke:none;stroke-width:0.1;fill-opacity:0.84705883"
         inkscape:connector-curvature="0" />
    </g>
    <g
       id="g4381"
       style="fill:#000000;fill-opacity:0.84705883">
      <title
         id="title1056">4.2.1</title>
      <desc
         id="desc4389">h2o35</desc>
      <path
         d="m 1991.3,1193.4 c -10.5,2.6 -19.9,6.7 -26.5,11.7 -5.7,4.2 -7.3,6.2 -10.3,12.2 -5.1,10.4 -6.8,19.7 -6.2,33.7 0.8,16.4 5.1,28.3 14.4,39.8 4,4.9 13,9.8 24.3,13.3 14.5,4.4 36.8,2.6 50,-4.1 5.9,-3 13.3,-11.8 17.9,-21.3 8.4,-17.3 9.9,-35.9 4.4,-52.7 -4.1,-12.3 -7.6,-17.5 -15.2,-22.5 -7,-4.7 -17.7,-9.2 -25.1,-10.5 -6.6,-1.3 -21.7,-1 -27.7,0.4 z"
         id="path138"
         style="fill:#000000;stroke:none;stroke-width:0.1;fill-opacity:0.84705883"
         inkscape:connector-curvature="0" />
    </g>
    <g
       id="g4384"
       style="fill:#000000;fill-opacity:0.84705883">
      <title
         id="title1057">4.1.1</title>
      <desc
         id="desc4391">h2o25</desc>
      <path
         d="m 2157.5,1193.5 c -11.3,2.9 -23.1,9.1 -29.6,15.5 -5.1,5.1 -10.4,16.4 -12,25.8 -1.9,10.5 -1.1,24.2 1.7,32.9 5.8,17.4 12.2,25.6 24.9,31.7 18.4,9 42,9.3 60.8,0.9 4.6,-2.1 7.2,-4.2 11.6,-9.4 7.2,-8.6 9.3,-12.9 12.7,-25.9 2.4,-9.3 2.6,-11.7 2.1,-21 -0.8,-12.7 -2.5,-19 -8.2,-29.5 -4.1,-7.6 -4.8,-8.3 -12.2,-12.6 -4.3,-2.6 -9.4,-5.2 -11.3,-5.8 -12.3,-3.9 -30.8,-5.2 -40.5,-2.6 z"
         id="path140"
         style="fill:#000000;stroke:none;stroke-width:0.1;fill-opacity:0.84705883"
         inkscape:connector-curvature="0" />
    </g>
    <g
       id="g4332"
       style="fill:#000000;fill-opacity:0.84705883">
      <title
         id="title1058">5.0.0</title>
      <desc
         id="desc4334">h1o16</desc>
      <path
         d="m 1053.4,1295.5 c -1.3,3.1 -2.4,6.2 -2.4,6.9 0,0.8 3.6,4.7 8.1,8.7 10.3,9.4 11.7,11.4 14,20.4 3.4,14 13.5,31.2 23.7,40.6 5.3,5 13.4,9.9 16.2,9.9 2.4,0 9.8,8.7 10.2,12.1 0.3,1.9 1.7,10.1 3.2,18.4 2.5,14.4 5.2,32.1 8.1,52.5 0.7,5.2 2,13.1 2.8,17.5 0.9,4.4 1.8,10.5 2.2,13.5 0.8,7 3.8,12.5 9.3,16.7 4,3 5,3.3 11.5,3.3 12.1,0 18.1,-4.3 21.4,-15.2 1.6,-5.5 1.5,-7.1 -1.2,-23.8 -0.8,-5.2 -2.4,-15.6 -3.5,-23 -1.1,-7.4 -2.5,-15.8 -3,-18.5 -0.5,-2.8 -1.6,-10 -2.5,-16 -1.4,-10.5 -2.1,-14.9 -4.6,-29.3 -2.2,-12.1 -1.6,-19.7 2.4,-31.7 1.9,-6.1 4.3,-14.1 5.3,-17.8 1.1,-4.4 3.3,-9.3 6.4,-14 8.9,-13.5 10.2,-17.8 7,-22 -1.2,-1.5 -3,-2.7 -4.1,-2.7 -3.6,0 -10.7,4.3 -18.9,11.4 -6.3,5.4 -21.1,12.2 -28.4,13 -7,0.8 -21,-0.9 -28.4,-3.5 -6,-2.1 -17.5,-8.8 -25.9,-15.2 -3.1,-2.3 -7.8,-5.8 -10.3,-7.7 -2.6,-1.9 -6.7,-5 -9,-6.8 -2.4,-1.7 -4.9,-3.2 -5.7,-3.2 -0.8,0 -2.5,2.5 -3.9,5.5 z"
         id="path154"
         style="fill:#000000;stroke:none;stroke-width:0.1;fill-opacity:0.84705883"
         inkscape:connector-curvature="0" />
      <path
         d="m 2232.9,1298.2 c -2.5,1.8 -8.5,6.3 -13.3,9.9 -8.2,6.2 -26.5,16.2 -35.9,19.5 -4.8,1.7 -18.5,1.9 -26.5,0.4 -7,-1.3 -13,-4.5 -23.7,-12.6 -16.4,-12.4 -20.1,-13.7 -23.5,-8.2 -3.7,6.1 -2.6,10.3 6.5,25.3 2.4,3.8 5,9.2 5.8,12 0.9,2.7 3.5,11 5.8,18.3 l 4.2,13.3 -1.7,12.7 c -1,7 -2.4,16.3 -3.2,20.7 -1.6,8.8 -8.4,50.2 -9.1,55 -0.2,1.6 -1.3,8.5 -2.5,15.3 -2.5,15 -2.1,21.2 1.8,28.9 7,13.8 20.8,16.2 33.2,5.9 4.7,-4 6.8,-9.9 9.2,-25.6 1.2,-8 2.8,-17.8 3.6,-21.9 0.8,-4 1.4,-8.7 1.4,-10.5 0,-1.7 0.8,-6.3 1.6,-10.1 0.9,-3.9 1.8,-8.3 1.9,-10 1.2,-11.2 4.5,-29.4 7.1,-39 1.6,-6.1 3.7,-8.2 12.9,-12.8 9.2,-4.6 17.2,-11.3 21.5,-18.2 1.9,-3 4.5,-7 5.7,-8.8 5.8,-8.4 8.3,-13.7 9.9,-20.6 2.1,-9.9 3.3,-11.9 9.6,-17.5 8.1,-7.2 10.8,-11.3 10.8,-16.1 0,-8.7 -5.2,-10.8 -13.1,-5.3 z"
         id="path156"
         style="fill:#000000;stroke:none;stroke-width:0.1;fill-opacity:0.84705883"
         inkscape:connector-curvature="0" />
    </g>
    <g
       id="g4311"
       style="fill:#000000;fill-opacity:0.84705883">
      <title
         id="title1059">5.3.0</title>
      <desc
         id="desc4313">h1o46</desc>
      <path
         d="m 1633.3,1096.9 c -7.1,1.2 -19.2,10.8 -24.8,19.6 -4.2,6.5 -9.1,18.9 -10.5,26.2 -1.9,10.9 -0.3,24.3 5.1,41.9 0.7,2.3 0.9,4.9 0.6,5.8 -0.8,1.9 -10.1,6.6 -13.2,6.6 -3.2,0 -24.4,11.1 -35.6,18.7 -15.3,10.2 -35.5,30.7 -46.1,46.8 -4.8,7.3 -7.1,6.9 -10.7,-1.5 -2.5,-6 -2.9,-6.5 -5.7,-6.4 -1.7,0.1 -5.5,0.9 -8.5,1.8 -5.1,1.4 -5.7,1.9 -7.7,6.3 -12.2,27.2 -13.2,78.9 -2,103.6 3.6,7.7 7.2,11.3 12.5,12.3 5,0.9 8,-0.9 12.6,-7.9 2.4,-3.6 4.5,-5.7 5.8,-5.7 1.2,0 3.4,2.4 6.4,6.9 8.8,13.3 25.5,30.5 38.5,39.6 3,2.1 6,4.3 6.5,4.9 0.6,0.6 4.8,3.3 9.4,6 13.4,7.7 28.5,13.6 46.1,18.1 13.7,3.5 14.4,4.5 13.8,19.2 -0.6,15.2 -0.5,15.1 -19.1,22.8 -18.9,7.8 -25.5,11.8 -36.9,21.9 -13.2,11.8 -21.3,22.7 -30,40.6 -9.5,19.7 -12.7,51.7 -7.4,74.1 7.2,30.7 22.1,53 47.2,70.7 14.5,10.4 25.8,15.1 46.9,19.8 9.5,2.1 12.6,2.4 23,1.9 19.1,-0.9 26.9,-2.3 40.3,-7.2 9.4,-3.5 15,-6.4 24,-12.4 21.1,-14.1 31.6,-26.6 42.3,-50.4 7.3,-16.2 9.8,-28.4 9.9,-47.8 0.1,-13.4 -1.8,-24.8 -6.5,-39.2 -4.3,-13.2 -8.6,-21.5 -17,-32.7 -12.6,-16.7 -31.9,-31.4 -50.5,-38.2 -5.8,-2.1 -11.8,-4.3 -13.3,-4.8 -1.5,-0.6 -3.9,-1.9 -5.2,-3 -2.4,-1.9 -2.5,-2.3 -2.5,-15.8 0,-13.6 0,-13.9 2.5,-15.8 1.4,-1.1 4.5,-2.3 6.8,-2.7 20,-3.1 50.2,-17 69.2,-31.9 13.1,-10.3 30.4,-28.7 33.9,-36 0.8,-1.7 2.8,-4.4 4.4,-5.9 3.6,-3.5 6.4,-3 8.2,1.2 1.6,4 6,8 10,9.1 7.2,2.1 14.6,-4.6 18.3,-16.5 4.8,-15.3 5.2,-18.4 5.1,-40 0,-22 -1.8,-35.6 -6.4,-49.5 -1,-3 -2.1,-6.9 -2.5,-8.7 -0.3,-1.7 -1.2,-3.6 -1.8,-4.1 -1.1,-0.8 -15.3,-4.2 -17.6,-4.2 -0.5,0 -1.7,2.1 -2.7,4.7 -1.8,5.1 -4.1,8.3 -5.7,8.3 -1.1,0 -1.4,-0.3 -11,-13.5 -3.9,-5.5 -12.1,-14.8 -18.2,-20.7 -17,-16.6 -36.6,-29.1 -58.9,-37.4 -5,-1.8 -9.9,-4.2 -11,-5.3 l -2,-2.1 3.4,-10.2 c 3.1,-9.6 3.4,-11.2 3.4,-23.8 0.1,-12.8 -0.1,-14 -3.2,-23.3 -4.7,-13.7 -12.8,-24 -25.5,-32.5 -3.5,-2.3 -4.7,-2.5 -18,-2.8 -7.8,-0.1 -16.1,0.1 -18.4,0.5 z m -45.9,137.3 c 0.9,1.2 1.6,4.1 1.6,6.5 0,6.7 1.5,8.8 8.4,11.7 7.9,3.4 9.8,3.3 18,-0.8 7.6,-3.9 10,-3.7 12.3,0.8 2.7,5 2,11.6 -2,20 -2.7,5.8 -4.5,8 -8,10.5 -2.5,1.7 -4.8,3.1 -5.1,3.1 -0.4,0 -2.7,1 -5.2,2.1 -6.5,3.1 -17.3,2.4 -24,-1.7 -6.2,-3.7 -11.9,-9.4 -14.4,-14.5 -4.2,-8.2 -2.9,-23.4 2.5,-29.3 1.1,-1.2 3.5,-4.1 5.3,-6.4 3.9,-4.9 8,-5.7 10.6,-2 z m 131.4,3.5 c 5.1,5.4 9.2,15.2 9.2,21.9 0,6 -2.9,12.9 -8.2,19.5 -3.1,3.8 -6.1,5.4 -16.8,8.7 -6.4,2 -6.6,2 -13.8,0.2 -4,-1 -8,-2.4 -8.8,-3.1 -2.6,-2.2 -10.6,-14.3 -12,-18.3 -2.9,-8 -0.8,-20.6 3.4,-20.6 1,0 3,1.3 4.5,2.9 3.1,3.5 12.4,6.5 18.2,5.8 4.3,-0.4 12.8,-5.6 14.5,-8.7 0.6,-1 1,-3.1 1,-4.7 0,-3.1 2.4,-7.3 4.2,-7.3 0.6,0 2.6,1.7 4.6,3.7 z"
         id="path124"
         style="fill:#000000;stroke:none;stroke-width:0.1;fill-opacity:0.84705883"
         inkscape:connector-curvature="0" />
      <path
         d="m 1475,1493 c -6.3,1 -17.8,2.8 -25.5,4 -7.7,1.1 -18,2.7 -23,3.5 -4.9,0.8 -14.2,2.2 -20.5,3 -22.8,3.2 -31.6,4.5 -37.5,5.5 -3.3,0.5 -13.2,1.9 -22,3 -8.8,1.2 -19.7,2.7 -24.1,3.5 -4.5,0.8 -10.3,1.7 -13,2 -4.9,0.6 -10.8,1.5 -35.9,5.4 -7.1,1.1 -18.4,2.7 -25,3.6 -14,1.9 -20.8,3.9 -25.1,7.2 -13.4,10.1 -12.9,31.2 1,41.8 6.4,4.9 12.2,5.1 39.1,1.1 5.5,-0.8 16.5,-2.4 24.5,-3.5 8,-1.1 17.4,-2.5 21,-3.1 3.6,-0.6 11.9,-1.7 18.5,-2.5 6.6,-0.9 14,-1.9 16.5,-2.5 4.4,-0.9 34.6,-5.5 56,-8.5 5.8,-0.8 13.7,-2 17.5,-2.5 3.9,-0.5 9.5,-1.4 12.5,-2 3,-0.5 8.9,-1.4 13,-2 8.1,-1 17.9,-2.3 33.5,-4.5 20.7,-2.9 26.1,-3.7 28.4,-4.1 3.8,-0.8 12.8,-10.5 14.2,-15.5 3.9,-13.9 -1.2,-26.3 -13.6,-32.8 -5,-2.6 -14.1,-2.7 -30.5,-0.1 z"
         id="path184"
         style="fill:#000000;stroke:none;stroke-width:0.1;fill-opacity:0.84705883"
         inkscape:connector-curvature="0" />
      <path
         d="m 1796.3,1492 c -9.9,2 -15.9,7.8 -18,17.7 -2.4,11.2 0,22 6.4,28.5 2,2 4.8,4.1 6.2,4.7 2.8,1.1 17,3.6 29.1,5.2 12.1,1.5 21,2.7 52.5,7.5 5.5,0.8 13.4,1.9 17.5,2.4 4.1,0.5 14.3,2 22.5,3.4 8.3,1.3 18.4,3 22.5,3.6 4.1,0.6 10.4,1.5 14,2.1 3.6,0.5 8.3,1.1 10.5,1.3 2.2,0.2 7.2,0.9 11,1.5 20.2,3.4 25.4,4.3 41,6.6 9.4,1.3 21.5,3.2 27,4.1 21.2,3.4 29,2.1 37.1,-6 6.1,-6 7.9,-11 7.1,-20.2 -0.6,-8 -2.9,-12.5 -8.8,-17.5 -6.2,-5.2 -9.6,-6.1 -39.9,-10.4 -13.5,-1.9 -26.5,-3.9 -29,-4.5 -4.5,-0.9 -6.1,-1.1 -21.5,-3.1 -4.4,-0.5 -11.6,-1.6 -16,-2.4 -4.4,-0.7 -12.7,-2.1 -18.5,-3 -13.2,-2 -28,-4.4 -34.5,-5.5 -2.7,-0.5 -9.7,-1.6 -15.5,-2.5 -12.2,-1.8 -29.9,-4.5 -52.5,-8.1 -21.6,-3.3 -43.6,-6.4 -44.9,-6.3 -0.6,0.1 -3,0.5 -5.3,0.9 z"
         id="path186"
         style="fill:#000000;stroke:none;stroke-width:0.1;fill-opacity:0.84705883"
         inkscape:connector-curvature="0" />
    </g>
    <g
       id="g4339"
       style="fill:#000000;fill-opacity:0.84705883">
      <title
         id="title1060">5.2.0</title>
      <desc
         id="desc4341">h1o36</desc>
      <path
         d="m 1215.5,1284.2 c -2.4,2.9 -2.7,3.8 -2.2,8.4 0.3,2.9 1.9,8.3 3.6,12.2 1.7,3.9 3.1,8.3 3.1,9.9 0,1.5 0.9,5.7 2,9.2 1.6,5.5 1.8,7.5 1,13.2 -1.6,11 0.3,20.4 6.2,30.9 7.2,12.8 7.8,14.3 7.8,19.5 0,5.1 -7.8,30 -24.7,78.5 -4.8,13.9 -5.7,17.6 -5.7,23.5 -0.1,5.9 0.4,7.6 2.5,11 4.7,7.2 6.2,8 14.8,7.9 4.2,0 9.3,-0.6 11.4,-1.3 4.6,-1.6 10.2,-6.3 12.3,-10.3 0.8,-1.6 6.4,-17.6 12.4,-35.6 16.7,-50.5 21.5,-64 23.6,-66.3 1,-1.1 4.8,-4 8.4,-6.4 12.1,-8.1 21.7,-18.4 24.9,-26.8 1.7,-4.5 7.9,-13.2 15.3,-21.7 4.1,-4.7 8,-9.5 8.6,-10.7 2.7,-5 0.3,-13.3 -3.8,-13.3 -1,0 -6.2,1.8 -11.6,4 -14.8,6 -22.1,7.2 -36.2,6.1 -21.6,-1.9 -32.3,-8 -53.9,-30.6 -7.6,-8 -14.5,-14.5 -15.4,-14.5 -1,0 -2.9,1.4 -4.4,3.2 z"
         id="path150"
         style="fill:#000000;stroke:none;stroke-width:0.1;fill-opacity:0.84705883"
         inkscape:connector-curvature="0" />
      <path
         d="m 2410,1303.8 c -2.5,1.5 -8.2,5.4 -12.5,8.8 -18.9,14.3 -27.9,19.3 -40.5,21.9 -8.8,1.9 -14.5,1.9 -23.6,0.1 -10.7,-2 -17.8,-6.4 -31.3,-19.1 -6.5,-6.2 -12.8,-11.6 -13.9,-11.9 -4,-1.3 -9.9,4 -10.9,9.7 -0.4,2.8 0.3,5.4 3.5,12.4 5.9,12.9 6,13.4 2.2,33.3 -0.6,2.8 -0.5,9 0.2,16.2 l 1.1,11.7 -2.8,4.3 c -1.6,2.4 -8.3,11.3 -15,19.8 -6.6,8.5 -15.2,19.5 -19,24.5 -3.8,4.9 -7.2,9.2 -7.5,9.5 -0.4,0.3 -4.7,5.7 -9.6,12 -14.4,18.7 -21.3,27.4 -31.4,39.8 -20.6,25.2 -36.7,46.7 -38.1,50.9 -1.8,5.4 -0.6,10.6 4,17 7.1,10 14.8,13.6 24.5,11.4 4.6,-1 5.9,-2 12.7,-9.4 4.2,-4.5 8.4,-9.7 9.3,-11.5 0.9,-1.7 6.5,-9.3 12.4,-16.9 5.9,-7.5 13.4,-17.1 16.7,-21.3 3.3,-4.3 7.8,-10 10,-12.8 2.2,-2.7 6.5,-8.3 9.5,-12.3 3,-4 7.5,-9.6 10,-12.4 2.5,-2.9 6.7,-8.3 9.5,-12.1 4.6,-6.4 16.1,-21.1 27,-34.4 2.5,-3 6.2,-7.8 8.2,-10.6 2.1,-2.8 7.3,-9.3 11.6,-14.3 8.7,-10.2 13.4,-13.2 29.1,-18.3 20.4,-6.6 33.1,-15.9 39.3,-29 1.8,-3.7 5,-8.4 7.2,-10.5 5,-5 6.5,-7.5 9,-15.3 1.2,-3.5 4.4,-9.9 7.1,-14 3,-4.5 5,-8.7 5,-10.4 0,-4.7 -3.5,-9.5 -7,-9.6 -0.8,0 -3.5,1.3 -6,2.8 z"
         id="path160"
         style="fill:#000000;stroke:none;stroke-width:0.1;fill-opacity:0.84705883"
         inkscape:connector-curvature="0" />
      <path
         d="m 1325.5,1630.4 c -2.7,0.7 -7.6,2.8 -10.7,4.5 -12.9,7.2 -21.5,25.5 -20.6,43.5 0.4,7.3 -2.9,5.1 41.3,27.6 7.7,4 18.3,9.6 23.5,12.5 5.2,2.8 15.6,8.3 23,12 7.4,3.8 18.2,9.2 24,12.1 5.8,3 11.8,5.4 13.3,5.4 7.7,0 19.3,-9.1 23.8,-18.8 14.2,-30.7 18.5,-37.4 26.3,-41.4 3.4,-1.8 6.6,-2.2 19.6,-2.8 16.9,-0.7 19.1,-1.3 24.9,-7.2 4.4,-4.3 6.1,-8.6 6.1,-14.8 0,-6.8 -1.8,-10.7 -7.2,-15.6 -3.3,-3 -5.9,-4.5 -9.7,-5.3 -6.3,-1.3 -41.3,-1.4 -48.4,-0.1 -9.8,1.9 -16.3,9.5 -28.3,33.2 -4.2,8.3 -9.3,16.9 -11.5,19.3 -11.1,12.1 -23.6,6.6 -35.6,-15.6 -3.3,-6.3 -7.7,-15.4 -9.7,-20.2 -4.7,-11.3 -7.2,-15.3 -13.4,-20.9 -7.6,-6.8 -20.9,-10 -30.7,-7.4 z"
         id="path202"
         style="fill:#000000;stroke:none;stroke-width:0.1;fill-opacity:0.84705883"
         inkscape:connector-curvature="0" />
    </g>
    <g
       id="g4398"
       style="fill:#000000;fill-opacity:0.84705883">
      <title
         id="title1061">5.0.1</title>
      <desc
         id="desc4400">h2o16</desc>
      <path
         d="m 2069.2,1290.2 c -3.7,4 -9.2,9.9 -12.2,13.1 -10.7,11.5 -25.5,20.7 -37.5,23.2 -9,1.9 -27.4,1.9 -34.6,0.1 -3,-0.8 -9.2,-3.1 -13.6,-5 -9,-4 -12.4,-4.4 -14.4,-2 -1.8,2.2 -1.5,9.4 0.5,13 0.8,1.6 5.1,7.1 9.5,12.3 4.5,5.3 10.1,13.3 12.7,18.3 6.3,11.8 15,21.2 25.5,27.4 7,4.1 8.4,5.3 10.1,9.3 1.9,4.6 7.7,21.8 24.2,72.1 4.9,14.9 9.9,28.2 11.3,30.3 4.3,6.2 9.9,8.9 20.1,9.4 8.5,0.5 8.8,0.4 12.9,-2.5 3.1,-2.3 4.6,-4.5 6.2,-8.7 1.2,-3.1 2.1,-6.9 2.1,-8.5 0,-1.6 -5.4,-19 -12.1,-38.7 -6.6,-19.7 -13.9,-41.9 -16.1,-49.3 -3.7,-12.6 -3.9,-13.9 -2.8,-18.6 0.6,-2.8 2.4,-7.2 4,-9.8 7.5,-11.8 10.4,-21.5 10.5,-35.1 0.1,-6.1 0.6,-12.1 1.2,-13.5 0.6,-1.4 1.4,-5.6 1.8,-9.4 0.4,-3.9 1.8,-9.4 3,-12.3 2.7,-6 4,-13.1 3.1,-16.8 -0.6,-2.2 -5,-5.5 -7.5,-5.5 -0.6,0 -4.1,3.3 -7.9,7.2 z"
         id="path152"
         style="fill:#000000;stroke:none;stroke-width:0.1;fill-opacity:0.84705883"
         inkscape:connector-curvature="0" />
      <path
         d="m 879.1,1300.8 c -1.7,2.7 -3.1,5.4 -3.1,6.1 0,0.7 1.2,3.2 2.8,5.5 3.2,4.8 7.2,12.8 10.2,20.6 1.3,3.2 4.2,7.6 7,10.5 2.6,2.7 5.9,7.6 7.3,10.8 6.3,14.1 19.7,24 42.1,31.2 14.8,4.7 17.5,6.5 25.9,17.1 13.7,17.4 26.6,33.9 31.2,39.9 2.5,3.3 7.2,9.4 10.5,13.5 8.6,10.7 29,37.5 32.4,42.4 1.6,2.2 4.5,6 6.5,8.2 4.3,4.9 7,8.3 17.8,22.6 14.8,19.3 28.3,36 30.5,37.8 9,6.9 19,6.7 27.6,-0.5 5.4,-4.5 7.5,-9.7 7,-17.4 -0.3,-5.8 -0.9,-7.4 -4.8,-13.1 -2.4,-3.6 -5.8,-8.3 -7.7,-10.5 -1.8,-2.2 -7.6,-9.6 -13,-16.5 -5.4,-6.9 -11,-14.1 -12.6,-16 -1.5,-1.9 -4.5,-6 -6.7,-9 -2.2,-3 -6,-8 -8.4,-11 -2.5,-3 -7.8,-9.8 -11.8,-15 -4,-5.2 -9.7,-12.7 -12.8,-16.5 -6.7,-8.6 -9.1,-11.7 -13.1,-17.5 -1.8,-2.5 -3.7,-5 -4.3,-5.5 -0.7,-0.6 -3.1,-3.5 -5.4,-6.5 -2.3,-3 -7.8,-10.2 -12.2,-16 -8.2,-10.8 -9.8,-14.4 -8.6,-20.3 1.6,-7.4 1.7,-17.7 0.5,-24.8 -0.8,-4.1 -1.4,-10.8 -1.4,-14.9 0.1,-6.6 0.5,-8.3 3.8,-14.8 2,-4 3.7,-8.3 3.7,-9.5 0,-2.7 -7.7,-10.7 -10.3,-10.7 -0.9,0 -7,5.1 -13.4,11.3 -12.9,12.3 -18.7,15.7 -31.2,18.3 -8.8,1.9 -14.9,1.7 -25.1,-0.5 -11.4,-2.6 -21.6,-8.2 -35.3,-19.5 -3.7,-3 -8.1,-6.3 -9.7,-7.3 -1.7,-0.9 -3,-2 -3,-2.4 0,-1.1 -6.5,-4.9 -8.3,-4.9 -0.8,0 -2.9,2.2 -4.6,4.8 z"
         id="path158"
         style="fill:#000000;stroke:none;stroke-width:0.1;fill-opacity:0.84705883"
         inkscape:connector-curvature="0" />
      <path
         d="m 1951.9,1633.8 c -12.2,4.1 -19.3,12 -27.4,30.7 -8.5,19.8 -16,32 -21.8,35.5 -3.5,2.2 -10,2.6 -14.2,1 -3.6,-1.4 -12.5,-10.7 -14.2,-15 -3.9,-9.3 -11,-23.1 -14.8,-29 -8.7,-13.2 -13.6,-14.7 -47.7,-15.1 -16,-0.2 -17.7,0 -22.5,2.1 -5.7,2.4 -12.8,9.4 -13.9,13.5 -0.3,1.4 -0.3,5.5 0.1,9.1 0.8,7.8 4.6,13.5 11.5,17.4 4.1,2.2 6,2.5 19.5,3 16.1,0.6 19.4,1.5 25.3,6.5 4.3,3.6 10.5,14.3 15.7,27 2.4,5.8 5.5,12.5 6.9,15 2.9,4.9 11,11.9 16.4,14.2 3.3,1.3 3.6,1.2 17,-5.8 7.5,-4 17.3,-8.9 21.7,-11.1 4.4,-2.1 9.8,-4.8 12,-6 2.2,-1.2 8,-4.1 12.8,-6.5 4.8,-2.4 14.3,-7.3 21,-11 6.7,-3.6 19.6,-10.4 28.6,-15 9.1,-4.6 17.1,-8.9 17.9,-9.5 2.6,-2.2 -0.1,-20.6 -4.6,-30.8 -3,-6.8 -13.6,-17.1 -19.9,-19.3 -7.7,-2.8 -18.6,-3.1 -25.4,-0.9 z"
         id="path204"
         style="fill:#000000;stroke:none;stroke-width:0.1;fill-opacity:0.84705883"
         inkscape:connector-curvature="0" />
    </g>
    <g
       id="g4423"
       style="fill:#000000;fill-opacity:0.84705883">
      <title
         id="title1062">5.1.1</title>
      <desc
         id="desc4425">h2o26</desc>
      <path
         d="m 768.7,1254 c -6.9,3.4 -19.7,13.3 -20.3,15.7 -0.9,3.6 -0.2,5.5 13.7,33.9 23.2,47.8 34.2,69.3 36.9,72.6 2.5,3 2.9,3.2 5.5,2 4.2,-1.9 14.5,-11.3 14.5,-13.2 0,-2.4 -8.9,-26.6 -15.3,-41.7 -1.4,-3.2 -3.9,-9.6 -5.7,-14.3 -3.6,-9.9 -4.7,-12.5 -9.4,-24 -1.9,-4.7 -4.6,-11.4 -6,-15 -6.8,-17.7 -7.9,-18.9 -13.9,-16 z"
         id="path146"
         style="fill:#000000;stroke:none;stroke-width:0.1;fill-opacity:0.84705883"
         inkscape:connector-curvature="0" />
      <path
         d="m 736.4,1336.6 c -6.7,4 -11.1,7.9 -12,10.6 -0.6,2.1 2.9,11.3 8.5,21.8 5.1,9.5 5.3,13 0.9,16.3 -7.2,5.3 -8.3,4.6 -15.4,-9.9 -6.3,-13 -9.9,-17.7 -12.8,-16.8 -4.2,1.4 -18.6,12.2 -18.6,14.1 0,0.7 0.8,2.6 10.5,22.8 9.7,20.2 16.2,33.3 23.1,47 3.3,6.6 7.6,15.1 9.5,19 1.9,3.8 4,7 4.7,7 2.4,0 21.2,-14 21.2,-15.8 0,-0.9 -2.6,-7 -5.8,-13.5 -3.3,-6.4 -7,-14.3 -8.3,-17.5 l -2.4,-5.9 3.8,-3.5 c 5,-4.6 8.1,-4.2 11.1,1.2 1.3,2.2 5.2,9.6 8.7,16.4 3.5,6.8 6.9,12.6 7.7,12.8 1.7,0.7 21.2,-12.3 21.2,-14.2 0,-1.9 -5.8,-15.2 -8.2,-18.7 -1,-1.4 -1.8,-3 -1.8,-3.5 -0.1,-1.9 -35.2,-70.9 -36.7,-72.1 -2.3,-1.6 -2.1,-1.7 -8.9,2.4 z"
         id="path168"
         style="fill:#000000;stroke:none;stroke-width:0.1;fill-opacity:0.84705883"
         inkscape:connector-curvature="0" />
      <path
         d="m 815.1,1385 c -4.2,3 -7.1,5.8 -7.1,6.8 0,1 0.8,3.4 1.9,5.4 1,2 2.8,6.1 4.1,9.2 3.2,8 4,8.4 9.7,4.5 7.4,-5.1 9.3,-7.1 9.3,-9.4 0,-2.3 -8.2,-19.9 -9.8,-20.9 -0.5,-0.3 -4.2,1.7 -8.1,4.4 z"
         id="path170"
         style="fill:#000000;stroke:none;stroke-width:0.1;fill-opacity:0.84705883"
         inkscape:connector-curvature="0" />
      <path
         d="m 665,1388.9 c -4.9,1.5 -14.6,7 -18.7,10.5 -6.2,5.4 -11.3,16.1 -11.3,23.9 0,18.8 10.6,28.8 36,34.1 10.6,2.3 13.7,5.9 11,13 -1.2,3.2 -5.1,5.2 -11.5,6.1 -9.3,1.2 -9.5,1.3 -9.5,4.7 0,1.7 0.6,5.4 1.4,8.2 0.8,2.8 2.1,7.3 2.8,10.1 l 1.4,5 7,-0.1 c 6.6,0 14,-2.1 21.5,-5.9 3.4,-1.8 9.8,-10.9 14.6,-21 6.4,-13.5 4.7,-24.8 -5.4,-35.7 -6.1,-6.5 -12.2,-9.2 -26.3,-11.8 -11.9,-2.1 -14.4,-3 -16,-6 -2.9,-5.5 0.7,-10.1 10.5,-13.4 l 7,-2.3 -0.2,-5.4 c -0.3,-5.5 -1.8,-11.5 -3.6,-13.7 -1,-1.3 -6.7,-1.5 -10.7,-0.3 z"
         id="path172"
         style="fill:#000000;stroke:none;stroke-width:0.1;fill-opacity:0.84705883"
         inkscape:connector-curvature="0" />
      <path
         d="m 602,1429.6 c -7.8,5.2 -11,8.4 -11,11.1 0,1.2 2.1,6.7 4.6,12 9.2,19.6 12.3,26.1 19.3,40.4 3.9,8.1 7.1,15.8 7.1,17.2 0,3.9 -3.1,7 -6.9,6.9 -4.8,-0.1 -6.8,-2.5 -12.8,-15.2 -2.9,-6.3 -6.2,-13.1 -7.2,-15 -1.1,-1.9 -4.6,-8.7 -7.9,-15 -3.3,-6.3 -7.1,-13.5 -8.4,-16 -3.3,-6.4 -5.3,-6.3 -14.9,0.2 -10.5,7 -11,8.6 -5.9,19.3 1.6,3.3 4.3,9.1 6,13 4.2,9.1 15.2,31.2 19.8,39.5 6.4,11.7 13.9,17 26.8,19 5.6,0.9 7.7,0.8 11.1,-0.4 9.3,-3.3 22.8,-14.8 25.8,-22.1 2.3,-5.5 3.3,-17.1 2,-22.9 -0.7,-2.8 -6.7,-15.8 -13.4,-28.9 -6.7,-13.1 -12.5,-24.6 -13,-25.5 -0.5,-0.9 -2.3,-4.6 -4.1,-8.2 -7.3,-14.8 -8.1,-15.3 -17,-9.4 z"
         id="path176"
         style="fill:#000000;stroke:none;stroke-width:0.1;fill-opacity:0.84705883"
         inkscape:connector-curvature="0" />
      <path
         d="m 521.7,1488 c -5.6,1.5 -11.1,4.5 -23.2,13 -13.7,9.7 -14.9,11 -14.2,15 1.3,6.4 44.8,93.3 46.9,93.8 0.8,0.1 6,-2.8 11.7,-6.5 12,-7.9 11.7,-6.7 4.8,-21.5 -5.8,-12.5 -7.1,-15.7 -6.3,-16.5 0.3,-0.4 1.9,0.5 3.4,1.8 1.5,1.4 4.5,3.8 6.7,5.4 2.2,1.6 6.6,5.3 9.8,8.3 4.7,4.3 6.1,5.1 7.6,4.3 3.6,-2 15.6,-10.3 18.5,-12.8 l 2.9,-2.6 -10.3,-9.5 c -5.6,-5.3 -12,-10.9 -14.1,-12.4 -5.1,-3.7 -10.8,-9.9 -10.9,-11.8 0,-0.8 0.9,-4.3 2,-7.8 2.4,-7.7 2.7,-12.8 1,-20.7 -1.1,-5.2 -1.9,-6.6 -7.1,-11.7 -3.6,-3.5 -7.3,-6.1 -9.6,-6.8 -5.6,-1.6 -15.3,-2.1 -19.6,-1 z m 10.1,26 c 4.2,2.6 4.3,6.4 0.3,13.4 -3.6,6.1 -6.5,8.3 -8.7,6.5 -2.1,-1.7 -6.4,-11.2 -6.4,-14 0,-2.9 0.7,-4 4,-6.2 3.2,-2.2 6.8,-2.1 10.8,0.3 z"
         id="path182"
         style="fill:#000000;stroke:none;stroke-width:0.1;fill-opacity:0.84705883"
         inkscape:connector-curvature="0" />
      <path
         d="m 458.5,1529.7 c -2.2,0.9 -6.3,3.3 -9.1,5.3 -8.7,6.5 -15.4,22.7 -15.4,37.5 0,15.6 9.5,39.5 20.1,50.9 8.3,8.9 14.7,12.4 25,13.8 4.7,0.6 10.1,0.8 12,0.4 4.3,-0.8 19.5,-11.6 21,-14.9 1.9,-4.1 -9.3,-24.7 -13.4,-24.7 -0.7,0 -3.2,1.4 -5.6,3 -12.2,8.3 -26,-0.9 -29.9,-19.9 -2.5,-12.5 0.6,-22.4 8.8,-27.6 2.5,-1.6 4,-3.3 4,-4.5 0,-3 -8.6,-19.6 -10.5,-20.4 -2.2,-0.8 -2.3,-0.8 -7,1.1 z"
         id="path188"
         style="fill:#000000;stroke:none;stroke-width:0.1;fill-opacity:0.84705883"
         inkscape:connector-curvature="0" />
      <path
         d="m 846.3,1582.9 c -18.3,5.3 -36,21 -42.2,37.6 -5.4,14.5 -6.1,29.6 -2,43.1 1.8,6 6.2,14.9 7.8,15.9 0.5,0.2 2.7,-0.3 5.1,-1.2 4,-1.6 4.5,-1.6 9.1,0 6.7,2.4 8.1,1.5 10.8,-7.8 2.8,-9.4 4,-10.1 11.6,-7.4 3.2,1.1 6.9,1.8 8.2,1.4 2.2,-0.5 2.3,-0.8 2.3,-11.8 0,-6.3 -0.5,-16.1 -1.1,-22 -1.1,-11.1 -0.4,-14.7 2.7,-14.7 0.9,0 4.4,1.3 7.8,2.8 21.9,10.2 26,11.5 29.2,9.4 1,-0.6 4.2,-6.4 13.1,-23.2 1.9,-3.7 1.7,-4.5 -2.4,-8 -7.7,-6.8 -19.3,-12.7 -29.3,-14.9 -7.2,-1.7 -23.7,-1.2 -30.7,0.8 z"
         id="path196"
         style="fill:#000000;stroke:none;stroke-width:0.1;fill-opacity:0.84705883"
         inkscape:connector-curvature="0" />
      <path
         d="m 1013.6,1704.7 c -0.3,2.1 -0.8,12.8 -1.1,23.7 -0.5,18.6 -1.2,22.6 -3.5,22.6 -0.4,0 -3,-2.1 -5.7,-4.8 -10,-9.6 -28.9,-27.1 -33.1,-30.6 -8.6,-7.1 -10.3,-3.9 -5.3,9.9 6.1,16.9 10.3,28.1 11.6,31 0.8,1.6 3.3,8.2 5.6,14.5 2.3,6.3 4.7,13.1 5.5,15 2.8,7.4 1.4,9.1 -11.9,14.5 -15.7,6.3 -17.7,7.4 -17.6,9.3 0,0.9 6.8,8 15.1,15.7 8.2,7.7 15.5,15 16.1,16.2 0.8,1.9 0.4,3.5 -2.8,9.5 -13.1,24.9 -13.7,26.8 -8.7,26.8 1.5,0 10.2,-2.4 19.3,-5.4 28.5,-9.3 33,-10.6 35.4,-10.6 2.8,0 9.6,7.5 20.8,23 16.3,22.3 20.4,27.2 23.1,26.8 1.7,-0.2 2.7,-2 4.9,-8.7 1.5,-4.7 3.4,-9.2 4.3,-10.2 1.7,-1.8 5.1,-1.4 11.4,1.4 12,5.4 26.1,10.7 28.4,10.7 5,0 2.9,-5.1 -10.4,-25.5 -2.1,-3.3 -3.9,-7.1 -3.9,-8.5 -0.1,-4.3 1.9,-5.1 30.4,-12 7.2,-1.7 14.4,-3.6 16.2,-4.1 3.6,-1.2 5.1,-4.2 3.1,-6.6 -1.3,-1.6 -17.3,-12.3 -18.4,-12.3 -0.9,0 -13.8,-8.5 -15.6,-10.3 -3.3,-3.3 -1.7,-5 31.4,-33.7 12,-10.5 17.8,-16.3 17.8,-17.9 0,-0.9 -15.8,-0.4 -29.7,1 -5.5,0.5 -13.6,1.2 -18,1.5 -4.3,0.2 -12.7,0.9 -18.8,1.4 -18.2,1.6 -22.5,1.4 -26.7,-1.5 -2.1,-1.4 -5.2,-4.6 -6.9,-7.3 -1.8,-2.6 -5.3,-6.7 -7.8,-9.2 -2.5,-2.5 -9.3,-10.4 -15.1,-17.5 -5.8,-7.1 -12.5,-15.2 -15,-18.1 -2.5,-2.8 -8.1,-9.2 -12.5,-14.2 -4.3,-5.1 -8.7,-9.2 -9.6,-9.2 -1.2,0 -1.9,1.1 -2.3,3.7 z m 25.6,52.5 c 1.8,2.3 6.3,7.1 10.1,10.6 3.7,3.6 7.7,8.1 8.9,10.1 4.4,7.2 13.9,18.1 16.5,18.7 2.9,0.8 19.3,-0.2 28,-1.6 9,-1.5 16.8,-1.3 18.3,0.6 1.4,1.6 1.9,1.1 -19.7,21.2 -8.6,8 -8.6,9.8 0.5,15.6 3.8,2.4 8.4,5.2 10.3,6.1 1.9,1 4.2,2.4 5.1,3.2 2.6,2.3 0.6,5.1 -4,5.8 -10.8,1.7 -27.5,6.1 -29.9,7.8 -0.7,0.5 -1.3,3 -1.5,5.5 -0.3,4.5 -0.4,4.7 -4,5.3 -2,0.3 -4.8,1.3 -6.2,2.2 -1.4,0.9 -3.4,1.7 -4.5,1.7 -2.2,0 -5.8,-4.1 -6.7,-7.5 -0.3,-1.2 -1.9,-3.2 -3.5,-4.4 -1.5,-1.2 -4.4,-4.5 -6.2,-7.4 -7.1,-11 -11.4,-12.5 -23.9,-8.5 -6.3,2 -7.2,2.1 -9.6,0.8 -1.5,-0.9 -3.6,-3.4 -4.7,-5.6 -2.1,-4.3 -6.4,-9.9 -12.4,-16.1 -4.4,-4.4 -3.7,-5.6 5.5,-10.3 l 6.9,-3.6 0.3,-4.6 c 0.2,-3.2 -0.3,-5.9 -1.7,-8.7 -2.5,-4.7 -2.7,-8.9 -0.6,-9.7 0.8,-0.3 3.1,0.7 5.2,2.4 5.3,4.1 7.7,5.2 11.2,5.2 4.9,0 5.8,-3.1 6.5,-22 0.3,-9.1 0.5,-16.6 0.6,-16.8 0.1,-1.2 2.5,0.5 5.2,4 z"
         id="path212"
         style="fill:#000000;stroke:none;stroke-width:0.1;fill-opacity:0.84705883"
         inkscape:connector-curvature="0" />
      <path
         d="m 1232.5,1724.9 c -9.1,2.5 -12.5,4.1 -12.5,5.9 0,0.8 4.5,6 10,11.7 13.7,14.1 13.7,13.9 -1,28.8 -10.6,10.7 -12.9,14 -11.7,17.1 0.6,1.4 1.4,1.7 14.2,5.4 3.9,1.1 11.3,3.2 16.5,4.7 9,2.6 13,4.6 13,6.8 0,0.5 -1.6,3.6 -3.7,6.8 -4.3,7 -3.8,9.3 2.6,13 5.5,3.1 7.6,7.5 6,12.9 -1.1,3.7 -1,4.2 1.1,6.5 1.3,1.4 3.1,2.5 4.1,2.5 3.6,0 12.2,-5 18.7,-10.8 16.4,-14.5 24.5,-35.5 22.1,-56.9 -1,-8.7 -1.9,-11.5 -7.6,-22.8 -7,-13.7 -17.8,-23.2 -33.8,-29.6 -7,-2.8 -9.4,-3.2 -19.5,-3.6 -9.1,-0.2 -13,0.1 -18.5,1.6 z"
         id="path216"
         style="fill:#000000;stroke:none;stroke-width:0.1;fill-opacity:0.84705883"
         inkscape:connector-curvature="0" />
    </g>
    <g
       id="g4403"
       style="fill:#000000;fill-opacity:0.84705883">
      <title
         id="title1063">5.3.1</title>
      <desc
         id="desc4405">h2o46</desc>
      <path
         d="m 1702.5,1724.9 c -12.7,3.6 -17.9,9.8 -17.8,21 0.1,7.7 2.7,15.4 7.2,21.6 3.8,5.2 10.1,15.2 10.1,16 0,0.3 1.2,2.4 2.7,4.8 4.2,6.7 4.6,11.1 1.6,18.7 -3.3,8.4 -19,38.7 -21.8,42.2 -2.9,3.5 -5.7,15.7 -4.9,21.2 1,5.9 3.9,11.3 6.6,11.9 1.7,0.5 125.4,1 150.5,0.7 2.8,0 3.9,-0.9 8.3,-6.7 5.8,-7.7 8,-14 8,-23.2 -0.1,-11.8 -5.8,-23.3 -14.9,-30 -6.4,-4.8 -12.6,-6.4 -22.6,-5.9 -6.8,0.4 -9.4,1 -15.6,4 -4.1,1.9 -9.1,4.8 -11.1,6.4 -3.7,2.9 -21.7,15 -28.6,19.1 -5.5,3.4 -12.5,3.1 -15.9,-0.5 -2.3,-2.5 -2.5,-3.2 -1.9,-8.7 0.3,-3.3 1.3,-8 2.2,-10.5 0.9,-2.5 2,-7.7 2.5,-11.7 0.4,-3.9 2,-10.2 3.5,-13.9 2.3,-5.8 2.6,-7.7 2.2,-14.3 -0.5,-7.5 -1.5,-10.6 -6.1,-18.6 -1.3,-2.2 -4.9,-8.7 -8.2,-14.5 -12.4,-22.1 -17.3,-27.4 -28,-30.3 -1.1,-0.3 -4.7,0.2 -8,1.2 z"
         id="path218"
         style="fill:#000000;stroke:none;stroke-width:0.1;fill-opacity:0.84705883"
         inkscape:connector-curvature="0" />
    </g>
    <g
       id="g4409"
       style="fill:#000000;fill-opacity:0.84705883">
      <title
         id="title1064">5.1.0</title>
      <desc
         id="desc4411">h1o26</desc>
      <path
         d="m 1580.8,1726 c -5,1.5 -9,5.3 -14.4,13.5 -4.9,7.5 -6.9,11 -18,31 -2.3,4.1 -4.5,9 -4.8,10.9 -0.6,3.3 0.8,11.8 7.9,45.1 3.1,14.9 3.1,16.6 -0.1,20.4 -2.2,2.7 -3.2,3.1 -7.4,3.1 -4.2,0 -5.6,-0.6 -11,-4.8 -3.4,-2.6 -8.2,-5.8 -10.5,-7.2 -2.4,-1.4 -5.2,-3.3 -6.3,-4.3 -1.1,-1 -3.4,-2.6 -5,-3.5 -1.6,-0.9 -6.4,-3.9 -10.6,-6.6 -17.1,-10.8 -33.6,-10.3 -47,1.5 -9.5,8.4 -13.9,25 -9.9,36.9 2.6,7.6 10.7,19.8 13.5,20.5 1.3,0.3 35.2,0.4 75.4,0.3 71.6,-0.3 73.2,-0.3 75.4,-2.3 5.3,-4.8 6.6,-12.8 3.5,-22 -1.7,-5 -8.4,-19.3 -19.6,-41.9 -7.7,-15.4 -7.9,-19.2 -1.8,-30.5 2.3,-4.2 5,-8.5 6,-9.6 0.9,-1.1 3.4,-5.2 5.4,-9 2.1,-3.9 4.7,-8.8 5.9,-11 1.6,-3 2.1,-5.7 2,-10.5 -0.1,-9.5 -4.2,-16.6 -11.3,-19.6 -3.6,-1.5 -12.9,-1.7 -17.3,-0.4 z"
         id="path220"
         style="fill:#000000;stroke:none;stroke-width:0.1;fill-opacity:0.84705883"
         inkscape:connector-curvature="0">
        <desc
           id="desc4348">h1o36</desc>
      </path>
    </g>
    <g
       id="g4522"
       style="fill:#000000;fill-opacity:0.84705883">
      <title
         id="title1065">5.2.1</title>
      <desc
         id="desc4524">h2o36</desc>
      <path
         d="m 2784,1465.1 c -1.9,1.2 -7.2,4.8 -11.7,8.1 -7.9,5.7 -8.3,6.1 -8.3,9.8 0,2.9 2.4,8.7 9.4,22.7 5.1,10.3 16.1,32.5 24.5,49.3 8.3,16.8 15.7,31.3 16.5,32.2 2.3,3.1 6,2.1 14,-3.8 4.2,-3 7.6,-6.1 7.7,-6.7 0.4,-3.7 -1.1,-8.2 -8.9,-27.2 -4.7,-11.5 -10.2,-25.5 -12.2,-31 -2,-5.5 -5.1,-13.2 -6.8,-17 -1.6,-3.9 -4.6,-11.1 -6.6,-16.2 -6.6,-16.9 -9.6,-22.3 -12.4,-22.3 -0.9,0 -3.3,1 -5.2,2.1 z"
         id="path180"
         style="fill:#000000;stroke:none;stroke-width:0.1;fill-opacity:0.84705883"
         inkscape:connector-curvature="0" />
      <path
         d="m 2751,1548.7 c -2.9,2.1 -6.6,4.9 -8.2,6.3 -2.9,2.5 -2.9,2.7 -1.9,6.7 0.6,2.3 2.9,8 5.1,12.5 8.8,18.8 8.8,19 2.2,23.7 -3.2,2.3 -3.4,2.3 -5.4,0.5 -1.1,-1.1 -4,-5.8 -6.3,-10.6 -9.6,-19.4 -11.8,-20.7 -22.4,-13.6 -3.5,2.4 -7.3,5.5 -8.4,7 -1.8,2.5 -1.9,3.1 -0.8,6.9 0.7,2.2 7.8,17.4 15.7,33.7 22.8,46.6 27.8,56.3 29.5,57.2 1.2,0.7 3.7,-0.5 9.5,-4.5 4.4,-2.9 9.3,-6.9 11.1,-8.7 l 3.2,-3.3 -7.5,-15.5 c -8.7,-17.9 -9,-20.4 -3.2,-23.5 3.8,-2 3.8,-2 5.7,0 1,1.1 5.2,8.4 9.2,16.2 5.8,11.6 7.6,14.3 9.3,14.3 2.6,-0.1 22.6,-13.6 22.6,-15.4 0,-0.7 -3.4,-8 -7.7,-16.2 -4.2,-8.2 -8.1,-16 -8.7,-17.4 -0.6,-1.4 -6.4,-13.1 -13,-26 -6.5,-12.9 -12.5,-24.9 -13.4,-26.5 -4.2,-8.5 -8.3,-9.4 -16.2,-3.8 z"
         id="path192"
         style="fill:#000000;stroke:none;stroke-width:0.1;fill-opacity:0.84705883"
         inkscape:connector-curvature="0" />
      <path
         d="m 2417.5,1581.5 c -11.1,2.8 -18.7,6.5 -26.3,12.5 -3.7,2.9 -5.2,4.7 -5.2,6.5 0,3.3 3.7,13 5.5,14.5 0.8,0.7 1.9,2.9 2.5,4.9 0.5,2.1 2.7,5.6 4.8,7.9 5,5.4 7.8,5.4 19.1,0.1 8.2,-3.8 14.6,-5.8 20.1,-6.2 2.9,-0.2 2.8,-1 1.9,29.1 -0.5,17.1 -0.2,17.7 6.1,16.7 1.9,-0.2 5.3,-0.8 7.5,-1.1 5,-0.8 7.1,1.2 8.4,8 1.4,7.4 3.5,8.9 12.2,8.8 4,-0.1 8,-0.4 8.9,-0.7 2.3,-0.7 6,-6.5 9.3,-14.5 7,-17.2 6,-35.9 -3,-54 -4.9,-9.8 -17,-22 -26.6,-26.8 -13.4,-6.6 -32.4,-9 -45.2,-5.7 z"
         id="path194"
         style="fill:#000000;stroke:none;stroke-width:0.1;fill-opacity:0.84705883"
         inkscape:connector-curvature="0" />
      <path
         d="m 2830.7,1596.8 c -6.1,4.3 -6.7,5 -6.2,7.6 0.6,3.6 7.2,17.1 9,18.6 1.7,1.4 8.1,-1.5 14,-6.4 l 3.8,-3.3 -1.5,-3.9 c -0.9,-2.1 -3,-6.9 -4.7,-10.7 -3.8,-8.3 -5,-8.4 -14.4,-1.9 z"
         id="path198"
         style="fill:#000000;stroke:none;stroke-width:0.1;fill-opacity:0.84705883"
         inkscape:connector-curvature="0" />
      <path
         d="m 2679,1600.9 c -20.4,6.4 -33.3,29.8 -25.8,46.7 2.6,5.9 8.2,12.8 12.4,15.3 3.4,2 13.2,5.3 21.4,7.1 6.6,1.5 9.8,3.3 11,6.4 2.1,5.6 -2.8,10.3 -12.1,11.6 -7.8,1.1 -9.2,2.3 -8.4,6.9 0.9,5.5 4.7,18.5 5.8,19.8 2.2,3 13,1 24.1,-4.3 13.1,-6.3 21.5,-16.9 23.4,-29.7 2.9,-18.8 -10.2,-34.8 -31.8,-38.7 -12.2,-2.3 -17.4,-4.2 -18.8,-7.3 -0.7,-1.5 -1,-3.6 -0.7,-4.7 0.7,-2.3 6,-5.2 12.3,-6.9 6.6,-1.8 7.4,-5.4 3.5,-17.4 -2.2,-7.1 -5.7,-8.1 -16.3,-4.8 z"
         id="path200"
         style="fill:#000000;stroke:none;stroke-width:0.1;fill-opacity:0.84705883"
         inkscape:connector-curvature="0" />
      <path
         d="m 2622.3,1638.5 c -4.2,1.8 -14,9.2 -14.7,11.1 -1.5,3.8 0,7.4 18.5,44.9 6.5,13.2 12.1,25.2 12.4,26.6 0.5,2 0.1,3.2 -1.6,4.8 -3.1,2.9 -7,2.7 -10.1,-0.7 -2.3,-2.3 -24.8,-45.4 -24.8,-47.3 0,-1.8 -7.6,-13.2 -9.6,-14.6 -3.1,-2 -5.3,-1.1 -14.2,5.4 l -7.4,5.5 0.4,4.7 c 0.3,2.5 2.1,7.7 4,11.6 23.4,47.1 26.9,53.4 31.8,58.8 9.9,10.9 21.3,13.1 34.2,6.8 8.3,-4.1 17.7,-12.5 22.9,-20.5 4,-6.1 4,-6.2 3.7,-14.6 -0.3,-8 -0.6,-9.1 -6.1,-20.5 -5.6,-11.4 -16.7,-33.5 -20.1,-40 -0.9,-1.7 -1.6,-3.3 -1.6,-3.7 0,-1.2 -8.3,-15.3 -10.3,-17.6 -2.4,-2.5 -3.1,-2.6 -7.4,-0.7 z"
         id="path206"
         style="fill:#000000;stroke:none;stroke-width:0.1;fill-opacity:0.84705883"
         inkscape:connector-curvature="0" />
      <path
         d="m 2535.9,1699.8 c -8.8,3 -34.3,20.7 -35.3,24.7 -0.8,3.2 0.3,6.4 8.8,23.8 4.2,8.6 7.6,16.2 7.6,16.8 0,0.6 0.8,2.3 1.9,3.7 1,1.5 4.1,7.2 6.9,12.7 4.6,9.3 6.8,13.6 16.2,32 1.9,3.8 4.2,7.1 5.1,7.3 2.5,0.5 21.2,-11.9 23.1,-15.3 0.4,-0.7 -1.4,-5.5 -4.2,-11.1 -4.8,-9.5 -6,-13.4 -4.2,-13.4 0.5,0 3.8,2.8 7.4,6.3 7.8,7.6 12,9.9 15.7,8.5 4.8,-1.8 19.6,-13.3 19.9,-15.5 0.2,-1.5 -1.6,-3.7 -7,-8.4 -15.6,-13.7 -23.8,-22.2 -23.8,-24.7 0,-1.3 0.7,-5.2 1.6,-8.6 3,-11.6 0.2,-23.7 -7.4,-31.9 -6.9,-7.3 -21.5,-10.4 -32.3,-6.9 z m 10.5,30.3 c 2.2,1.7 2.6,2.8 2.4,5.7 -0.4,4.6 -2.9,6.2 -6.5,4.2 -3.3,-1.8 -4.9,-5.7 -3.9,-9.4 0.8,-3.3 4.2,-3.5 8,-0.5 z"
         id="path208"
         style="fill:#000000;stroke:none;stroke-width:0.1;fill-opacity:0.84705883"
         inkscape:connector-curvature="0" />
      <path
         d="m 2277.2,1700.5 c -1.9,1.4 -13.8,14.6 -18.6,20.6 -1,1.3 -4,4.7 -6.5,7.4 -2.5,2.8 -7.1,8.2 -10.1,12 -5.1,6.3 -13.6,16.5 -24.6,29.3 -7,8 -8,8.3 -23.1,7.2 -7,-0.6 -19.3,-1.5 -27.3,-2 -8,-0.6 -19.4,-1.5 -25.5,-2.1 -24.5,-2.1 -26.5,-2.2 -26.5,-1.1 0,1.1 4.2,5.2 16,15.7 3.6,3.2 10,9 14.2,12.9 4.2,3.9 11.5,10.5 16.2,14.6 12.1,10.7 11.7,12.5 -4.9,21.4 -11.7,6.3 -23.5,14.6 -23.5,16.6 0,1.7 5.1,4.4 10.9,5.6 13.1,2.8 38.7,9.6 39.8,10.6 0.7,0.6 1.3,1.9 1.3,3 0,2 -5.3,11.5 -9.6,17.3 -1.2,1.6 -3.4,5.4 -4.9,8.3 -2.1,4.2 -2.4,5.6 -1.5,6.8 1.9,2.2 7.6,1.7 14.4,-1.3 3.3,-1.4 9.5,-4.1 13.7,-6 8.1,-3.5 12,-4.1 13.7,-2.1 0.5,0.7 1.5,3.3 2.2,5.8 0.7,2.5 2.1,6.2 3.1,8.2 3.1,6.1 5.5,5.3 13.5,-4.8 3.8,-4.7 9.3,-11.5 12.1,-15 2.9,-3.6 6,-7.8 7,-9.4 0.9,-1.7 2.1,-3 2.5,-3 0.4,0 2.3,-2.4 4.2,-5.4 4.1,-6.4 6.5,-8 10.9,-7 1.8,0.3 13.3,4 25.6,8 22.2,7.3 27.3,8.4 28.7,6.3 0.3,-0.6 -2.6,-7.7 -6.6,-15.9 -5.5,-11.2 -7.1,-15.4 -6.6,-17.3 0.3,-1.5 7.6,-9.2 17.3,-18.6 13.8,-13.3 16.6,-16.5 15.7,-17.8 -0.5,-0.9 -5.7,-3.5 -11.4,-5.8 -15.8,-6.3 -20.9,-9.1 -21.6,-12 -0.4,-1.5 0.4,-5.3 1.9,-9.7 3.9,-11.1 12.3,-33.4 16.1,-42.3 6.4,-15.3 10.1,-27.4 8.9,-28.6 -2.4,-2.4 -6.8,0.7 -26,18.6 -10.9,10.1 -20.6,18.5 -21.5,18.5 -3,0 -3.6,-3.1 -3.7,-21.5 -0.2,-25.4 -1.1,-29.3 -5.9,-26 z m -14.2,58 c 0.9,1.1 1.2,5.3 1.1,14.8 -0.2,13 0.7,18.3 3.2,19.9 2.7,1.7 7.3,0.8 10.7,-2.2 4.1,-3.4 8,-4 8,-1.1 0,1 -0.7,3.5 -1.5,5.4 -1.8,4.4 -1.9,9.1 -0.2,10.5 0.6,0.5 3.9,1.9 7.3,3 8.9,2.9 12.4,4.9 12.4,7.2 0,1.2 -2.6,4 -6.7,7.3 -11.2,9 -12.7,11 -13.3,17.5 -0.5,5.7 -0.5,5.7 -3.7,5.6 -1.8,-0.1 -6,-1.6 -9.3,-3.3 -11,-5.8 -21.6,-3.8 -26,4.9 -2.2,4.4 -14.5,18.3 -16.5,18.8 -2.5,0.6 -10.5,-5.2 -11.5,-8.4 -2.1,-6.3 -10.9,-11.3 -19.7,-11.4 -7.6,0 -11.1,-3.8 -8.3,-9.1 0.6,-1 1.6,-1.9 2.2,-1.9 0.6,0 3.5,-1.6 6.4,-3.6 3.9,-2.5 5.4,-4.1 5.4,-5.8 0,-4.6 -2.3,-8.7 -6.9,-12.2 -4.9,-3.8 -13.3,-14.2 -12.8,-15.9 0.2,-0.6 3.6,-0.9 8.3,-0.7 4.3,0.1 12.8,0.4 18.7,0.7 l 10.9,0.3 5.9,-6.2 c 3.2,-3.4 7.2,-8.1 8.8,-10.3 1.6,-2.2 4.7,-5.3 7,-6.9 2.2,-1.6 4.8,-4.6 5.7,-6.7 1.5,-3.4 10.4,-11.7 12.4,-11.7 0.4,0 1.3,0.7 2,1.5 z"
         id="path210"
         style="fill:#000000;stroke:none;stroke-width:0.1;fill-opacity:0.84705883"
         inkscape:connector-curvature="0" />
      <path
         d="m 2032,1721.9 c -10.7,2.4 -16.4,4.8 -24.5,10.6 -11.2,8 -22.1,24.6 -26,39.6 -2.1,8.1 -1.5,18.9 1.8,31.4 2.7,10.1 4,12.9 9.8,21.2 8.3,12 29.2,25.4 34.8,22.4 2.5,-1.4 2.7,-5 0.5,-9.2 -0.8,-1.7 -1.3,-3.7 -1,-4.5 0.3,-0.8 3.5,-3.3 7.1,-5.5 5.8,-3.7 6.5,-4.5 6.5,-7.4 0,-2 -1.1,-4.8 -3,-7.3 -5.8,-8 -5.3,-8.3 24.4,-16.7 7.1,-2 13.7,-4 14.7,-4.6 4.6,-2.4 1.5,-7.5 -12.8,-21.5 -7.1,-7 -9.3,-9.7 -9.3,-11.8 0,-1.9 2.8,-5.6 11.3,-14.7 6.1,-6.6 11.3,-12.7 11.5,-13.4 0.2,-0.8 -1.1,-2.1 -2.9,-3 -13.2,-6.9 -28.1,-8.8 -42.9,-5.6 z"
         id="path214"
         style="fill:#000000;stroke:none;stroke-width:0.1;fill-opacity:0.84705883"
         inkscape:connector-curvature="0" />
      <path
         d="m 2471,1742.6 c -12.5,7.3 -19.5,20.2 -20.6,37.9 -1.1,15.7 6.8,39 17.8,52.9 5.7,7.1 9,9.7 17.4,13.7 9,4.1 18.2,4.2 25.3,0.3 6.5,-3.5 18.1,-14 18.1,-16.3 0,-2.5 -7.4,-17.2 -10,-19.9 -2.3,-2.4 -4.9,-2.3 -8,0.3 -2.6,2.2 -7.8,4.5 -10.2,4.5 -3.1,0 -11.4,-5.6 -14.9,-10 -3.5,-4.4 -5.9,-13.4 -5.9,-22 0,-5.6 0.4,-7.3 3,-11.3 1.6,-2.6 4.6,-5.7 6.5,-6.8 2.7,-1.6 3.5,-2.8 3.5,-4.9 0,-3.5 -5.4,-15.7 -8.2,-18.8 -2.9,-3 -8.1,-2.9 -13.8,0.4 z"
         id="path222"
         style="fill:#000000;stroke:none;stroke-width:0.1;fill-opacity:0.84705883"
         inkscape:connector-curvature="0" />
    </g>
  </g>
</svg>
