<?xml version="1.0" encoding="UTF-8" standalone="no"?>
<svg
   xmlns:dc="http://purl.org/dc/elements/1.1/"
   xmlns:cc="http://creativecommons.org/ns#"
   xmlns:rdf="http://www.w3.org/1999/02/22-rdf-syntax-ns#"
   xmlns:svg="http://www.w3.org/2000/svg"
   xmlns="http://www.w3.org/2000/svg"
   xmlns:sodipodi="http://sodipodi.sourceforge.net/DTD/sodipodi-0.dtd"
   xmlns:inkscape="http://www.inkscape.org/namespaces/inkscape"
   version="1.0"
   width="1232.4229"
   height="757.81952"
   viewBox="0 0 985.93828 606.25561"
   preserveAspectRatio="xMidYMid meet"
   id="svg2"
   inkscape:version="0.92.4 (5da689c313, 2019-01-14)"
   sodipodi:docname="exospace.svg">
  <defs
     id="defs238" />
  <sodipodi:namedview
     pagecolor="#ffffff"
     bordercolor="#666666"
     borderopacity="1"
     objecttolerance="10"
     gridtolerance="10"
     guidetolerance="10"
     inkscape:pageopacity="0"
     inkscape:pageshadow="2"
     inkscape:window-width="1920"
     inkscape:window-height="1017"
     id="namedview236"
     showgrid="false"
     units="px"
     fit-margin-top="0"
     fit-margin-left="0"
     fit-margin-right="0"
     fit-margin-bottom="0"
     inkscape:zoom="0.66376799"
     inkscape:cx="40.063373"
     inkscape:cy="391.59737"
     inkscape:window-x="-8"
     inkscape:window-y="-8"
     inkscape:window-maximized="1"
     inkscape:current-layer="layer1"
     inkscape:showpageshadow="false"
     borderlayer="true"
     inkscape:pagecheckerboard="true" />
  <metadata
     id="metadata4">
Created by potrace 1.13, written by Peter Selinger 2001-2015
<rdf:RDF>
  <cc:Work
     rdf:about="">
    <dc:format>image/svg+xml</dc:format>
    <dc:type
       rdf:resource="http://purl.org/dc/dcmitype/StillImage" />
    <dc:title></dc:title>
  </cc:Work>
</rdf:RDF>
</metadata>
  <g
     inkscape:groupmode="layer"
     id="layer2"
     inkscape:label="white"
     transform="translate(-3.8551064,-6.3867321)"
     sodipodi:insensitive="true">
    <rect
       style="opacity:1;fill:#ffffff;fill-opacity:1;stroke:none;stroke-width:1.98308206;stroke-miterlimit:4;stroke-dasharray:none;stroke-opacity:1"
       id="rect4347"
       width="1046.2003"
       height="650.84955"
       x="-25.070663"
       y="-15.307595" />
  </g>
  <g
     inkscape:groupmode="layer"
     id="layer1"
     inkscape:label="segs"
     transform="translate(-247.65166,-65.116569)">
    <path
       style="fill:#000000;stroke:none;fill-opacity:0.84705883"
       inkscape:connector-curvature="0"
       id="path10"
       d="m 467.00636,74.608704 c -25.46434,9.549126 -65.65024,74.801486 -65.65024,106.234026 0,31.83042 27.05586,29.04526 52.5202,-5.17244 8.35548,-11.14065 15.91521,-17.50673 21.08764,-17.10885 13.92581,0.79576 15.51732,-0.39788 7.9576,-5.57032 -6.76395,-5.17245 -6.76395,-6.36609 -0.39788,-24.66858 12.73218,-37.798625 5.57033,-61.671441 -15.51732,-53.713836 z m -12.3343,41.777426 c -2.38727,6.36608 -9.54911,8.35549 -9.54911,2.78516 0,-4.37668 4.37668,-8.75336 8.35549,-8.75336 1.98939,0 2.38728,2.78516 1.19362,5.9682 z m 17.10886,18.70037 c -0.79577,5.17244 -1.59152,1.9894 -1.59152,-6.76396 -0.39787,-8.75337 0.39789,-12.73217 1.59152,-9.15125 0.79577,3.9788 0.79577,11.14065 0,15.91521 z m -30.63678,-2.38728 c 0,3.18304 -1.9894,4.77456 -3.9788,3.58092 -2.38728,-1.59152 -3.18304,-4.37668 -1.9894,-6.36608 3.58092,-5.57032 5.9682,-4.37668 5.9682,2.78516 z m 13.92581,5.57032 c -1.19363,1.9894 -4.37668,3.97881 -6.36609,3.97881 -2.38727,0 -2.78515,-1.98941 -1.59151,-3.97881 1.19363,-2.38728 4.37667,-3.9788 6.36609,-3.9788 2.38728,0 2.78516,1.59152 1.59151,3.9788 z m -21.88341,9.94701 c 0,3.18304 -1.59153,5.9682 -3.9788,5.9682 -1.98941,0 -2.78517,-2.78516 -1.59152,-5.9682 1.59152,-3.18304 3.18304,-5.9682 3.97879,-5.9682 0.79577,0 1.59153,2.78516 1.59153,5.9682 z m 27.85162,9.54912 c -3.97881,7.95761 -18.70038,14.72158 -22.67918,10.74277 -1.59152,-1.19363 0,-2.38728 3.58092,-2.38728 3.18305,0 9.15126,-3.58092 13.13005,-7.9576 9.15125,-9.94701 11.53853,-10.34489 5.96821,-0.39789 z">
      <title
         id="title4331">4.3.1</title>
    </path>
    <g
       id="g4315"
       style="fill:#000000;fill-opacity:0.84705883">
      <title
         id="title4333">4.2.0</title>
      <path
         d="m 503.61135,141.05471 c -1.59154,1.19364 -2.78516,5.57032 -2.78516,9.15124 0,3.9788 -4.3767,13.52793 -9.94702,21.48554 -11.53853,17.10885 -6.36607,19.49613 5.57032,2.78516 11.14065,-15.51733 17.10885,-43.36895 7.16186,-33.42194 z"
         id="path38"
         inkscape:connector-curvature="0"
         style="fill:#000000;stroke:none;fill-opacity:0.84705883" />
      <path
         d="m 515.14988,156.17415 c -1.59154,7.55973 -7.16186,19.09826 -12.3343,25.46434 -11.93641,13.92581 -13.13005,20.2919 -1.59151,9.94701 13.52792,-12.33429 28.64736,-49.33715 19.89401,-49.33715 -1.98941,0 -4.77457,6.36608 -5.9682,13.9258 z"
         id="path40"
         inkscape:connector-curvature="0"
         style="fill:#000000;stroke:none;fill-opacity:0.84705883" />
      <path
         d="m 527.08627,162.14235 c -1.59152,9.15125 -7.55972,21.48554 -14.72155,29.84103 -9.15126,10.34488 -10.74277,13.92581 -5.96821,13.92581 3.58092,0 10.74276,-6.76396 16.31308,-15.51733 10.74277,-16.31309 17.90463,-44.16471 11.14065,-44.16471 -2.38728,0 -5.17244,7.16184 -6.76397,15.9152 z"
         id="path42"
         inkscape:connector-curvature="0"
         style="fill:#000000;stroke:none;fill-opacity:0.84705883" />
      <path
         d="m 545.38877,150.20595 c -2.38728,17.90462 -10.34488,37.40075 -21.08766,49.33715 -13.52793,15.51734 -14.72156,20.2919 -3.58091,14.32369 13.52792,-7.16184 28.64738,-37.40074 26.65797,-54.50959 -0.79575,-8.35549 -1.59152,-12.33429 -1.9894,-9.15125 z"
         id="path44"
         inkscape:connector-curvature="0"
         style="fill:#000000;stroke:none;fill-opacity:0.84705883" />
    </g>
    <g
       id="g4252"
       style="fill:#000000;fill-opacity:0.84705883">
      <title
         id="title4395">3.0.1</title>
      <path
         d="m 301.48817,152.99112 c -0.39788,1.98939 0,7.9576 0.39788,13.9258 0.39788,8.75337 -1.59152,10.74277 -11.9364,13.13005 -9.54913,1.9894 -11.93641,4.37668 -9.94701,9.15125 1.59152,3.9788 2.78516,7.55972 2.78516,8.75336 0.79576,8.35549 -1.9894,11.93641 -7.9576,11.93641 -13.13005,0 -12.73217,4.77456 2.38728,22.28129 15.91521,18.3025 27.05585,23.07706 22.67917,9.54913 -1.59152,-5.17244 -0.79576,-7.9576 2.78516,-8.35549 21.88342,-2.38727 30.2389,-1.59151 37.00286,3.18305 4.37668,2.78516 13.52793,5.17244 20.2919,5.17244 12.73217,0 12.73217,0 7.16185,-11.53853 -3.18305,-6.36608 -10.34489,-14.32369 -15.91522,-17.90461 -5.17244,-3.58092 -8.75337,-8.35549 -7.55972,-9.94701 0.79576,-1.9894 -0.79576,-5.57032 -3.97881,-8.35548 -6.76396,-5.57032 -7.9576,-15.91521 -1.9894,-15.91521 5.57032,0 4.77456,-10.74276 -0.79576,-13.13005 -2.78516,-1.19364 -11.9364,-4.77456 -19.89401,-8.35548 -8.35548,-3.58092 -15.11945,-5.17245 -15.51733,-3.58092 z m 20.2919,13.13004 c 3.18304,1.98941 4.37668,3.9788 1.9894,3.9788 -1.9894,0 -6.76397,-1.98939 -9.94701,-3.9788 -3.18304,-1.9894 -3.9788,-3.97881 -1.9894,-3.97881 2.38728,0 6.76396,1.98941 9.94701,3.97881 z m 7.9576,34.2177 c 0,1.19364 -5.17244,-1.59152 -11.93641,-6.36608 -6.36608,-4.77456 -11.9364,-9.54913 -11.9364,-10.34489 0,-1.19363 5.57032,1.59152 11.9364,6.36609 6.76397,4.77456 11.93641,9.54912 11.93641,10.34488 z m -18.70037,13.13005 c 5.9682,3.18304 10.74277,7.16185 10.74277,9.15125 0,4.77456 -1.19365,4.37668 -16.3131,-7.16185 -13.9258,-10.74276 -13.13004,-11.14064 5.57033,-1.9894 z m -24.66858,11.14065 c 5.17245,6.36609 4.77457,6.76396 -1.19364,1.59152 -3.9788,-2.78516 -7.16184,-5.9682 -7.16184,-6.76396 0,-3.18305 3.18304,-1.19365 8.35548,5.17244 z m 69.23117,-2.78516 c 1.19364,2.38728 -0.39789,2.78516 -3.58093,1.59152 -7.16184,-2.78516 -8.35548,-5.57032 -2.78516,-5.57032 2.38728,0 5.17245,1.59152 6.36609,3.9788 z"
         id="path56"
         inkscape:connector-curvature="0"
         style="fill:#000000;stroke:none;fill-opacity:0.84705883" />
      <path
         d="m 272.44292,165.3254 c -1.19365,1.98941 -6.36609,3.18304 -11.53853,1.59152 -7.55973,-1.9894 -7.95761,-1.19364 -3.58092,3.97881 2.78516,3.58092 3.9788,9.15124 2.38728,12.73216 -3.18305,8.35549 3.18304,7.95761 14.32369,-0.79576 7.16184,-5.9682 8.35548,-8.75336 5.17244,-14.72156 -2.38728,-3.97881 -5.17244,-5.17245 -6.76396,-2.78517 z"
         id="path60"
         inkscape:connector-curvature="0"
         style="fill:#000000;stroke:none;fill-opacity:0.84705883" />
    </g>
    <g
       id="g4264"
       style="fill:#000000;fill-opacity:0.84705883">
      <title
         id="title4455">7.0.1</title>
      <path
         d="m 1153.7476,174.47665 c -13.5278,5.9682 -16.7109,8.75337 -13.13,12.33429 5.9683,5.9682 6.3661,19.09825 0.3979,19.09825 -2.3872,0 -3.5809,2.78516 -2.3872,5.57032 1.5915,3.9788 -2.3873,8.75337 -10.3449,13.92581 -13.9259,8.75336 -24.2707,22.67918 -20.6898,28.2495 3.1831,4.77456 17.5067,2.38728 32.6262,-5.17245 6.7639,-3.58092 13.5278,-5.17244 14.7215,-3.58092 1.1937,1.98941 7.5598,2.78516 14.3238,1.59152 8.7532,-1.19363 11.9363,-0.39787 11.1406,3.58092 -1.9894,8.75337 5.9682,6.36609 22.2813,-7.16184 14.7215,-11.9364 15.1194,-12.33429 6.7639,-16.71097 -5.5703,-3.18304 -8.3554,-8.35548 -8.3554,-15.91521 0,-7.95761 -2.7852,-12.33429 -10.3449,-15.91521 -8.7534,-3.9788 -9.9471,-6.36609 -7.9577,-16.31309 2.7852,-14.32369 -3.183,-15.11945 -29.0453,-3.58092 z m 23.0771,29.04526 c -3.9788,3.58092 -27.4537,14.32369 -27.4537,12.73216 0,-2.78516 20.6897,-13.92581 25.4643,-14.32368 1.9894,0 2.7852,0.79576 1.9894,1.59152 z m -1.1936,24.27069 c -4.3767,3.18305 -9.947,5.96821 -11.9364,5.96821 -2.3872,-0.39789 0,-2.78516 5.5704,-5.96821 12.7321,-7.55972 15.9152,-7.16184 6.366,0 z m -38.1965,9.947 c 0,1.98941 -0.7957,3.97881 -1.5915,3.97881 -1.1936,0 -3.1831,-1.9894 -4.3767,-3.97881 -1.1936,-2.38727 -0.3979,-3.97879 1.5915,-3.97879 2.3873,0 4.3767,1.59152 4.3767,3.97879 z m 63.6609,-2.38727 c 0,0.79576 -3.1831,3.9788 -6.764,6.76396 -6.3661,5.17244 -6.764,4.77457 -1.5916,-1.59152 5.1725,-6.36609 8.3556,-8.35549 8.3556,-5.17244 z"
         id="path62"
         inkscape:connector-curvature="0"
         style="fill:#000000;stroke:none;fill-opacity:0.84705883" />
      <path
         d="m 1203.0848,182.03637 c -3.5809,5.9682 5.5703,23.87282 12.3343,23.87282 3.1831,0 4.3768,-2.38728 3.1831,-5.9682 -1.5916,-3.18305 -0.3979,-5.96821 1.9893,-5.96821 2.3874,0 4.3768,-2.78516 4.3768,-5.96821 0,-3.58092 -2.3873,-4.77455 -6.3661,-3.18303 -3.5809,1.19364 -7.9577,0 -9.5491,-2.78517 -2.3873,-3.58092 -3.581,-3.58092 -5.9683,0 z"
         id="path64"
         inkscape:connector-curvature="0"
         style="fill:#000000;stroke:none;fill-opacity:0.84705883" />
    </g>
    <path
       style="fill:#000000;stroke:none;fill-opacity:0.84705883"
       inkscape:connector-curvature="0"
       id="path78"
       d="m 379.87058,248.48237 c -3.9788,5.17245 -6.36608,9.94701 -5.57032,10.74277 15.51733,10.74277 24.66858,14.32369 29.44314,12.73217 8.75337,-3.18303 6.76396,-11.14065 -5.57032,-22.67918 l -10.74277,-10.34488 -7.55973,9.54912 z">
      <title
         id="title4397">3.0.0</title>
    </path>
    <g
       id="g4268"
       style="fill:#000000;fill-opacity:0.84705883">
      <title
         id="title4385">4.0.1</title>
      <path
         d="m 855.73537,244.10569 c 0.79577,8.75337 3.18305,17.90461 5.96821,20.29189 7.16186,7.9576 23.07706,-2.38728 23.87283,-15.91521 0.39788,-5.9682 -0.79577,-9.947 -3.18305,-8.75336 -1.9894,1.59152 -3.58092,0.39788 -3.58092,-1.98941 0,-2.78516 -2.78517,-3.58092 -6.3661,-2.38727 -3.5809,1.59152 -9.15123,0.39788 -11.93639,-1.98941 -4.77458,-3.97879 -5.57032,-1.9894 -4.77458,10.74277 z"
         id="path70"
         inkscape:connector-curvature="0"
         style="fill:#000000;stroke:none;fill-opacity:0.84705883" />
      <path
         d="m 835.4435,240.52477 c -4.37669,4.77457 -4.37669,6.76396 -0.39788,9.15125 2.78516,1.59152 3.58092,5.17244 2.38727,7.55972 -1.59151,2.38728 -0.39788,4.37668 3.18305,4.37668 7.9576,0 11.53852,-6.76396 5.57032,-9.54912 -3.97881,-1.98941 -3.97881,-2.78517 0,-4.77457 6.36609,-2.78516 6.36609,-8.35548 -0.39788,-10.74276 -2.38728,-0.79576 -7.16184,0.79576 -10.34488,3.9788 z"
         id="path76"
         inkscape:connector-curvature="0"
         style="fill:#000000;stroke:none;fill-opacity:0.84705883" />
      <path
         d="m 893.53401,240.52477 c -3.18304,5.57033 -0.79577,22.28129 3.18304,23.87281 2.38728,0.79576 3.97879,-5.17244 4.37668,-12.73216 0,-12.73217 -3.58091,-17.90461 -7.55972,-11.14065 z"
         id="path80"
         inkscape:connector-curvature="0"
         style="fill:#000000;stroke:none;fill-opacity:0.84705883" />
    </g>
    <g
       id="g4273"
       style="fill:#000000;fill-opacity:0.84705883">
      <title
         id="title4387">4.1.1</title>
      <path
         d="m 952.81816,232.96505 c -1.59153,2.78516 -6.36609,3.9788 -9.94703,2.78516 -6.36602,-1.9894 -7.16182,0.39788 -7.16182,13.92581 0,9.15124 1.59153,14.72156 3.58094,13.13004 2.38725,-1.19364 5.5703,0.39788 7.55972,3.18306 3.18304,4.77456 3.97883,4.77456 7.16181,0 1.98942,-3.18306 5.57036,-3.97882 8.35551,-2.3873 3.97883,2.3873 4.77456,0.79576 3.18304,-4.77456 -1.19363,-4.37668 -0.3979,-11.14065 1.98942,-15.11945 3.18304,-5.96821 2.78514,-6.76396 -2.38732,-4.77456 -3.97877,1.59152 -6.76392,0 -7.55971,-4.37668 -1.19362,-5.17244 -1.98942,-5.57033 -4.77456,-1.59152 z"
         id="path72"
         inkscape:connector-curvature="0"
         style="fill:#000000;stroke:none;fill-opacity:0.84705883" />
      <path
         d="m 917.40685,243.30993 c -2.78521,7.16185 1.19362,22.2813 5.57029,22.2813 6.36609,0 8.35551,-8.75337 3.18304,-12.73217 -4.37666,-2.78517 -4.37666,-4.37669 -0.39789,-5.9682 2.38731,-0.79576 3.97883,-3.58093 2.38731,-5.57033 -3.18304,-5.17244 -8.3555,-4.37668 -10.74275,1.9894 z"
         id="path82"
         inkscape:connector-curvature="0"
         style="fill:#000000;stroke:none;fill-opacity:0.84705883" />
      <path
         d="m 973.50794,247.68661 c -2.38732,11.93641 0,15.11945 6.76398,8.75337 4.77457,-4.77456 3.58088,-18.70038 -1.98942,-18.70038 -1.59152,0 -3.97883,4.37669 -4.77456,9.94701 z"
         id="path84"
         inkscape:connector-curvature="0"
         style="fill:#000000;stroke:none;fill-opacity:0.84705883" />
    </g>
    <g
       id="g4278"
       style="fill:#000000;fill-opacity:0.84705883">
      <title
         id="title4389">6.0.1</title>
      <path
         d="m 1032.3942,236.14809 c -1.9894,4.77456 -3.9788,5.17244 -7.5597,2.38728 -3.9788,-3.18304 -5.1724,-0.79577 -5.1724,11.14065 -0.3979,11.53853 0.7957,14.72156 4.7745,13.13004 3.5809,-1.19364 5.5703,0.79576 5.5703,5.17246 0,6.36607 0.3979,6.36607 7.1619,-0.79577 8.3554,-8.75337 15.5173,-31.83042 8.7533,-27.45374 -1.9894,1.19364 -3.9787,-0.39788 -3.9787,-3.58092 0,-8.35549 -6.3662,-7.95761 -9.5492,0 z"
         id="path74"
         inkscape:connector-curvature="0"
         style="fill:#000000;stroke:none;fill-opacity:0.84705883" />
      <path
         d="m 998.57439,244.10569 c -4.37667,5.17244 -4.37667,7.16185 -0.3979,9.54913 2.78521,1.59152 3.58091,5.17244 1.98941,8.35548 -2.38724,3.58093 -1.19362,4.37668 3.5809,2.38728 3.9788,-1.59152 7.9577,-2.78516 9.1513,-2.78516 1.1936,0 -0.3979,-2.78516 -3.1831,-6.76396 -4.3766,-5.17244 -4.3766,-6.76396 -0.3979,-7.9576 2.3874,-1.19365 3.9789,-3.58093 2.3874,-5.57033 -2.7852,-5.17244 -6.764,-4.37668 -13.13011,2.78516 z"
         id="path86"
         inkscape:connector-curvature="0"
         style="fill:#000000;stroke:none;fill-opacity:0.84705883" />
      <path
         d="m 1055.8691,241.71841 c -1.1936,1.9894 -1.1936,5.57032 0,7.95761 1.1937,1.9894 0.3979,3.9788 -2.3873,3.9788 -3.183,0 -3.183,1.59152 0.3979,5.9682 6.3662,7.55973 9.1513,4.77456 10.3449,-9.947 0.7958,-11.53853 -3.5809,-15.91521 -8.3555,-7.95761 z"
         id="path88"
         inkscape:connector-curvature="0"
         style="fill:#000000;stroke:none;fill-opacity:0.84705883" />
    </g>
    <path
       style="fill:#000000;stroke:none;fill-opacity:0.84705883"
       inkscape:connector-curvature="0"
       id="path90"
       d="m 1074.1716,267.58063 c -5.5703,5.57032 -8.3554,11.93642 -7.1618,15.51734 3.183,7.9576 7.9576,7.9576 23.077,0.39787 11.1407,-5.96821 11.5386,-6.36608 5.1725,-15.91521 -7.9576,-11.93641 -9.1512,-11.93641 -21.0877,0 z">
      <title
         id="title4453">8.3.1</title>
    </path>
    <path
       style="fill:#000000;stroke:none;fill-opacity:0.84705883"
       inkscape:connector-curvature="0"
       id="path92"
       d="m 412.09888,268.77428 c -7.16184,7.55971 -9.54912,18.70037 -3.18303,15.11944 1.59151,-1.19363 6.76396,0.39788 10.74276,3.58093 18.30249,13.52792 28.64737,-0.39789 11.9364,-15.91521 -12.73216,-11.93642 -11.53852,-11.53854 -19.49613,-2.78516 z">
      <title
         id="title4399">3.1.0</title>
    </path>
    <path
       style="fill:#000000;stroke:none;fill-opacity:0.84705883"
       inkscape:connector-curvature="0"
       id="path96"
       d="m 1043.137,283.49584 c -17.9046,17.10884 -7.1619,28.64737 15.9152,16.71096 l 9.5491,-5.17243 -8.3554,-9.94701 -8.3556,-9.94701 -8.7533,8.35549 z">
      <title
         id="title4451">8.3.0</title>
    </path>
    <path
       style="fill:#000000;stroke:none;fill-opacity:0.84705883"
       inkscape:connector-curvature="0"
       id="path98"
       d="m 443.53143,290.25981 c -5.96821,8.35548 -5.57033,9.15125 8.75336,17.50673 15.51734,9.54912 20.68978,9.15123 20.68978,-1.19365 0,-5.17244 -17.10885,-25.06645 -21.88341,-25.06645 -0.79576,0 -4.37669,3.97881 -7.55973,8.75337 z">
      <title
         id="title4401">3.1.1</title>
    </path>
    <path
       style="fill:#000000;stroke:none;fill-opacity:0.84705883"
       inkscape:connector-curvature="0"
       id="path100"
       d="m 1011.3066,303.78773 c -15.51736,16.71097 -9.5492,25.06645 12.7321,17.10885 l 13.5279,-5.17244 -6.7639,-11.14064 c -7.5598,-13.13004 -7.9576,-13.13004 -19.4961,-0.79577 z">
      <title
         id="title4449">8.2.0</title>
    </path>
    <path
       style="fill:#000000;stroke:none;fill-opacity:0.84705883"
       inkscape:connector-curvature="0"
       id="path104"
       d="m 476.15761,314.13261 c -5.57032,8.35551 -5.17246,9.15126 7.55972,15.91523 16.71097,9.15124 21.08765,9.15124 21.08765,0 0,-5.96821 -16.31309,-24.66858 -21.48553,-24.66858 -0.79577,0 -3.97881,3.97879 -7.16184,8.75335 z">
      <title
         id="title4403">3.2.1</title>
    </path>
    <path
       style="fill:#000000;stroke:none;fill-opacity:0.84705883"
       inkscape:connector-curvature="0"
       id="path106"
       d="m 976.29308,325.67114 c -8.75333,8.75337 -10.74275,12.3343 -7.16181,15.91522 3.58094,3.58091 7.55971,3.58091 17.10884,-0.39788 15.51729,-6.36609 17.50669,-9.54914 11.14065,-19.89401 -6.36608,-9.94702 -6.36608,-9.94702 -21.08768,4.37667 z">
      <title
         id="title4447">8.2.1</title>
    </path>
    <g
       id="g4303"
       style="fill:#000000;fill-opacity:0.84705883">
      <title
         id="title4419">1.1.1</title>
      <path
         d="m 559.71246,325.27328 c -11.14064,8.75335 -32.62619,40.58377 -37.00287,54.50958 -4.37667,15.9152 3.97881,9.94702 13.13005,-8.75337 4.77458,-9.54911 15.11945,-25.06645 23.07706,-33.81982 16.31308,-17.9046 16.31308,-24.66857 0.79576,-11.93639 z"
         id="path108"
         inkscape:connector-curvature="0"
         style="fill:#000000;stroke:none;fill-opacity:0.84705883" />
      <path
         d="m 562.09974,345.96304 c -12.73216,15.51734 -25.86222,42.97107 -22.67918,48.14351 1.19366,1.9894 6.36609,-4.77455 11.14065,-15.11946 5.17244,-10.34488 15.11946,-25.06645 22.28129,-32.22828 9.54914,-9.54914 11.14065,-13.52793 6.76398,-13.52793 -3.58093,0 -11.53853,5.9682 -17.50674,12.73216 z"
         id="path112"
         inkscape:connector-curvature="0"
         style="fill:#000000;stroke:none;fill-opacity:0.84705883" />
      <path
         d="m 581.59587,347.55457 c -7.9576,3.58091 -29.84101,40.58377 -28.2495,48.14349 1.19365,5.17246 4.37669,1.98942 10.74277,-10.74276 5.17243,-9.947 13.9258,-22.67917 19.49613,-29.04525 9.54913,-9.94701 9.15124,-12.73218 -1.9894,-8.35548 z"
         id="path116"
         inkscape:connector-curvature="0"
         style="fill:#000000;stroke:none;fill-opacity:0.84705883" />
      <path
         d="m 583.1874,365.85705 c -9.94702,13.52793 -18.70039,28.64738 -18.70039,32.62617 0,7.55974 8.75337,0 15.51735,-12.73215 4.37667,-8.35549 10.74276,-17.50674 13.92581,-20.2919 3.5809,-3.18304 6.36606,-6.76396 6.36606,-8.75337 0,-7.55972 -7.9576,-3.18304 -17.10883,9.15125 z"
         id="path120"
         inkscape:connector-curvature="0"
         style="fill:#000000;stroke:none;fill-opacity:0.84705883" />
    </g>
    <g
       id="g4291"
       style="fill:#000000;fill-opacity:0.84705883">
      <title
         id="title4431">1.3.1</title>
      <path
         d="m 906.66403,323.68174 c 0,1.59154 6.36608,9.15126 14.32369,16.71097 7.95761,7.95761 19.09826,24.27071 25.06645,36.20711 5.96826,13.52792 10.74276,19.49613 11.53855,15.51734 2.78515,-13.13007 -26.26007,-57.69265 -43.36892,-67.24177 -3.97883,-1.98941 -7.55977,-2.78516 -7.55977,-1.19365 z"
         id="path110"
         inkscape:connector-curvature="0"
         style="fill:#000000;stroke:none;fill-opacity:0.84705883" />
      <path
         d="m 898.70645,334.42451 c 0,1.59153 6.36609,11.14065 14.32366,21.48554 8.35551,10.74276 17.50674,25.46434 20.68979,33.02406 3.18304,7.55972 6.76398,11.53853 7.55971,8.75337 2.78521,-7.9576 -13.5279,-37.79864 -28.64733,-52.52021 -7.55974,-7.55972 -13.92583,-12.33427 -13.92583,-10.74276 z"
         id="path114"
         inkscape:connector-curvature="0"
         style="fill:#000000;stroke:none;fill-opacity:0.84705883" />
      <path
         d="m 890.74885,351.13548 c 0,1.19365 4.37667,7.16186 9.54913,12.73218 5.17244,5.57032 12.73213,17.10885 16.71097,25.46434 3.58088,8.75336 8.35551,15.51732 10.34486,15.51732 4.37667,0 3.97884,-2.78516 -3.18304,-17.10886 -12.73211,-24.66857 -33.42192,-47.34775 -33.42192,-36.60498 z"
         id="path118"
         inkscape:connector-curvature="0"
         style="fill:#000000;stroke:none;fill-opacity:0.84705883" />
      <path
         d="m 883.18912,359.09308 c 0.79575,1.98942 7.95761,14.72158 15.51733,27.85163 8.75337,15.11945 14.32366,21.48553 15.11946,17.10886 1.59152,-7.16186 -13.92581,-33.81982 -25.06646,-42.97107 -3.97881,-3.18305 -6.36609,-4.3767 -5.57033,-1.98942 z"
         id="path122"
         inkscape:connector-curvature="0"
         style="fill:#000000;stroke:none;fill-opacity:0.84705883" />
    </g>
    <path
       style="fill:#000000;stroke:none;fill-opacity:0.84705883"
       inkscape:connector-curvature="0"
       id="path130"
       d="m 636.50335,404.05357 c -3.97881,3.97879 -6.36608,4.77456 -7.55973,1.59151 -0.79575,-2.78516 -3.97879,-4.77456 -7.16184,-4.77456 -3.97881,0 -4.37669,2.38728 -1.9894,9.15123 2.38729,5.57033 1.9894,11.93641 -0.39787,16.71097 -3.58094,5.96821 -3.18305,6.76398 4.37666,4.77458 5.17245,-1.19365 9.54914,0.39788 11.93642,3.97879 2.78516,5.17244 3.58092,5.17244 5.57032,-0.39788 1.59152,-3.97879 4.77456,-5.17244 9.54912,-3.58091 6.36611,2.38728 6.36611,1.9894 1.59155,-3.97881 -4.37672,-5.57033 -4.37672,-7.16183 0.79575,-9.15125 3.58092,-1.19363 5.17246,-4.77455 4.37669,-7.55972 -1.19365,-3.18304 -4.77456,-4.37668 -7.55974,-3.58093 -2.78516,1.19365 -5.96821,-0.39786 -6.76397,-3.58091 -1.19363,-5.17246 -1.9894,-5.17246 -6.76396,0.39789 z">
      <title
         id="title4415">2.3.1</title>
    </path>
    <path
       style="fill:#000000;stroke:none;fill-opacity:0.84705883"
       inkscape:connector-curvature="0"
       id="path132"
       d="m 833.85197,408.82813 c 1.19365,5.17243 0,7.9576 -3.18305,7.9576 -3.97879,0 -3.97879,1.19364 -0.79575,4.37667 2.38728,2.3873 3.58091,6.76397 2.78516,9.15125 -1.19364,3.18305 3.18305,4.77456 11.9364,4.77456 7.55973,0 13.13006,-1.19363 11.93641,-2.78516 -0.79577,-1.59152 0.79577,-3.97879 3.18304,-5.17244 3.97881,-1.9894 3.97881,-2.78516 0.39789,-4.77456 -3.97881,-1.59151 -3.97881,-4.37668 -0.79576,-10.34488 5.17243,-9.94701 1.59152,-13.92581 -6.3661,-7.16185 -4.77456,3.97881 -7.55972,3.97881 -10.74276,0.79576 -7.16183,-7.16186 -10.74276,-5.57032 -8.35548,3.18305 z">
      <title
         id="title4435">0.0.0</title>
    </path>
    <g
       id="g4309"
       style="fill:#000000;fill-opacity:0.84705883">
      <title
         id="title4421">1.0.0</title>
      <path
         d="m 518.33292,431.5073 c 3.58091,21.08765 25.46434,64.85449 32.22829,64.85449 3.97881,0 2.78516,-3.9788 -3.97879,-14.3237 -9.54914,-13.9258 -21.88343,-48.14351 -21.88343,-60.07993 0,-2.78516 -1.9894,-5.17243 -4.37667,-5.17243 -2.78517,0 -3.58093,5.17243 -1.9894,14.72157 z"
         id="path138"
         inkscape:connector-curvature="0"
         style="fill:#000000;stroke:none;fill-opacity:0.84705883" />
      <path
         d="m 536.6354,429.12002 c 0,15.11944 18.70037,56.10111 26.65799,58.4884 2.78516,0.79576 -0.39788,-8.75337 -6.76397,-21.08767 -6.76398,-12.33428 -11.93641,-26.65796 -11.93641,-31.43254 0,-4.37668 -1.9894,-11.14065 -3.97879,-14.32367 -2.78517,-4.3767 -3.97882,-2.3873 -3.97882,8.35548 z"
         id="path140"
         inkscape:connector-curvature="0"
         style="fill:#000000;stroke:none;fill-opacity:0.84705883" />
      <path
         d="m 550.56121,429.51789 c 3.58093,17.10885 17.50674,46.94988 22.28129,46.94988 4.77458,0 4.77458,0 -4.37667,-19.09825 -4.37669,-9.15125 -9.15125,-22.28131 -10.74277,-28.64738 -1.19364,-6.76398 -3.97881,-11.93641 -5.9682,-11.93641 -2.38728,0 -2.78517,5.57032 -1.19365,12.73216 z"
         id="path142"
         inkscape:connector-curvature="0"
         style="fill:#000000;stroke:none;fill-opacity:0.84705883" />
      <path
         d="m 564.48701,425.5391 c 0,10.74276 15.11947,42.97107 20.2919,42.97107 4.77456,0 4.77456,0 -4.37667,-19.09827 -4.37669,-8.75337 -7.95762,-19.89401 -7.95762,-24.66857 0,-4.37667 -1.59151,-7.9576 -3.97879,-7.9576 -1.98942,0 -3.97882,3.97881 -3.97882,8.75337 z"
         id="path144"
         inkscape:connector-curvature="0"
         style="fill:#000000;stroke:none;fill-opacity:0.84705883" />
    </g>
    <g
       id="g4297"
       style="fill:#000000;fill-opacity:0.84705883">
      <title
         id="title4433">1.3.0</title>
      <path
         d="m 906.66403,437.4755 c -2.78514,8.75338 -7.16182,20.29188 -10.34486,25.46434 -3.97881,5.57033 -4.37668,9.54914 -1.98939,11.14065 4.77455,3.18304 17.90461,-21.48554 22.28127,-40.58379 3.97878,-19.09825 -4.77456,-15.9152 -9.94702,3.9788 z"
         id="path150"
         inkscape:connector-curvature="0"
         style="fill:#000000;stroke:none;fill-opacity:0.84705883" />
      <path
         d="m 925.76229,424.74333 c -1.59152,3.18304 -4.77457,13.13004 -7.55971,21.88341 -2.38725,8.75337 -7.16182,19.49613 -9.94697,23.87283 -6.36612,9.15125 -7.16188,13.9258 -1.98944,13.9258 6.76394,0 25.06648,-42.57319 23.47495,-54.5096 -1.19362,-7.16184 -2.38731,-9.15123 -3.97883,-5.17244 z"
         id="path152"
         inkscape:connector-curvature="0"
         style="fill:#000000;stroke:none;fill-opacity:0.84705883" />
      <path
         d="m 940.48388,425.5391 c -11.53855,37.79861 -15.11942,46.94988 -19.89405,53.31595 -6.76392,8.75337 -7.55972,13.52794 -1.98936,13.52794 5.96819,0 23.47493,-37.00288 26.26008,-55.30536 2.38731,-15.11947 -0.3979,-23.07707 -4.37667,-11.53853 z"
         id="path154"
         inkscape:connector-curvature="0"
         style="fill:#000000;stroke:none;fill-opacity:0.84705883" />
      <path
         d="m 952.81816,441.45429 c -1.59153,9.54914 -7.95761,26.658 -14.3237,37.79864 -14.72153,25.46434 -15.11942,29.44315 -1.98935,17.10886 10.74275,-9.947 25.86218,-46.15413 25.86218,-61.67145 0,-16.3131 -6.76399,-11.14064 -9.54913,6.76395 z"
         id="path156"
         inkscape:connector-curvature="0"
         style="fill:#000000;stroke:none;fill-opacity:0.84705883" />
    </g>
    <g
       id="g4287"
       style="fill:#000000;fill-opacity:0.84705883">
      <title
         id="title4437">0.0.1</title>
      <path
         d="m 831.06681,373.81466 c 0,1.59152 -2.78517,3.18304 -5.96821,3.18304 -7.16184,0 -7.95761,10.34488 -1.19363,14.32369 2.38728,1.59151 6.36607,0.39788 8.75336,-2.78516 2.38729,-3.18305 8.35549,-5.17244 13.52793,-4.37668 8.75337,1.19363 11.14065,-1.98941 5.57032,-9.15125 -3.58093,-4.77455 -20.68977,-5.9682 -20.68977,-1.19364 z"
         id="path126"
         inkscape:connector-curvature="0"
         style="fill:#000000;stroke:none;fill-opacity:0.84705883" />
      <path
         d="m 853.3481,449.80978 c 1.19365,3.18305 -0.79575,5.57033 -4.37668,5.57033 -3.18304,0 -5.9682,-1.59152 -5.9682,-3.58091 0,-1.59154 -2.78517,-3.18304 -5.96821,-3.18304 -3.18304,0 -5.9682,0.79574 -5.9682,1.5915 0,0.79577 -1.19364,4.77456 -2.78517,8.75337 -1.98939,5.17245 -1.19363,6.36609 3.97881,4.37668 3.58093,-1.19363 7.55972,-0.79575 9.15125,1.59153 1.59152,2.78517 3.97879,2.38729 7.16184,0 2.78516,-2.38728 6.36609,-3.18305 7.55972,-1.59153 1.59153,1.19365 2.78516,0.39788 2.78516,-2.38728 0,-2.78516 1.98941,-3.58091 3.97881,-2.38728 5.57032,3.58093 5.17244,-3.18304 -0.79576,-9.15125 -6.3661,-6.36607 -11.53853,-5.96821 -8.75337,0.39788 z"
         id="path160"
         inkscape:connector-curvature="0"
         style="fill:#000000;stroke:none;fill-opacity:0.84705883" />
    </g>
    <g
       id="g4283"
       style="fill:#000000;fill-opacity:0.84705883">
      <title
         id="title4417">2.3.0</title>
      <path
         d="m 632.12666,379.38498 c 0,4.77457 1.9894,5.9682 9.94702,5.57032 1.19363,-0.39788 5.17244,2.38728 8.35549,5.9682 6.76397,6.76398 13.52794,4.77456 13.52794,-4.37667 0,-3.18304 -1.59153,-5.17244 -3.58093,-3.97881 -1.98939,1.19365 -4.37669,0 -5.57033,-3.18304 -2.78518,-7.16184 -22.67919,-7.16184 -22.67919,0 z"
         id="path128"
         inkscape:connector-curvature="0"
         style="fill:#000000;stroke:none;fill-opacity:0.84705883" />
      <path
         d="m 640.48215,452.19706 c -2.78516,1.98941 -8.75337,2.3873 -12.73216,1.59153 -9.94702,-2.78516 -9.54913,3.58093 0.39788,9.947 5.57033,3.18306 7.9576,3.58094 7.9576,0.39789 0,-2.38729 2.38728,-3.58093 5.17244,-2.38729 8.75337,3.18305 16.31311,-3.18304 9.947,-8.35548 -3.18305,-2.38728 -7.55972,-2.78516 -10.74276,-1.19365 z"
         id="path162"
         inkscape:connector-curvature="0"
         style="fill:#000000;stroke:none;fill-opacity:0.84705883" />
    </g>
    <path
       style="fill:#000000;stroke:none;fill-opacity:0.84705883"
       inkscape:connector-curvature="0"
       id="path164"
       d="m 498.04102,465.32712 c -10.3449,4.77457 -11.14064,8.35549 -5.17244,19.49613 3.18305,5.57033 5.57032,6.36609 9.15123,3.58093 2.78517,-2.38728 8.35549,-6.76397 12.3343,-9.54913 4.77456,-3.18305 6.76397,-7.55972 5.17244,-11.9364 -2.78516,-7.16185 -8.75337,-7.55973 -21.48553,-1.59153 z">
      <title
         id="title4413">2.0.0</title>
    </path>
    <path
       style="fill:#000000;stroke:none;fill-opacity:0.84705883"
       inkscape:connector-curvature="0"
       id="path166"
       d="m 969.13127,463.33771 c -5.96819,5.57032 -1.98942,12.73218 11.14065,20.68978 l 14.3237,8.3555 3.97877,-10.74278 c 1.98941,-5.57032 3.18301,-10.34488 2.78511,-10.74276 -5.17243,-3.18304 -24.27062,-10.3449 -26.65794,-10.3449 -1.59152,0 -4.37667,1.19364 -5.57029,2.78516 z">
      <title
         id="title4465">0.3.1</title>
    </path>
    <path
       style="fill:#000000;stroke:none;fill-opacity:0.84705883"
       inkscape:connector-curvature="0"
       id="path170"
       d="m 465.01697,477.66142 c -5.57033,2.38728 -10.34491,4.77455 -11.14065,5.17244 -1.19365,0.79577 6.36607,17.10885 9.54911,21.08764 0.39789,0.39788 3.58093,-0.79574 6.3661,-3.18303 2.78516,-2.78516 8.75336,-7.16185 13.13003,-9.94701 6.3661,-4.77456 6.76397,-6.36609 2.38729,-11.93641 -5.96821,-7.16184 -6.76396,-7.55972 -20.29188,-1.19363 z">
      <title
         id="title4411">2.0.1</title>
    </path>
    <path
       style="fill:#000000;stroke:none;fill-opacity:0.84705883"
       inkscape:connector-curvature="0"
       id="path172"
       d="m 1004.5426,480.0487 c -3.9788,5.9682 0,10.74276 13.9258,17.90461 11.5385,5.57033 11.9364,5.57033 15.9152,-4.37669 4.7746,-12.3343 5.1724,-11.93641 -12.7322,-15.11946 -9.1512,-1.59151 -15.5173,-1.19363 -17.1088,1.59154 z">
      <title
         id="title4463">8.0.1</title>
    </path>
    <path
       style="fill:#000000;stroke:none;fill-opacity:0.84705883"
       inkscape:connector-curvature="0"
       id="path174"
       d="m 839.02441,498.35118 c 0,9.54914 1.98941,13.92581 5.9682,13.92581 3.97881,0 5.96821,-4.37667 5.96821,-13.92581 0,-9.54912 -1.9894,-13.92581 -5.96821,-13.92581 -3.97879,0 -5.9682,4.37669 -5.9682,13.92581 z">
      <title
         id="title4439">0.3.0</title>
    </path>
    <path
       style="fill:#000000;stroke:none;fill-opacity:0.84705883"
       inkscape:connector-curvature="0"
       id="path178"
       d="m 422.44377,491.18934 c -8.75337,1.59152 -8.75337,2.38728 -2.78516,13.52793 l 5.96821,11.93641 12.73216,-7.16185 c 22.28129,-13.13004 12.33429,-24.2707 -15.91521,-18.30249 z">
      <title
         id="title4409">3.3.1</title>
    </path>
    <path
       style="fill:#000000;stroke:none;fill-opacity:0.84705883"
       inkscape:connector-curvature="0"
       id="path182"
       d="m 624.16906,498.35118 c 0,5.9682 2.38728,9.94701 5.57032,9.94701 7.55972,0 11.14065,-5.57032 7.95761,-13.52792 -3.97879,-9.94702 -13.52793,-7.55973 -13.52793,3.58091 z">
      <title
         id="title4423">1.0.1</title>
    </path>
    <path
       style="fill:#000000;stroke:none;fill-opacity:0.84705883"
       inkscape:connector-curvature="0"
       id="path184"
       d="m 1037.9645,495.16815 c 0,4.77456 5.1725,9.947 13.9258,14.32368 13.9259,6.36609 13.9259,6.36609 16.3132,-3.58091 3.183,-12.3343 3.183,-12.3343 -15.1195,-15.51734 -13.1301,-2.38728 -15.1195,-1.9894 -15.1195,4.77457 z">
      <title
         id="title4461">8.0.0</title>
    </path>
    <path
       style="fill:#000000;stroke:none;fill-opacity:0.84705883"
       inkscape:connector-curvature="0"
       id="path190"
       d="m 390.61335,505.11515 c -12.73217,3.97881 -12.73217,4.37668 -6.76396,15.51732 4.37668,8.75337 7.16184,10.3449 10.74276,7.55974 2.78517,-2.38728 8.35549,-6.76397 12.33429,-9.54913 4.77457,-3.18305 6.76396,-7.55972 5.17244,-11.93642 -2.78516,-7.16183 -3.58092,-7.16183 -21.48553,-1.59151 z">
      <title
         id="title4407">3.3.0</title>
    </path>
    <path
       style="fill:#000000;stroke:none;fill-opacity:0.84705883"
       inkscape:connector-curvature="0"
       id="path192"
       d="m 1076.559,502.72787 c -5.9683,5.96821 -2.3874,13.13005 9.9469,19.09825 6.764,3.58093 13.9258,5.17244 15.5173,3.58093 5.5704,-5.96821 5.5704,-18.3025 -0.3978,-19.49613 -3.1831,-0.79577 -9.5491,-2.38728 -13.9258,-3.58093 -4.3767,-1.19365 -9.5492,-1.19365 -11.1406,0.39788 z">
      <title
         id="title4459">8.1.1</title>
    </path>
    <path
       style="fill:#000000;stroke:none;fill-opacity:0.84705883"
       inkscape:connector-curvature="0"
       id="path194"
       d="m 624.16906,542.9138 c 0,10.34486 6.36609,18.70035 11.53853,15.51731 2.38728,-1.59152 4.37667,-7.16184 4.37667,-12.73215 0,-6.76398 -1.98939,-9.54915 -7.9576,-9.54915 -4.77455,0 -7.9576,2.78517 -7.9576,6.76399 z">
      <title
         id="title4425">2.2.1</title>
    </path>
    <path
       style="fill:#000000;stroke:none;fill-opacity:0.84705883"
       inkscape:connector-curvature="0"
       id="path196"
       d="m 839.02441,548.48411 c 0,15.11943 9.54913,13.92582 11.14064,-1.59153 0.79577,-7.55972 -0.39786,-10.74277 -4.77456,-10.74277 -4.37667,0 -6.36608,3.97881 -6.36608,12.3343 z">
      <title
         id="title4441">0.1.0</title>
    </path>
    <g
       id="g4260"
       style="fill:#000000;fill-opacity:0.84705883">
      <title
         id="title4457">8.1.0</title>
      <path
         d="m 1176.8247,498.35118 c -0.3979,1.19365 -0.7957,3.97881 -1.1936,5.9682 -0.3979,5.96821 -11.1406,11.93641 -15.5173,9.15125 -1.9894,-1.19364 -5.1725,0 -6.764,2.78516 -2.3873,3.58094 -4.7746,3.58094 -11.5385,0 -4.7746,-2.38727 -13.9258,-3.58092 -20.2919,-1.98939 -15.5173,3.58091 -11.5386,15.11944 8.3555,23.87281 8.7534,3.97881 14.7215,7.9576 13.5279,9.15125 -0.7957,1.19365 1.9894,6.36609 6.3661,11.93641 5.9682,7.95762 6.764,10.74276 2.7851,13.13004 -7.9576,5.17244 0.7958,10.74276 21.8835,13.52793 18.7003,2.78516 19.0982,2.78516 16.7109,-7.16184 -1.9893,-7.55973 -0.3978,-11.14065 5.9683,-15.91522 7.1617,-4.77456 8.3554,-8.35548 5.9681,-18.30249 -2.3873,-10.74276 -1.1936,-12.73217 7.5597,-16.71096 5.5704,-2.78517 10.345,-6.36609 10.345,-7.9576 0,-1.98942 -8.7534,-7.9576 -19.894,-13.52793 -20.292,-10.3449 -23.475,-11.53853 -24.2708,-7.95762 z m -39.3901,27.85162 c 0,3.18304 -1.5915,5.9682 -3.9787,5.9682 -1.9895,0 -2.7853,-2.78516 -1.5916,-5.9682 1.5916,-3.18303 3.183,-5.96819 3.9788,-5.96819 0.7958,0 1.5915,2.78516 1.5915,5.96819 z m 37.7986,5.17246 c -1.1936,1.19362 -4.3766,0 -7.1618,-2.78517 -3.5809,-3.97881 -3.1831,-4.37669 2.3873,-1.98941 3.9788,1.19365 5.9681,3.58093 4.7745,4.77458 z m -11.9364,19.89401 c -1.1937,1.19363 -4.3767,0 -7.1618,-2.78516 -3.581,-3.97882 -3.1831,-4.3767 2.3873,-1.98942 3.9788,1.19365 5.9682,3.58093 4.7745,4.77458 z m 15.9152,4.77455 c 1.1937,2.38729 -0.3978,2.78517 -3.5809,1.59152 -7.1619,-2.78516 -8.3555,-5.57033 -2.7852,-5.57033 2.3873,0 5.1724,1.59154 6.3661,3.97881 z"
         id="path186"
         inkscape:connector-curvature="0"
         style="fill:#000000;stroke:none;fill-opacity:0.84705883" />
      <path
         d="m 1213.0319,554.4523 c -5.9683,15.11945 -4.7746,18.30249 5.1724,15.11945 11.5385,-3.58093 11.5385,-3.18304 8.3555,-15.11945 -3.1831,-13.13005 -8.7534,-13.13005 -13.5279,0 z"
         id="path198"
         inkscape:connector-curvature="0"
         style="fill:#000000;stroke:none;fill-opacity:0.84705883" />
    </g>
    <g
       id="g4256"
       style="fill:#000000;fill-opacity:0.84705883">
      <title
         id="title4405">3.2.0</title>
      <path
         d="m 278.41112,512.27699 c -23.07706,15.51734 -23.07706,15.11946 -10.34489,19.89401 9.15125,3.58093 10.74277,5.96821 8.75337,15.51734 -1.9894,9.15125 -0.79576,11.93641 7.9576,15.9152 9.94701,4.77456 10.34489,7.9576 3.18305,25.86224 -2.78517,6.36608 -1.98941,7.16182 10.34488,4.37666 7.55973,-1.5915 19.89401,-5.57033 27.45374,-8.75334 11.53852,-4.77459 12.73216,-6.3661 6.76397,-8.75338 -6.76397,-2.38729 -6.76397,-3.18304 1.19363,-13.13006 4.37668,-5.96821 7.9576,-12.33427 7.9576,-13.92581 -0.39788,-1.59151 4.37669,-4.77456 10.74277,-6.36605 5.96821,-1.98943 14.32369,-7.55975 17.90461,-12.73219 6.76397,-9.15126 6.76397,-9.15126 -6.36608,-11.53853 -7.16184,-1.59152 -18.30249,-0.79577 -24.66857,1.59153 -7.95761,3.18303 -11.93641,3.18303 -12.73217,0.39786 -0.79576,-2.38728 -2.78516,-3.58091 -4.77456,-2.38728 -1.98941,1.19365 -7.95761,0.39789 -13.92581,-1.9894 -9.15125,-3.58092 -9.94701,-5.17243 -5.96821,-9.94699 8.35549,-9.94701 -3.9788,-6.76397 -23.47493,5.96819 z m 11.53853,5.57032 c 0,0.79577 -2.78517,2.78516 -6.36609,3.97881 -3.18304,1.19365 -4.77456,0.79577 -3.58092,-1.59151 2.38728,-3.97882 9.94701,-5.57032 9.94701,-2.3873 z m 63.66084,6.36609 c -5.17245,3.58093 -5.17245,4.37669 0,7.9576 5.17244,3.18305 4.77456,3.97881 -0.79576,3.97881 -3.97881,0 -7.16185,-2.38728 -7.16185,-5.17244 0,-6.76397 3.9788,-10.74276 9.54912,-10.74276 2.38729,0 1.59153,1.98939 -1.59151,3.97879 z m -51.72444,11.93641 c -3.18304,1.9894 -7.55972,3.97881 -9.947,3.97881 -1.9894,0 -1.19364,-1.98941 1.9894,-3.97881 3.18304,-1.98939 7.9576,-3.97881 9.947,-3.97881 2.38729,0 1.19364,1.98942 -1.9894,3.97881 z m 25.86222,15.51732 c -5.17244,4.37669 -32.2283,13.52796 -28.2495,9.54914 1.59152,-1.9894 8.75337,-5.17245 15.51733,-7.95761 15.91521,-5.9682 17.10885,-5.9682 12.73217,-1.59153 z m -13.92581,28.2495 c -3.18304,1.98943 -8.75337,3.58093 -11.93641,3.58093 -3.9788,0 -3.18304,-1.19362 1.9894,-3.58093 10.74277,-4.77456 17.10886,-4.77456 9.94701,0 z"
         id="path188"
         inkscape:connector-curvature="0"
         style="fill:#000000;stroke:none;fill-opacity:0.84705883" />
      <path
         d="m 254.93618,560.02261 c 0,7.55974 1.59152,11.93642 5.17245,11.93642 2.78516,0 5.9682,2.38728 7.16184,4.77459 1.19364,3.58089 2.78516,3.18301 4.37668,-1.19367 3.58093,-8.35546 -3.9788,-27.45373 -10.74276,-27.45373 -3.58092,0 -5.57033,4.77456 -5.96821,11.93639 z"
         id="path200"
         inkscape:connector-curvature="0"
         style="fill:#000000;stroke:none;fill-opacity:0.84705883" />
    </g>
    <path
       style="fill:#000000;stroke:none;fill-opacity:0.84705883"
       inkscape:connector-curvature="0"
       id="path202"
       d="m 628.14787,595.43398 c 0,8.35547 1.9894,12.33427 6.36607,12.33427 4.3767,0 5.57032,-3.18302 4.77457,-10.74277 -1.59152,-15.51732 -11.14064,-16.71097 -11.14064,-1.5915 z">
      <title
         id="title4427">2.1.1</title>
    </path>
    <path
       style="fill:#000000;stroke:none;fill-opacity:0.84705883"
       inkscape:connector-curvature="0"
       id="path204"
       d="m 839.82017,597.82126 c 1.59153,13.13003 8.75337,13.13003 10.34488,0 0.79577,-7.16184 -0.39786,-9.947 -5.17244,-9.947 -4.77456,0 -5.9682,2.78516 -5.17244,9.947 z">
      <title
         id="title4443">0.2.0</title>
    </path>
    <g
       id="g4321"
       style="fill:#000000;fill-opacity:0.84705883">
      <title
         id="title4429">2.1.0</title>
      <path
         d="m 626.95422,646.76053 c 3.58093,23.07705 7.95761,23.07705 11.53853,0 1.9894,-11.53852 1.19363,-13.52793 -5.57032,-13.92581 -7.16186,-0.39788 -7.9576,1.19364 -5.96821,13.92581 z"
         id="path224"
         inkscape:connector-curvature="0"
         style="fill:#000000;stroke:none;fill-opacity:0.84705883" />
      <path
         d="m 609.44749,644.77112 c 0,11.93642 5.17244,17.90462 11.14064,11.93642 2.38728,-2.38729 1.19365,-7.16185 -3.58091,-13.13005 l -7.55973,-9.54913 0,10.74276 z"
         id="path226"
         inkscape:connector-curvature="0"
         style="fill:#000000;stroke:none;fill-opacity:0.84705883" />
      <path
         d="m 653.21433,646.76053 c -9.94702,1.59152 -15.51734,12.73217 -8.75337,17.10885 7.16183,4.37668 14.32369,0 17.10885,-9.54913 2.3873,-9.94701 2.78516,-9.54913 -8.35548,-7.55972 z"
         id="path232"
         inkscape:connector-curvature="0"
         style="fill:#000000;stroke:none;fill-opacity:0.84705883" />
    </g>
    <g
       id="g4326"
       style="fill:#000000;fill-opacity:0.84705883">
      <title
         id="title4445">0.2.1</title>
      <path
         d="m 821.91555,643.17961 c -1.19363,4.77456 1.19365,10.74276 5.57033,14.72157 7.16185,6.36608 7.55974,6.36608 7.55974,-3.18304 0,-13.52793 -9.94702,-22.2813 -13.13007,-11.53853 z"
         id="path228"
         inkscape:connector-curvature="0"
         style="fill:#000000;stroke:none;fill-opacity:0.84705883" />
      <path
         d="m 839.82017,648.35205 c 0.79577,7.16184 3.18305,13.13005 5.17244,13.13005 2.38728,0 4.37669,-5.96821 5.17244,-13.13005 1.19365,-9.54913 -0.39786,-12.73216 -5.17244,-12.73216 -4.77456,0 -6.36607,3.18303 -5.17244,12.73216 z"
         id="path230"
         inkscape:connector-curvature="0"
         style="fill:#000000;stroke:none;fill-opacity:0.84705883" />
      <path
         d="m 869.26332,647.1584 c -1.59154,2.38729 -5.57033,2.78515 -8.75337,1.59153 -4.77458,-1.59153 -5.9682,0 -4.77458,7.16184 1.19365,9.15125 13.13007,13.92581 13.13007,5.57033 0,-2.38729 1.59151,-6.36608 3.5809,-9.15125 1.59154,-2.78516 2.38731,-6.36608 1.19365,-7.16184 -1.19365,-1.19364 -3.18304,-0.39789 -4.37667,1.98939 z"
         id="path234"
         inkscape:connector-curvature="0"
         style="fill:#000000;stroke:none;fill-opacity:0.84705883" />
    </g>
    <path
       style="fill:#000000;stroke:none;fill-opacity:0.84705883"
       inkscape:connector-curvature="0"
       id="path18-2"
       d="m 783.60054,87.1896 c -0.26433,0.198233 -0.46255,0.859011 -0.46255,1.321555 0,0.991166 6.40954,10.770673 7.53284,11.563605 0.39648,0.26431 4.62546,0.52862 9.38306,0.52862 l 8.65619,0 2.31271,-3.502118 c 6.34343,-9.449118 6.34343,-9.38304 -4.22897,-9.911662 -10.3742,-0.5947 -22.66468,-0.5947 -23.19328,0 z">
      <title
         id="title4339">5.1.0</title>
    </path>
    <path
       style="fill:#000000;stroke:none;fill-opacity:0.84705883"
       inkscape:connector-curvature="0"
       id="path20-1"
       d="m 905.71217,87.1896 c -3.03958,0.726856 -3.03958,1.453709 0.13225,6.343464 5.08798,8.061486 4.49326,7.731096 13.47987,7.731096 5.947,0 7.99542,-0.19823 8.72224,-0.99117 0.52861,-0.528618 2.37877,-3.369962 4.09684,-6.277382 2.44488,-4.295053 2.90739,-5.550531 2.24662,-6.343464 -0.59466,-0.726855 -3.23781,-0.925088 -14.07458,-0.85901 -7.26854,0.06608 -13.8763,0.264311 -14.60315,0.396466 z">
      <title
         id="title4341">6.1.0</title>
    </path>
    <path
       style="fill:#000000;stroke:none;fill-opacity:0.84705883"
       inkscape:connector-curvature="0"
       id="path22-1"
       d="m 989.76303,87.930283 c -0.26431,0.198233 -0.46251,0.85901 -0.46251,1.453711 0,1.718021 4.49324,10.836746 5.68269,11.761836 1.25543,0.92509 16.51939,1.25548 17.84089,0.33039 0.9912,-0.66078 7.533,-11.497527 7.533,-12.422615 0,-0.462545 -0.4626,-0.991166 -1.0573,-1.1894 -1.3876,-0.528621 -29.00816,-0.528621 -29.53677,0.06608 z">
      <title
         id="title4343">7.1.0</title>
    </path>
    <g
       transform="matrix(0.66077736,0,0,0.66077736,142.37508,59.724212)"
       id="g4671"
       style="fill:#000000;fill-opacity:0.84705883">
      <title
         id="title4335">4.1.0</title>
      <path
         d="m 723.26274,45.065255 c -0.6,0.6 -1.2,1.8 -1.2,2.5 0,0.7 -0.6,3.2 -1.4,5.5 -0.7,2.4 -2.1,7 -3.1,10.3 -2.4,8.6 -3.1,11 -6.1,20.7 -2.6,8.3 -2.8,8.7 -5.8,9 -3.1,0.3 -3.1,0.3 -4,8.099995 -1.2,10.2 -0.2,12.7 5.2,12.7 4.5,0 6.2,-1.4 6.2,-5.2 l 0,-2.8 18,0 18,0 0,2.3 c 0,3.4 1.9,4.7 6.7,4.7 3.8,0 4.3,-0.3 4.9,-2.6 0.7,-2.8 -0.1,-14.799995 -1.1,-16.399995 -0.4,-0.6 -1.9,-1 -3.6,-1 -1.6,0 -3,-0.1 -3.1,-0.3 -0.1,-0.1 -0.5,-11 -0.8,-24.2 l -0.5,-24 -13.5,-0.3 c -9.7,-0.2 -13.9,0.1 -14.8,1 z m 17.2,10.4 c 0.3,0.9 0.6,9.4 0.6,18.9 0,19.8 0.7,18.5 -10,18.5 -9.7,0 -9.8,-0.4 -5.5,-15 1.7,-5.6 2.5,-8.5 4.5,-15.5 2,-7.1 3,-8.5 6.6,-8.5 2,0 3.4,0.6 3.8,1.6 z"
         id="path24-3"
         inkscape:connector-curvature="0"
         style="fill:#000000;stroke:none;fill-opacity:0.84705883" />
      <path
         d="m 766.26274,78.065255 0.3,34.299995 5.8,0.3 5.7,0.3 0,-28.599995 0,-28.5 9.4,0 c 8.9,0 9.4,0.1 10,2.2 0.3,1.3 0.6,14.1 0.6,28.6 l 0,26.299995 5.3,-0.3 5.2,-0.3 0,-33.999995 0,-34 -21.3,-0.3 -21.2,-0.2 0.2,34.2 z"
         id="path26-5"
         inkscape:connector-curvature="0"
         style="fill:#000000;stroke:none;fill-opacity:0.84705883" />
    </g>
    <path
       style="fill:#000000;stroke:none;fill-opacity:0.84705883"
       inkscape:connector-curvature="0"
       id="path30-0"
       d="m 936.63654,92.013275 c -6.01304,9.581275 -7.33465,12.620845 -7.79715,18.039225 -0.19827,2.9735 -0.66078,7.07032 -0.99119,9.05265 -0.33042,1.98233 -0.72682,5.88092 -0.99113,8.59011 l -0.39652,4.95583 3.56822,3.96466 3.56816,3.96467 3.76649,-3.63428 3.76643,-3.63428 0.66077,-6.47562 c 0.79293,-8.5901 1.718,-17.77491 2.31273,-22.66466 0.46251,-4.03074 0.39646,-4.09682 -2.64315,-8.788338 -1.65189,-2.577032 -3.23781,-4.691522 -3.50211,-4.691522 -0.33036,0 -0.92508,0.5947 -1.32155,1.321555 z">
      <title
         id="title4357">6.0.0</title>
    </path>
    <path
       style="fill:#000000;stroke:none;fill-opacity:0.84705883"
       inkscape:connector-curvature="0"
       id="path32-8"
       d="m 818.09309,93.136598 c -0.59471,0.660778 -2.64308,3.568198 -4.62542,6.475618 -3.36997,5.087984 -3.56821,5.550534 -4.03075,10.902824 -0.19823,3.10566 -0.72684,9.44912 -1.12332,14.20672 l -0.72685,8.5901 3.63427,3.43605 c 2.04841,1.91625 4.22899,3.50212 4.95582,3.50212 0.79293,0 2.24664,-1.32156 3.8325,-3.50212 2.31272,-3.10566 2.6431,-3.96467 3.03958,-8.72227 0.2643,-2.90741 0.72684,-8.25971 1.05724,-11.89399 0.33039,-3.63427 0.72684,-8.98657 0.99116,-11.89399 l 0.39646,-5.28622 -3.17172,-3.502122 c -3.03958,-3.369965 -3.23782,-3.50212 -4.22897,-2.31272 z">
      <title
         id="title4355">5.0.0</title>
    </path>
    <path
       style="fill:#000000;stroke:none;fill-opacity:0.84705883"
       inkscape:connector-curvature="0"
       id="path34-7"
       d="m 895.93266,95.581474 -3.10566,3.568198 -0.66078,7.136398 c -2.44486,26.23286 -2.70919,23.45759 2.51096,29.33851 l 2.64311,2.9735 3.63427,-3.56819 3.63429,-3.50213 0.46254,-5.41837 c 0.19824,-2.90742 0.66078,-7.00424 0.99117,-8.98657 0.33039,-1.98233 0.72682,-6.14523 0.99113,-9.25089 l 0.39647,-5.6166 -3.5021,-4.889756 c -1.91625,-2.709188 -3.8325,-5.02191 -4.22898,-5.154066 -0.39646,-0.132156 -2.11447,1.387634 -3.76642,3.369966 z">
      <title
         id="title4347">6.1.1</title>
    </path>
    <path
       style="fill:#000000;stroke:none;fill-opacity:0.84705883"
       inkscape:connector-curvature="0"
       id="path36-7"
       d="m 1019.9605,97.775868 c -3.7003,5.616612 -3.7663,5.682682 -4.6254,13.017312 -0.4625,4.09682 -1.1893,9.77951 -1.5858,12.75301 -0.9912,7.66501 -0.859,8.65618 1.1894,11.36537 3.0395,4.09682 4.295,5.41837 5.154,5.41837 0.4626,0 2.1145,-1.51979 3.7665,-3.30388 2.3788,-2.64311 3.0395,-3.89859 3.3699,-6.47562 0.1982,-1.71803 0.6608,-6.07915 1.0573,-9.71343 0.3964,-3.63428 1.0572,-8.39187 1.3876,-10.63852 0.9911,-6.60777 0.7268,-9.1848 -1.1894,-12.620846 -2.7092,-4.95583 -3.1057,-5.484453 -3.9647,-5.484453 -0.3964,0 -2.4448,2.577033 -4.5594,5.682687 z">
      <title
         id="title4359">7.0.0</title>
    </path>
    <path
       style="fill:#000000;stroke:none;fill-opacity:0.84705883"
       inkscape:connector-curvature="0"
       id="path38-0"
       d="m 981.76767,95.33099 c -2.511,2.577032 -2.57704,2.775266 -3.43607,10.1099 -0.46251,4.09682 -1.18939,9.97774 -1.58585,13.08339 -1.71807,13.47986 -1.91627,12.02615 1.718,16.84982 1.78411,2.31272 3.43607,4.29505 3.63427,4.29505 0.26431,0 1.91627,-1.58586 3.76643,-3.56819 2.18057,-2.44488 3.36996,-4.42721 3.70038,-6.14523 1.25549,-6.87209 2.51093,-16.18905 2.77523,-20.35195 0.26431,-4.49328 0.13229,-4.82367 -2.90739,-10.572436 -1.718,-3.237808 -3.56822,-6.013074 -4.09684,-6.14523 -0.59466,-0.06609 -2.18058,0.991166 -3.56816,2.444876 z">
      <title
         id="title4349">7.1.1</title>
    </path>
    <path
       style="fill:#000000;stroke:none;fill-opacity:0.84705883"
       inkscape:connector-curvature="0"
       id="path44-6"
       d="m 784.52562,139.19278 -3.5682,3.5682 1.98233,3.23781 1.98232,3.17173 9.58129,0.19824 9.58128,0.19823 3.43603,-3.83251 3.43605,-3.76643 -3.17175,-3.17173 -3.10564,-3.17174 -8.3258,0 -8.32579,0 -3.50212,3.5682 z">
      <title
         id="title4361">5.2.0</title>
    </path>
    <path
       style="fill:#000000;stroke:none;fill-opacity:0.84705883"
       inkscape:connector-curvature="0"
       id="path48-6"
       d="m 772.6977,147.65073 -4.03074,4.1629 -1.05724,10.90283 c -0.52863,6.01307 -1.25547,13.54593 -1.58587,16.78375 -0.66077,5.55052 -0.59471,6.01306 0.99116,9.05264 0.85902,1.7841 1.98234,3.23781 2.51097,3.23781 0.85899,0 2.44486,-1.65195 7.46677,-7.66501 2.9735,-3.63428 3.17173,-4.42722 4.82368,-20.74842 1.18939,-12.35653 1.25548,-12.02614 -1.85018,-16.12297 -1.58587,-2.0484 -2.90741,-3.70035 -2.9735,-3.70035 -0.0661,0 -1.98234,1.85018 -4.29505,4.09682 z">
      <title
         id="title4367">5.2.1</title>
    </path>
    <path
       style="fill:#000000;stroke:none;fill-opacity:0.84705883"
       inkscape:connector-curvature="0"
       id="path50-8"
       d="m 892.56269,148.97229 c -2.77527,3.10565 -4.4272,5.55053 -4.62544,6.806 -0.19824,1.05725 -0.79293,6.40954 -1.38762,11.894 -0.52863,5.41837 -1.18941,11.29929 -1.38765,13.0173 -0.2643,2.64312 0,3.76644 1.85019,7.1364 1.12332,2.18056 2.31271,3.96467 2.57703,3.96467 0.79294,0 8.65617,-8.85441 9.25088,-10.44028 0.3304,-0.79295 0.859,-4.49328 1.25548,-8.25972 0.39645,-3.70035 0.99117,-10.17597 1.45371,-14.40495 l 0.79293,-7.73109 -2.18057,-3.36996 c -1.18939,-1.85018 -2.44487,-3.36997 -2.70919,-3.36997 -0.26431,0 -2.51095,2.18057 -4.88975,4.7576 z">
      <title
         id="title4369">6.2.1</title>
    </path>
    <g
       transform="matrix(0.66077736,0,0,0.66077736,154.69723,59.724212)"
       id="g4663"
       style="fill:#000000;fill-opacity:0.84705883">
      <title
         id="title4351">4.0.0</title>
      <path
         d="m 875.26274,48.165255 c -3.3,4.1 -8.1,15.8 -8.6,21.2 -0.4,3.3 -1.1,8.5 -1.6,11.5 -0.5,3 -1.7,11.2 -2.6,18.1 l -1.7,12.599995 3.6,5.6 c 2,3.1 4.1,5.7 4.6,5.7 0.5,0 3.6,-2.6 6.9,-5.8 6.3,-6.1 6.4,-6.4 7.7,-18.199995 1.5,-13.7 3.4,-30.9 4,-35 0.7,-4.3 0.5,-4.7 -4.2,-10.2 -5.4,-6.3 -6.7,-7.2 -8.1,-5.5 z"
         id="path28-1"
         inkscape:connector-curvature="0"
         style="fill:#000000;stroke:none;fill-opacity:0.84705883" />
      <path
         d="m 864.36274,134.66525 c -2.6,2.1 -5.4,4.6 -6.1,5.4 -0.7,0.9 -1.7,6.2 -2.2,11.9 -0.6,5.7 -1.5,15.6 -2.1,21.9 -1,10.9 -0.6,17.2 1,19.5 0.4,0.5 1.5,3.1 2.5,5.7 0.9,2.5 2.4,4.9 3.2,5.2 1.6,0.6 10.7,-7.2 12.6,-10.7 1,-1.9 3.5,-27 4.5,-45.7 l 0.5,-10.6 -3.6,-3.2 c -2,-1.8 -4.1,-3.2 -4.5,-3.2 -0.5,0 -3.1,1.7 -5.8,3.8 z"
         id="path52-3"
         inkscape:connector-curvature="0"
         style="fill:#000000;stroke:none;fill-opacity:0.84705883" />
    </g>
    <path
       style="fill:#000000;stroke:none;fill-opacity:0.84705883"
       inkscape:connector-curvature="0"
       id="path54-0"
       d="m 977.20825,149.11827 -3.89858,3.43604 -0.92508,7.92933 c -0.4625,4.36114 -1.18938,10.17598 -1.58584,12.88515 -1.05724,7.73111 -0.85904,10.63852 0.99118,14.40496 0.92508,1.91624 1.98232,3.43604 2.31267,3.43604 0.66083,0 7.33465,-6.80601 8.9205,-9.05265 0.85903,-1.1894 1.71807,-7.33463 3.03961,-21.40919 l 0.72682,-7.73109 -2.18058,-3.70036 c -1.25543,-2.04841 -2.51093,-3.70035 -2.90739,-3.70035 -0.33035,0 -2.37878,1.58587 -4.49331,3.50212 z">
      <title
         id="title4371">7.2.1</title>
    </path>
    <path
       style="fill:#000000;stroke:none;fill-opacity:0.84705883"
       inkscape:connector-curvature="0"
       id="path56-9"
       d="m 928.70723,150.29384 c -3.76642,3.89859 -3.10565,1.32156 -5.88096,23.65583 l -0.99112,8.25972 2.84135,7.07032 c 1.65189,4.22898 3.1717,7.1364 3.70031,7.1364 1.18946,0 5.88096,-3.70036 6.73993,-5.28622 0.33042,-0.66078 0.92508,-4.09682 1.2555,-7.66502 0.39646,-3.63428 1.12334,-11.03498 1.65196,-16.45336 1.45369,-13.87633 1.51973,-13.08339 -1.98238,-16.84982 -1.71801,-1.85018 -3.30386,-3.30389 -3.50212,-3.30389 -0.26431,0 -1.98231,1.58587 -3.83247,3.43604 z">
      <title
         id="title4375">6.3.0</title>
    </path>
    <path
       style="fill:#000000;stroke:none;fill-opacity:0.84705883"
       inkscape:connector-curvature="0"
       id="path58-3"
       d="m 1014.9387,151.89353 c -3.37,2.84135 -4.5594,4.22898 -4.7576,5.81485 -0.793,4.88975 -2.3788,19.55901 -2.3788,22.20212 0,1.51979 -0.2643,3.36996 -0.6608,4.03073 -0.4626,0.9251 -0.066,2.57704 1.7841,6.87208 1.3216,3.10567 2.7092,5.68271 3.1717,5.68271 0.9251,0 4.8237,-2.84134 6.9382,-5.088 1.7841,-1.98233 1.5198,-0.39647 4.6254,-29.00812 l 0.859,-7.26856 -2.5109,-3.43604 c -1.3216,-1.91625 -2.511,-3.43604 -2.577,-3.43604 -0.066,0 -2.1146,1.65194 -4.4933,3.63427 z">
      <title
         id="title4377">7.3.0</title>
    </path>
    <g
       transform="matrix(0.66077736,0,0,0.66077736,154.69723,59.724212)"
       id="g4667"
       style="fill:#000000;fill-opacity:0.84705883">
      <title
         id="title4353">5.0.1</title>
      <path
         d="m 1050.9627,76.565255 c -1.4,0.3 -1.8,2.4 -2.4,10.4 -0.4,5.5 -0.4,10.3 0,10.7 0.3,0.4 5.7,0.8 11.9,1 9.1,0.3 11.5,0.1 12.5,-1.2 0.8,-0.9 1.3,-5.1 1.4,-11.3 l 0.2,-9.8 -11,-0.1 c -6,-0.1 -11.7,0 -12.6,0.3 z"
         id="path40-2"
         inkscape:connector-curvature="0"
         style="fill:#000000;stroke:none;fill-opacity:0.84705883" />
      <path
         d="m 1042.4627,150.66525 c -0.7,0.4 -1.3,4.7 -1.5,10.7 l -0.4,10 12.5,0 12.5,0 1.4,-9.1 c 0.8,-5 1.1,-9.9 0.8,-10.8 -0.5,-1.3 -2.5,-1.6 -12.4,-1.6 -6.5,0 -12.3,0.4 -12.9,0.8 z"
         id="path62-2"
         inkscape:connector-curvature="0"
         style="fill:#000000;stroke:none;fill-opacity:0.84705883" />
    </g>
    <path
       style="fill:#000000;stroke:none;fill-opacity:0.84705883"
       inkscape:connector-curvature="0"
       id="path66"
       d="m 778.6447,188.88323 c -2.97351,3.43606 -4.69152,6.01309 -4.49328,6.60779 0.79293,2.04841 4.55935,2.70918 17.57667,3.10566 7.07032,0.13215 13.28163,0.19823 13.74417,0 1.32156,-0.52862 0.85902,-2.18057 -2.37879,-8.78835 l -3.10566,-6.27738 -8.25972,-0.19824 -8.25971,-0.13216 -4.82368,5.6827 z">
      <title
         id="title4379">5.3.1</title>
    </path>
    <path
       style="fill:#000000;stroke:none;fill-opacity:0.84705883"
       inkscape:connector-curvature="0"
       id="path68"
       d="m 898.04715,189.27971 c -2.84136,3.03958 -5.22015,5.74877 -5.22015,6.07916 0,0.33039 0.79293,1.25547 1.85018,2.11449 1.71802,1.51978 2.04841,1.58586 14.66924,1.58586 7.07035,0 13.28166,-0.26431 13.81027,-0.5947 0.79293,-0.52862 0.52862,-1.7841 -1.65196,-7.46679 l -2.57703,-6.80602 -7.86327,-0.19822 -7.79714,-0.19824 -5.22014,5.48446 z">
      <title
         id="title4381">6.3.1</title>
    </path>
    <path
       style="fill:#000000;stroke:none;fill-opacity:0.84705883"
       inkscape:connector-curvature="0"
       id="path72-8"
       d="m 981.50336,189.42569 c -4.69157,4.69153 -4.75761,4.88976 -3.63427,6.14524 3.03954,3.43603 3.70031,3.56819 16.45335,3.56819 9.18476,0 12.15826,-0.19824 12.75296,-0.859 0.5286,-0.66078 0.066,-2.44488 -1.9823,-7.26857 l -2.7092,-6.40954 -8.06146,0 -8.06153,0 -4.75755,4.82368 z">
      <title
         id="title4383">7.3.1</title>
    </path>
    <path
       style="fill:#000000;stroke:none;fill-opacity:0.84705883"
       inkscape:connector-curvature="0"
       id="path34-8"
       d="m 776.05867,95.578208 -3.10565,3.568198 -0.66078,7.136394 c -2.44488,26.23287 -2.70918,23.4576 2.51095,29.33852 l 2.64312,2.9735 3.63428,-3.5682 3.63427,-3.50212 0.46254,-5.41837 c 0.19823,-2.90742 0.66077,-7.00425 0.99116,-8.98658 0.3304,-1.98233 0.72687,-6.14523 0.99117,-9.25088 l 0.39646,-5.61661 -3.50212,-4.889752 c -1.91625,-2.709188 -3.83251,-5.02191 -4.22896,-5.154065 -0.39648,-0.132156 -2.11449,1.387633 -3.76644,3.369965 z">
      <title
         id="title4345">5.1.1</title>
    </path>
    <path
       style="fill:#000000;stroke:none;fill-opacity:0.84705883"
       inkscape:connector-curvature="0"
       id="path56-3"
       d="m 810.92007,150.19549 c -3.76644,3.89859 -3.10566,1.32156 -5.88093,23.65582 l -0.99115,8.25972 2.84134,7.07032 c 1.65194,4.22899 3.17172,7.13641 3.70035,7.13641 1.18939,0 5.88093,-3.70035 6.73994,-5.28622 0.33038,-0.66079 0.9251,-4.09683 1.25547,-7.66503 0.39647,-3.63428 1.12332,-11.03497 1.65195,-16.45335 1.45371,-13.87633 1.5198,-13.08339 -1.98232,-16.84982 -1.71804,-1.85018 -3.30392,-3.30389 -3.50214,-3.30389 -0.26432,0 -1.98234,1.58587 -3.83251,3.43604 z">
      <title
         id="title4373">5.3.0</title>
    </path>
    <path
       style="fill:#000000;stroke:none;fill-opacity:0.84705883"
       inkscape:connector-curvature="0"
       id="path44-0"
       d="m 904.33966,139.20735 -3.56819,3.5682 1.98232,3.23781 1.98234,3.17174 9.5813,0.19823 9.58127,0.19823 3.43601,-3.83251 3.43607,-3.76643 -3.17177,-3.17173 -3.10565,-3.17174 -8.32578,0 -8.32584,0 -3.50208,3.5682 z">
      <title
         id="title4363">6.2.0</title>
    </path>
    <path
       style="fill:#000000;stroke:none;fill-opacity:0.84705883"
       inkscape:connector-curvature="0"
       id="path44-0-1"
       d="m 988.53915,139.27712 -3.73011,3.56819 2.07228,3.23782 2.07229,3.17173 10.016,0.19823 10.01599,0.19823 3.5919,-3.83251 3.592,-3.76643 -3.3156,-3.17173 -3.2466,-3.17173 -8.7036,0 -8.70348,0 -3.66107,3.5682 z">
      <title
         id="title4365">7.2.0</title>
    </path>
    <g
       transform="matrix(1.1380912,0,0,1.1380913,577.58597,-222.33852)"
       id="g4486"
       style="fill:#000000;fill-opacity:0.84705883">
      <title
         id="title4337">1.2.0</title>
      <path
         d="m 30,348.5 0,20.5 3,0 3,0 0,-17.5 0,-17.5 6,0 6,0 0.2,17.7 0.3,17.8 3,0 3,0 0.3,-20.8 0.2,-20.7 -12.5,0 -12.5,0 0,20.5 z"
         id="path120-1"
         inkscape:connector-curvature="0"
         style="fill:#000000;stroke:none;fill-opacity:0.84705883" />
      <path
         d="m 63,348.5 0,20.5 3,0 3,0 0,-17.5 0,-17.5 6,0 6,0 0,18 0,18 3,0 3,0 0,-21 0,-21 -12,0 -12,0 0,20.5 z"
         id="path122-6"
         inkscape:connector-curvature="0"
         style="fill:#000000;stroke:none;fill-opacity:0.84705883" />
    </g>
    <g
       transform="matrix(0.74897176,0,0,0.74897176,302.85872,-68.435998)"
       id="g4652"
       style="fill:#000000;fill-opacity:0.84705883">
      <title
         id="title4391">2.2.0</title>
      <path
         d="m 122.76274,925.56525 c -0.4,0.3 -0.7,11.8 -0.7,25.3 0,27 0.1,27.5 5.7,26.8 2.8,-0.3 2.8,-0.4 3.3,-8.3 l 0.5,-8 5.5,-0.5 c 11.2,-1 16,-6.6 16,-18.6 0,-5.7 -0.4,-7.2 -2.6,-10.2 -3.9,-5.1 -9.4,-7.2 -19,-7.2 -4.4,0 -8.4,0.3 -8.7,0.7 z m 18.2,12.9 c 4.7,6 1.2,13.8 -5.9,13.2 -4.1,-0.3 -4.6,-1.9 -3.5,-10.5 0.6,-5.2 0.7,-5.3 4,-5.3 2.4,0 3.9,0.7 5.4,2.6 z"
         id="path224-2"
         inkscape:connector-curvature="0"
         style="fill:#000000;stroke:none;fill-opacity:0.84705883" />
      <path
         d="m 98.362738,926.56525 c -7.1,0.3 -10.3,0.7 -10.4,1.6 -0.7,5.6 0.5,47.5 1.4,48.5 0.6,0.7 2.4,1.2 4.1,1 l 3.1,-0.3 0.6,-18.5 c 0.4,-10.2 0.7,-19.5 0.8,-20.8 0.1,-2.1 0.5,-2.2 8.500002,-2.2 8.9,0 9.6,-0.4 9.6,-5.4 0,-3 -1.9,-4.6 -4.9,-4.4 -1.5,0.1 -7.2,0.4 -12.800002,0.5 z"
         id="path226-8"
         inkscape:connector-curvature="0"
         style="fill:#000000;stroke:none;fill-opacity:0.84705883" />
      <path
         d="m 167.06274,928.46525 c -0.6,1.4 -1.5,4.7 -2.1,7.2 -1.8,7.8 -9,33.5 -10,36 -1.7,4.4 -1.2,5.2 3.4,5.2 4.1,0 4.2,-0.1 5.7,-4.8 l 1.6,-4.7 7.1,-0.3 7.1,-0.3 1.7,5.1 1.7,5 4.4,0 c 2.4,0 4.4,-0.4 4.4,-0.9 0,-0.5 -1.9,-6.9 -4.3,-14.2 -6.5,-19.9 -7.7,-24 -7.7,-25.5 0,-0.8 -0.4,-2.2 -0.9,-3.2 -0.5,-0.9 -1.4,-2.9 -2,-4.5 -0.9,-2.3 -1.6,-2.7 -5.1,-2.7 -3.4,0 -4.2,0.4 -5,2.6 z m 8.1,24.3 c 0.9,2.7 1.4,5.2 1.1,5.5 -0.7,0.8 -6.7,0.8 -7.4,0.1 -0.5,-0.5 0.3,-3.5 2.8,-10.4 0.6,-2 1.5,-0.8 3.5,4.8 z"
         id="path228-6"
         inkscape:connector-curvature="0"
         style="fill:#000000;stroke:none;fill-opacity:0.84705883" />
      <path
         d="m 49.262738,951.56525 0.3,24.8 4.7,0.3 4.6,0.3 5.7,-11.5 c 3.2,-6.4 6.1,-11.6 6.6,-11.6 0.5,0 1,5.3 1.1,11.7 l 0.3,11.8 3.5,0 3.5,0 0.7,-24 c 0.4,-13.2 0.5,-24.6 0.3,-25.3 -0.3,-0.9 -1.8,-1.2 -4.2,-1 l -3.7,0.3 -6.1,13.7 c -3.3,7.6 -6.4,13.8 -6.9,13.8 -0.5,0 -0.6,-5.2 -0.3,-12.5 0.4,-6.8 0.4,-13.1 0.1,-14 -0.4,-1.1 -2,-1.5 -5.5,-1.5 l -4.9,0 0.2,24.7 z"
         id="path230-6"
         inkscape:connector-curvature="0"
         style="fill:#000000;stroke:none;fill-opacity:0.84705883" />
      <path
         d="m 227.04756,919.48476 c -2.04229,5.95669 -16.16817,54.97177 -16.16817,56.16312 0,0.68075 2.72306,1.36153 5.9567,1.36153 4.93554,0 6.12688,-0.68078 6.97784,-4.2548 0.85094,-3.7442 1.87211,-4.25477 9.02014,-4.25477 6.97783,0 8.33937,0.51057 10.04128,4.25477 1.53172,3.40384 3.23363,4.2548 7.99899,4.2548 3.7442,0 5.95669,-0.85096 5.7865,-2.21249 0,-1.02114 -4.76535,-14.29607 -10.72205,-29.2729 -8.84995,-22.46525 -11.40281,-27.4008 -14.46626,-27.74118 -1.8721,-0.34038 -3.91439,0.51058 -4.42497,1.70192 z m 11.06243,37.44208 c 0,0.85096 -2.55286,1.36153 -5.7865,1.36153 l -5.7865,0 2.72306,-6.97785 2.72306,-6.97783 2.89325,5.78649 c 1.70192,3.06344 3.06344,6.12689 3.23363,6.80766 z"
         id="path70-9"
         inkscape:connector-curvature="0"
         style="fill:#000000;stroke:none;fill-opacity:0.84705883" />
    </g>
    <g
       transform="matrix(0.77268016,0,0,0.77268016,-84.055281,-93.404538)"
       id="g4641"
       style="fill:#000000;fill-opacity:0.84705883">
      <title
         id="title4393">0.1.1</title>
      <path
         d="m 1509.0627,949.16525 c 0,19.9 0.3,27.6 1.2,28.5 0.8,0.8 5.6,1.2 14.8,1.2 l 13.6,0 3.9,-4.7 c 3.3,-4 4,-5.5 4.3,-10.4 0.3,-4.5 -0.1,-6.8 -1.7,-10.3 -2.8,-5.6 -6.1,-7.2 -16.8,-8.1 l -8.3,-0.8 0,-5.7 c 0,-3.5 0.5,-6.2 1.3,-6.8 0.7,-0.6 5.3,-1.2 10.3,-1.4 l 8.9,-0.3 0.3,-4.3 0.3,-4.2 -16,0 -16.1,0 0,27.3 z m 24.9,7.3 c 2.8,3.6 2.7,7.9 -0.4,10.9 -2,2.1 -3.4,2.5 -8,2.5 l -5.5,0 0,-8 0,-8 5.9,0 c 5.2,0 6.2,0.3 8,2.6 z"
         id="path222"
         inkscape:connector-curvature="0"
         style="fill:#000000;stroke:none;fill-opacity:0.84705883" />
      <path
         d="m 1347.2627,928.66525 c -0.9,0.7 -1.2,6.4 -1,25.3 l 0.3,24.4 4.1,0.3 c 4.1,0.3 4.2,0.2 8.3,-6.2 2.2,-3.6 4.1,-7 4.1,-7.5 0,-0.4 0.7,-1.4 1.5,-2.1 1.2,-1 1.5,0 1.7,7.2 l 0.3,8.3 4.6,0.3 4.6,0.3 0.7,-24.1 c 0.4,-13.2 0.4,-24.5 0.1,-25 -0.4,-0.6 -1.9,-1 -3.5,-1 -3.3,0 -3.1,-0.2 -10.2,14.4 -2.6,5.5 -5.2,10.4 -5.7,10.9 -0.7,0.7 -0.8,-3 -0.4,-11.1 0.4,-9.1 0.3,-12.5 -0.7,-13.7 -1.3,-1.6 -6.6,-2 -8.8,-0.7 z"
         id="path232-5"
         inkscape:connector-curvature="0"
         style="fill:#000000;stroke:none;fill-opacity:0.84705883" />
      <path
         d="m 1424.5627,928.56525 c -3.3,0.2 -6.4,0.8 -6.9,1.3 -0.4,0.4 -0.5,11.7 -0.1,24.9 l 0.8,24.1 4.2,0 c 5.1,0 5.5,-0.7 5.5,-9 l 0,-5.9 5.3,-1 c 10.7,-2.3 15,-7.6 15,-18.7 -0.1,-9.9 -1.8,-12.8 -8.7,-14.8 -3,-0.9 -6.2,-1.5 -7.3,-1.4 -1,0.1 -4.5,0.3 -7.8,0.5 z m 11.9,11.7 c 5.5,5.1 1.6,14.1 -5.8,13.4 l -3,-0.3 0.3,-6.5 c 0.1,-3.6 0.7,-7.1 1.3,-7.7 1.6,-2 4.4,-1.5 7.2,1.1 z"
         id="path234-8"
         inkscape:connector-curvature="0"
         style="fill:#000000;stroke:none;fill-opacity:0.84705883" />
      <path
         d="m 1384.4627,930.16525 c -0.2,0.7 -0.3,11.8 -0.2,24.7 l 0.3,23.5 4,0 4,0 0.3,-19 c 0.2,-13.6 0.6,-19.1 1.5,-19.7 0.6,-0.4 4.2,-0.8 8,-0.8 6.2,0 6.8,-0.2 7.9,-2.5 0.8,-1.9 0.8,-3.1 0,-5 -1.1,-2.5 -1.3,-2.5 -13.2,-2.5 -8.8,0 -12.2,0.3 -12.6,1.3 z"
         id="path236"
         inkscape:connector-curvature="0"
         style="fill:#000000;stroke:none;fill-opacity:0.84705883" />
      <path
         d="m 1463.8627,930.06525 c -0.9,0.7 -2.6,5.1 -3.8,9.8 -4.2,16.1 -4.8,18.5 -7.4,26.9 -3.6,11.7 -3.6,12.1 1.8,12.1 4.7,0 6,-1 7,-5.2 0.5,-2.4 1.2,-2.7 6.3,-3.4 3.2,-0.4 5.9,-0.3 6.1,0.2 0.1,0.5 1.1,2.5 2,4.4 1.6,3.3 2,3.5 6.7,3.5 2.8,0 4.9,-0.4 4.8,-1 -0.1,-0.6 -1.3,-5.5 -2.8,-11 -3.2,-11.9 -5.2,-20.2 -6.6,-27 -1.2,-5.4 -2.6,-8.6 -4.3,-9.7 -1.8,-1.2 -8.1,-0.9 -9.8,0.4 z m 8.2,30.5 c 0,0.8 -1.3,1.3 -3.5,1.3 -1.9,0 -3.5,-0.3 -3.5,-0.7 0,-0.4 0.8,-3.3 1.7,-6.4 l 1.7,-5.7 1.8,5.1 c 1,2.8 1.8,5.7 1.8,6.4 z"
         id="path238"
         inkscape:connector-curvature="0"
         style="fill:#000000;stroke:none;fill-opacity:0.84705883" />
    </g>
  </g>
</svg>
