<?xml version="1.0" encoding="UTF-8" standalone="no"?>
<svg
   xmlns:dc="http://purl.org/dc/elements/1.1/"
   xmlns:cc="http://creativecommons.org/ns#"
   xmlns:rdf="http://www.w3.org/1999/02/22-rdf-syntax-ns#"
   xmlns:svg="http://www.w3.org/2000/svg"
   xmlns="http://www.w3.org/2000/svg"
   xmlns:sodipodi="http://sodipodi.sourceforge.net/DTD/sodipodi-0.dtd"
   xmlns:inkscape="http://www.inkscape.org/namespaces/inkscape"
   height="2280.000000pt"
   id="svg104"
   preserveAspectRatio="xMidYMid meet"
   version="1.0"
   viewBox="0 0 3189.000000 2280.000000"
   width="3189.000000pt"
   sodipodi:docname="gnw_flagman.svg"
   inkscape:export-filename="/home/hal/development/gnw/flagman/flagman.svg.png"
   inkscape:export-xdpi="23.120001"
   inkscape:export-ydpi="23.120001"
   inkscape:version="0.92.4 (5da689c313, 2019-01-14)">
  <defs
     id="defs108" />
  <sodipodi:namedview
     bordercolor="#666666"
     borderopacity="1"
     gridtolerance="10"
     guidetolerance="10"
     id="namedview106"
     objecttolerance="10"
     pagecolor="#ffffff"
     showgrid="false"
     inkscape:current-layer="layer1"
     inkscape:cx="1252.881"
     inkscape:cy="1674.2587"
     inkscape:pageopacity="0"
     inkscape:pageshadow="2"
     inkscape:snap-page="true"
     inkscape:window-height="1017"
     inkscape:window-maximized="1"
     inkscape:window-width="1920"
     inkscape:window-x="-8"
     inkscape:window-y="-8"
     inkscape:zoom="0.20271947"
     inkscape:pagecheckerboard="true"
     borderlayer="true"
     inkscape:showpageshadow="false" />
  <metadata
     id="metadata2">
Created by potrace 1.14, written by Peter Selinger 2001-2017
<rdf:RDF>
  <cc:Work
     rdf:about="">
    <dc:format>image/svg+xml</dc:format>
    <dc:type
       rdf:resource="http://purl.org/dc/dcmitype/StillImage" />
    <dc:title></dc:title>
  </cc:Work>
</rdf:RDF>
</metadata>
  <g
     id="layer2"
     style="display:inline"
     inkscape:groupmode="layer"
     inkscape:label="white"
     sodipodi:insensitive="true">
    <rect
       height="2365.0928"
       id="rect917"
       style="fill:#ffffff;fill-opacity:1;stroke-width:0.77486557"
       width="3281.4922"
       x="-44.396328"
       y="-36.996941" />
  </g>
  <g
     id="layer1"
     inkscape:groupmode="layer"
     inkscape:label="segs">
    <g
       id="g1334"
       style="fill:#000000;fill-opacity:0.84705883">
      <title
         id="title1000">6.1.1</title>
      <desc
         id="desc1356">h2o26</desc>
      <path
         d="m 1988.3,289.6 c -4.9,2.4 -8.3,6 -8.3,8.7 0,2.5 2.2,5.7 11.2,16.7 l 5.4,6.5 h 30.5 30.5 l 7.5,-6.5 c 4.1,-3.6 9.1,-7.8 11.2,-9.4 7.4,-5.4 7.2,-8.8 -0.7,-12.8 -8,-4.1 -13.5,-4.6 -49.6,-4.7 -29.5,0 -35,0.2 -37.7,1.5 z"
         id="path6"
         style="fill:#000000;stroke:none;stroke-width:0.1;fill-opacity:0.84705883"
         inkscape:connector-curvature="0" />
    </g>
    <g
       id="g1313"
       style="fill:#000000;fill-opacity:0.84705883">
      <title
         id="title1001">5.1.1</title>
      <desc
         id="desc1354">h2o25</desc>
      <path
         d="m 1709.8,292.7 c -5.6,5.7 -5.2,7.5 4,18.5 4.4,5.1 8.5,9.8 9.3,10.5 1.5,1.2 8.1,1.5 40,1.4 l 18.5,-0.1 6.1,-4 c 3.3,-2.1 7.1,-5.3 8.4,-7.1 1.3,-1.7 4.3,-5 6.7,-7.3 2.3,-2.3 4.2,-4.9 4.2,-5.8 0,-1.6 -5.5,-5.8 -10.5,-8 -2.2,-0.9 -13.2,-1.3 -43,-1.6 l -40,-0.3 z"
         id="path8"
         style="fill:#000000;stroke:none;stroke-width:0.1;fill-opacity:0.84705883"
         inkscape:connector-curvature="0" />
    </g>
    <g
       id="g1278"
       style="fill:#000000;fill-opacity:0.84705883">
      <title
         id="title1002">4.1.1</title>
      <desc
         id="desc1302">h2o24</desc>
      <path
         d="m 1349,291.1 c -3.1,1.3 -9,6.9 -9,8.5 0,1.6 8.1,13.4 13.4,19.7 l 4.1,4.8 29.5,-0.3 29.5,-0.3 4.6,-2.7 c 2.5,-1.5 5.4,-3.9 6.3,-5.3 1,-1.5 4.8,-5.5 8.4,-9 l 6.7,-6.3 -2,-2.2 c -1.1,-1.2 -4.5,-3.4 -7.5,-4.9 l -5.5,-2.6 -38,-0.2 c -24.1,-0.1 -38.9,0.1 -40.5,0.8 z"
         id="path10"
         style="fill:#000000;stroke:none;stroke-width:0.1;fill-opacity:0.84705883"
         inkscape:connector-curvature="0" />
    </g>
    <g
       id="g1420"
       style="fill:#000000;fill-opacity:0.84705883">
      <title
         id="title1003">2.0.1</title>
      <desc
         id="desc1422">h2o12</desc>
      <path
         d="m 615.6,298.7 c -0.1,0.2 -71.7,0.5 -159.1,0.8 -101.4,0.3 -159.2,0.8 -159.9,1.5 -1.4,1.4 -2.6,29.4 -1.5,33.6 0.6,1.9 0.8,3.8 0.5,4.3 -0.6,0.9 -0.7,19.7 -0.7,103.6 0,25.3 -0.2,77.5 -0.4,116 -0.2,38.5 -0.4,70.4 -0.4,71 0,0.5 0.3,5.8 0.5,11.7 l 0.6,10.8 8.6,0.1 c 36.5,0.2 338.3,-0.6 338.9,-1 1.2,-0.7 1.6,-14 1.4,-52.1 -0.1,-25 -0.2,-46.4 -0.2,-47.5 0.3,-32.6 1.1,-127.6 1,-129 0,-3.4 0,-46.7 0.1,-75.5 0.2,-46.3 0.1,-48 -1.2,-48.1 -2.2,-0.3 -27.9,-0.4 -28.2,-0.2 z m -107.5,43.9 c 1.5,0.7 3,2.1 3.3,3 0.9,2.2 0.8,261.7 0,265.2 -1.3,5.4 -2.7,6 -13.2,6 -5.3,0 -15.8,0.1 -23.3,0.3 -15.1,0.2 -17.2,-0.4 -18.7,-5.3 -0.7,-2.1 -1,-35.4 -1,-92.1 0,-98.5 0.5,-91.7 -6.5,-93.1 -3.2,-0.7 -21.7,-1.5 -42.7,-1.9 -10.2,-0.2 -11.9,-0.5 -14.8,-2.5 -4,-2.9 -4.6,-5.2 -4,-15.5 0.5,-7.9 0.6,-8.2 4.3,-11.4 2.1,-1.8 5.4,-3.5 7.4,-3.8 8.1,-1.3 13.8,-2.8 17.1,-4.6 1.9,-1 6,-2.8 9,-4 3,-1.3 6.7,-3.1 8.1,-4.1 1.5,-1 4.7,-2.7 7.3,-3.8 2.5,-1 4.6,-2.3 4.6,-2.7 0,-0.5 2.1,-3.3 4.8,-6.2 2.6,-3 7.2,-9.5 10.2,-14.5 l 5.6,-9.1 5.9,-0.5 c 13.4,-1.1 33.9,-0.8 36.6,0.6 z"
         id="path12"
         style="fill:#000000;stroke:none;stroke-width:0.1;fill-opacity:0.84705883"
         inkscape:connector-curvature="0" />
    </g>
    <g
       id="g1316"
       style="fill:#000000;fill-opacity:0.84705883">
      <title
         id="title1004">5.1.0</title>
      <desc
         id="desc1358">h1o25</desc>
      <path
         d="m 1689.5,310.1 c -4.4,5.3 -6.6,10.6 -7.6,18.7 -0.5,4.2 -1.4,9.9 -1.9,12.7 -0.5,2.7 -0.9,7.8 -0.9,11.2 -0.1,3.4 -0.8,8.4 -1.7,11 -1.7,5 -1.3,14.8 0.8,18.7 1.3,2.3 9.8,11.6 10.7,11.6 1.7,0 13,-9.5 16.7,-13.9 3.9,-4.6 4.3,-5.7 5.3,-13.8 0.7,-4.8 1.8,-13.3 2.6,-18.8 2.4,-16.2 2.8,-14.8 -7.2,-27.6 -4.8,-6.2 -11.6,-12.9 -13.1,-12.9 -0.6,0 -2.2,1.4 -3.7,3.1 z"
         id="path14"
         style="fill:#000000;stroke:none;stroke-width:0.1;fill-opacity:0.84705883"
         inkscape:connector-curvature="0" />
    </g>
    <g
       id="g1337"
       style="fill:#000000;fill-opacity:0.84705883">
      <title
         id="title1005">6.1.0</title>
      <desc
         id="desc1360">h1o26</desc>
      <path
         d="m 1964.7,309.5 c -4.1,4.4 -7.8,13.1 -8.3,19.2 -0.3,3.2 -0.9,8.7 -1.4,12.3 -0.5,3.6 -1.7,13.1 -2.6,21.2 -2,17.1 -1.8,18 5.7,25.4 4.9,4.8 4.9,4.8 7.7,3.2 4.8,-2.8 16,-13.2 17.5,-16.3 0.8,-1.7 1.8,-6.6 2.1,-11 0.4,-4.4 1.4,-11.5 2.2,-15.9 2.9,-16.3 2.1,-19.5 -7.8,-29.1 -2.9,-2.8 -6.6,-6.6 -8.2,-8.3 -1.6,-1.8 -3.3,-3.2 -3.7,-3.2 -0.5,0 -1.9,1.1 -3.2,2.5 z"
         id="path16"
         style="fill:#000000;stroke:none;stroke-width:0.1;fill-opacity:0.84705883"
         inkscape:connector-curvature="0" />
    </g>
    <g
       id="g1275"
       style="fill:#000000;fill-opacity:0.84705883">
      <title
         id="title1006">4.1.0</title>
      <desc
         id="desc1300">h1o24</desc>
      <path
         d="m 1323.1,311.6 c -4.1,5.1 -6.8,13.2 -8.1,24.9 -0.6,5.5 -1.5,12.7 -2,16 -1.8,11.4 -2.3,28.1 -1,30.6 1.5,2.9 10.1,11.9 11.3,11.9 0.5,0 3.3,-2.4 6.2,-5.3 2.9,-2.8 7.3,-7.1 9.9,-9.5 4,-3.8 4.6,-4.9 4.6,-8.5 0,-2.3 0.5,-6 0.9,-8.2 0.5,-2.2 1.5,-10.5 2.1,-18.3 l 1.1,-14.4 -4.8,-5.3 c -2.6,-2.9 -7.2,-8 -10.1,-11.4 -2.9,-3.3 -5.7,-6.1 -6.2,-6.1 -0.5,0 -2.2,1.6 -3.9,3.6 z"
         id="path18"
         style="fill:#000000;stroke:none;stroke-width:0.1;fill-opacity:0.84705883"
         inkscape:connector-curvature="0" />
    </g>
    <g
       id="g1319"
       style="fill:#000000;fill-opacity:0.84705883">
      <title
         id="title1007">5.0.1</title>
      <desc
         id="desc1362">h2o15</desc>
      <path
         d="m 1816.3,314.2 c -17.2,14.7 -21.3,19.1 -22.8,24.2 -1.9,6.7 -4.7,37.3 -3.7,40.9 1.1,4.1 11.3,15.6 13.8,15.6 1.3,0.1 5.2,-2.8 10.3,-7.7 7.6,-7.1 8.3,-8.1 8.7,-12.2 0.4,-4.1 1.5,-13.5 4.4,-37 1.8,-14.7 1,-19.7 -3.8,-25.3 -2,-2.3 -2.5,-2.2 -6.9,1.5 z"
         id="path20"
         style="fill:#000000;stroke:none;stroke-width:0.1;fill-opacity:0.84705883"
         inkscape:connector-curvature="0" />
    </g>
    <g
       id="g1340"
       style="fill:#000000;fill-opacity:0.84705883">
      <title
         id="title1008">6.0.1</title>
      <desc
         id="desc1364">h2o16</desc>
      <path
         d="m 2083.6,320.5 c -15.3,13.8 -15.6,14.3 -16.6,26.7 -0.5,5.7 -1.4,14.9 -2.1,20.5 l -1.2,10.2 4.6,6.9 c 4.8,7.2 8.9,10.8 10.9,9.6 0.6,-0.4 4.5,-4 8.7,-8 l 7.7,-7.3 1.7,-14.8 c 1,-8.1 2.2,-17.3 2.7,-20.3 2,-12.6 2.3,-23.6 0.6,-26.8 -1.7,-3.4 -4.3,-6.2 -5.6,-6.2 -0.5,0 -5.6,4.3 -11.4,9.5 z"
         id="path22"
         style="fill:#000000;stroke:none;stroke-width:0.1;fill-opacity:0.84705883"
         inkscape:connector-curvature="0" />
    </g>
    <g
       id="g1272"
       style="fill:#000000;fill-opacity:0.84705883">
      <title
         id="title1009">4.0.1</title>
      <desc
         id="desc1292">h2o14</desc>
      <path
         d="m 1451.4,314.3 c -0.6,0.7 -4.6,4.3 -8.9,8.2 -10.6,9.5 -11.2,10 -12.8,12.7 -1.8,2.9 -4.3,17.6 -5.6,33.2 -0.9,9.7 -0.8,12.3 0.4,14.5 2,3.7 11.9,14.1 13.4,14.1 0.7,0 4.9,-3.6 9.2,-8 8.9,-9 9.1,-9.5 10.8,-27.5 0.5,-5.5 1.7,-16.3 2.6,-23.9 0.9,-7.6 1.4,-14.9 1.1,-16.2 -0.8,-3.2 -5.5,-8.4 -7.4,-8.4 -1,0.1 -2.2,0.6 -2.8,1.3 z"
         id="path24"
         style="fill:#000000;stroke:none;stroke-width:0.1;fill-opacity:0.84705883"
         inkscape:connector-curvature="0" />
    </g>
    <g
       id="g1477"
       style="fill:#000000;fill-opacity:0.84705883">
      <title
         id="title1010">7.0.1</title>
      <desc
         id="desc1479">h2o17</desc>
      <path
         d="m 2792.7,313.7 c -0.1,0 -39.3,0.3 -87,0.5 -74.7,0.3 -87,0.6 -87.7,1.8 -0.5,0.8 -1,8.5 -1.1,17 -0.1,18 -0.1,13.6 0,50.5 0,15.9 0,69.9 0,119.9 -0.1,62.9 0.3,91.2 1,91.9 0.7,0.7 39.2,1 126.8,1 126.3,-0.2 149.7,-0.6 151.1,-2.7 1,-1.6 1.2,-275.6 0.1,-278.4 l -0.9,-2.3 -51.1,0.3 c -28.1,0.2 -51.1,0.4 -51.2,0.5 z"
         id="path26"
         style="fill:#000000;stroke:none;stroke-width:0.1;fill-opacity:0.84705883"
         inkscape:connector-curvature="0" />
    </g>
    <g
       id="g1343"
       style="fill:#000000;fill-opacity:0.84705883">
      <title
         id="title1011">6.2.1</title>
      <desc
         id="desc1368">h2o36</desc>
      <path
         d="m 1996.3,388.1 c -2.8,1 -16.6,12.2 -19.2,15.5 -2.5,3.2 -2.1,3.9 5.3,11.6 l 5.6,5.8 11.2,0.2 c 6.2,0.1 20.1,0 30.8,-0.1 l 19.5,-0.3 4,-3.6 c 6.6,-6 11.5,-12.2 11.5,-14.6 0,-2.9 -7.6,-12 -11.7,-14 -2.6,-1.4 -7.3,-1.6 -29,-1.5 -14.2,0.1 -26.8,0.5 -28,1 z"
         id="path32"
         style="fill:#000000;stroke:none;stroke-width:0.1;fill-opacity:0.84705883"
         inkscape:connector-curvature="0" />
    </g>
    <g
       id="g1322"
       style="fill:#000000;fill-opacity:0.84705883">
      <title
         id="title1012">5.2.1</title>
      <desc
         id="desc1366">h2o35</desc>
      <path
         d="m 1722.5,388.9 c -5.6,1.4 -21.5,15.2 -21.5,18.8 0,1.6 9.2,11.4 12.3,13 2.7,1.3 7.2,1.6 31.5,1.4 20.5,-0.1 29,-0.5 30.6,-1.4 3.9,-2 14.4,-12.1 15.6,-14.9 1.4,-3.1 1,-3.8 -6.5,-12 l -5,-5.3 -27,-0.1 c -14.8,-0.1 -28.4,0.1 -30,0.5 z"
         id="path34"
         style="fill:#000000;stroke:none;stroke-width:0.1;fill-opacity:0.84705883"
         inkscape:connector-curvature="0" />
    </g>
    <g
       id="g1281"
       style="fill:#000000;fill-opacity:0.84705883">
      <title
         id="title1013">4.2.1</title>
      <desc
         id="desc1298">h2o34</desc>
      <path
         d="m 1351.5,392.2 c -6.9,4.3 -16.5,14.4 -16.5,17.4 0,1.5 1,3 2.8,4.1 1.5,0.9 4.1,3.3 5.8,5.2 l 3.2,3.6 17.8,0.5 c 9.9,0.3 23.8,0.4 31.1,0.2 l 13.2,-0.3 8.1,-7.5 c 10.1,-9.6 10.2,-10.5 1.9,-19.7 l -6.1,-6.7 h -28.1 -28.2 z"
         id="path36"
         style="fill:#000000;stroke:none;stroke-width:0.1;fill-opacity:0.84705883"
         inkscape:connector-curvature="0" />
    </g>
    <g
       id="g1328"
       style="fill:#000000;fill-opacity:0.84705883">
      <title
         id="title1014">5.3.1</title>
      <desc
         id="desc1374">h2o45</desc>
      <path
         d="m 1797.3,418 c -2.1,1.5 -6.3,5.3 -9.2,8.4 -5.2,5.3 -5.5,5.9 -6.3,12.3 -0.4,3.8 -1.5,13.1 -2.4,20.8 -3.3,27.8 -3,30.4 5.9,56.5 3.4,10.1 4.6,12.6 6.2,12.8 2.7,0.4 11.2,-4.4 12.6,-7.1 2.4,-4.4 5.2,-22.7 7.9,-52.2 0.5,-5 1.3,-12.2 1.9,-16.1 0.6,-3.9 1.1,-10.7 1.2,-15.1 0.2,-8.7 -0.6,-10.7 -6.8,-17.3 -1.8,-1.9 -3.3,-3.7 -3.3,-4.1 0,-2 -4.4,-1.4 -7.7,1.1 z"
         id="path38"
         style="fill:#000000;stroke:none;stroke-width:0.1;fill-opacity:0.84705883"
         inkscape:connector-curvature="0" />
    </g>
    <g
       id="g1346"
       style="fill:#000000;fill-opacity:0.84705883">
      <title
         id="title1015">6.2.0</title>
      <desc
         id="desc1372">h1o36</desc>
      <path
         d="m 1955.2,423.6 c -10.1,9.4 -12.2,12.9 -12.2,20.8 -0.1,2.8 -0.5,7.1 -1.1,9.6 -1.1,4.7 -2.7,22.3 -3.5,37.5 -0.5,8.8 -0.5,9.1 2.5,13.3 3.9,5.2 5.9,5.3 11.4,0.4 2.3,-2.1 6.7,-5.6 9.8,-7.9 3.1,-2.3 6.6,-5.7 7.7,-7.5 2,-3.3 2.3,-4.7 4.1,-21.8 0.6,-5.2 1.8,-15.8 2.7,-23.5 1.7,-14 1.7,-14.1 -0.4,-18.2 -1.8,-3.4 -9.7,-11.3 -11.4,-11.3 -0.2,0 -4.6,3.9 -9.6,8.6 z"
         id="path40"
         style="fill:#000000;stroke:none;stroke-width:0.1;fill-opacity:0.84705883"
         inkscape:connector-curvature="0" />
    </g>
    <g
       id="g1325"
       style="fill:#000000;fill-opacity:0.84705883">
      <title
         id="title1016">5.2.0</title>
      <desc
         id="desc1370">h1o35</desc>
      <path
         d="m 1680.7,424.1 c -4.8,4.5 -9.4,9.4 -10.3,11 -0.8,1.6 -1.9,7.1 -2.5,12.2 -0.5,5 -1.4,13 -1.9,17.7 -0.5,4.7 -1.5,13 -2.3,18.6 -1.8,12 -1.1,17.4 2.8,21.4 5.4,5.6 7.5,4.9 20.8,-7.4 8.4,-7.8 9.3,-8.9 10.5,-13.8 0.6,-3 1.2,-7.6 1.2,-10.3 0,-2.8 0.7,-10 1.6,-16 3.9,-28.1 3.9,-27 -0.5,-33.6 -2.4,-3.5 -7.8,-7.9 -9.7,-7.9 -0.5,0 -4.9,3.7 -9.7,8.1 z"
         id="path42"
         style="fill:#000000;stroke:none;stroke-width:0.1;fill-opacity:0.84705883"
         inkscape:connector-curvature="0" />
    </g>
    <g
       id="g1349"
       style="fill:#000000;fill-opacity:0.84705883">
      <title
         id="title1017">6.3.1</title>
      <desc
         id="desc1376">h2o46</desc>
      <path
         d="m 2069.3,419.8 c -2.6,2.1 -6.4,5.7 -8.5,7.9 -3.2,3.6 -3.7,4.9 -4.3,11 -0.3,3.7 -1,8.7 -1.5,11 -0.6,2.3 -1,6.8 -1,10 0,3.2 -0.7,10.7 -1.7,16.8 l -1.6,11.1 4.1,12.9 c 2.2,7.2 4.5,14.8 5.1,17 1.5,5.6 4.7,10.5 6.9,10.5 2.4,0 10.5,-6.3 11.9,-9.3 1.5,-3 3,-12.3 3.8,-22.7 0.3,-4.7 1,-11.7 1.5,-15.5 2.5,-18.8 4.1,-34.9 4.3,-43 0.2,-8.9 0.1,-9.1 -3.2,-13.5 -4.2,-5.5 -7.1,-7.9 -9.3,-8 -0.9,0 -3.8,1.7 -6.5,3.8 z"
         id="path44"
         style="fill:#000000;stroke:none;stroke-width:0.1;fill-opacity:0.84705883"
         inkscape:connector-curvature="0" />
    </g>
    <g
       id="g1284"
       style="fill:#000000;fill-opacity:0.84705883">
      <title
         id="title1018">4.2.0</title>
      <desc
         id="desc1296">h1o34</desc>
      <path
         d="m 1319.8,419.7 c -1.8,1.5 -4,3.7 -4.8,4.8 -0.8,1.1 -3.5,4 -6.1,6.5 -5.1,4.9 -4.9,4.2 -6.8,21.8 -0.6,5.1 -1.3,9.7 -1.5,10 -0.2,0.4 -0.7,3.2 -1,6.2 -0.8,9.6 -1.7,16.3 -2.7,22.6 -1,5.7 -0.9,6.5 1.4,11.1 3.9,7.5 4.9,8.1 10,5.3 4.3,-2.4 20.6,-16.2 21.9,-18.5 0.5,-0.7 1,-5.1 1.3,-9.8 0.2,-4.7 0.9,-10.4 1.4,-12.8 1.7,-7.9 4.4,-33.7 3.7,-36.3 -0.7,-2.9 -10.2,-13.6 -12.1,-13.6 -0.8,0 -2.8,1.2 -4.7,2.7 z"
         id="path46"
         style="fill:#000000;stroke:none;stroke-width:0.1;fill-opacity:0.84705883"
         inkscape:connector-curvature="0" />
    </g>
    <g
       id="g1287"
       style="fill:#000000;fill-opacity:0.84705883">
      <title
         id="title1019">4.3.1</title>
      <desc
         id="desc1294">h2o44</desc>
      <path
         d="m 1433,417.7 c -1.8,0.7 -12.9,10.8 -14.9,13.5 -1.9,2.8 -4.2,19.9 -6.2,45.8 l -1.1,14.5 2.7,7.5 c 1.5,4.1 3.1,9.5 3.6,12 0.5,2.5 2.3,8 4,12.2 3.3,8.2 4.1,8.8 9.2,6.9 1.3,-0.5 3.9,-3.3 5.7,-6.3 2.9,-4.6 3.5,-6.8 4.6,-16.8 0.7,-6.3 1.6,-13.1 2,-15 0.3,-1.9 1,-7.3 1.4,-12 0.5,-4.7 1.4,-12.1 1.9,-16.5 0.6,-4.4 1.2,-10.3 1.5,-13 0.2,-2.8 0.8,-7.1 1.2,-9.7 1.1,-7.5 -0.1,-10.9 -6.2,-17.6 -5.5,-6.1 -6.4,-6.6 -9.4,-5.5 z"
         id="path48"
         style="fill:#000000;stroke:none;stroke-width:0.1;fill-opacity:0.84705883"
         inkscape:connector-curvature="0" />
    </g>
    <g
       id="g1308"
       style="fill:#000000;fill-opacity:0.84705883">
      <title
         id="title1020">3.0.1</title>
      <desc
         id="desc1310">h2o13</desc>
      <path
         d="m 1172.7,319.7 c -3.2,3.2 -8.5,8.4 -11.7,11.6 -4.1,4 -6.3,7.1 -7,9.9 -1,3.7 -3.5,22.4 -4.7,34.8 l -0.5,5.5 6.7,7.7 c 3.7,4.3 7.1,7.8 7.7,7.8 2.1,0 17.3,-14.4 17.9,-16.9 0.8,-3.1 2.4,-15.8 3.9,-29.6 0.5,-5.5 1.4,-13.4 1.9,-17.5 0.9,-7.1 0.8,-7.8 -1.7,-13 -3.7,-7.5 -5.4,-7.5 -12.5,-0.3 z"
         id="path28"
         style="fill:#000000;stroke:none;stroke-width:0.1;fill-opacity:0.84705883"
         inkscape:connector-curvature="0" />
      <path
         d="m 1152.7,424.7 c -3.9,3.8 -7.7,7.5 -8.4,8.3 -1.4,1.8 -3.1,11 -3.8,20 -0.2,3.6 -0.8,8.7 -1.4,11.5 -0.5,2.7 -1.2,9.3 -1.6,14.6 -0.6,8.5 -0.5,10.2 1.4,14.4 1.2,2.6 2.1,6.3 2.1,8.2 0,1.9 0.6,4.6 1.4,6.1 0.7,1.5 2.3,6.5 3.5,11.2 1.2,4.6 2.7,9.1 3.5,9.9 2.1,2 5.4,0.7 11.4,-4.7 5.2,-4.6 5.2,-4.8 6.3,-12.7 0.6,-4.4 1.2,-10.7 1.4,-14 0.1,-3.3 1.4,-15 2.8,-26 1.4,-11 2.9,-24.5 3.2,-30 l 0.7,-10 -4.2,-5.3 c -3.6,-4.5 -8.3,-8.2 -10.5,-8.2 -0.4,0 -3.9,3 -7.8,6.7 z"
         id="path50"
         style="fill:#000000;stroke:none;stroke-width:0.1;fill-opacity:0.84705883"
         inkscape:connector-curvature="0" />
    </g>
    <g
       id="g1431"
       style="fill:#000000;fill-opacity:0.84705883">
      <title
         id="title1021">7.1.1</title>
      <desc
         id="desc1433">h2o27</desc>
      <path
         d="m 1561.5,338.6 c -0.5,0.1 -2.2,0.5 -3.6,0.8 -2.3,0.5 -2.7,1.2 -3.2,5.8 -0.4,2.9 -1.3,9.8 -2.2,15.3 -1.5,9.2 -1.4,10.1 0.1,11.2 1.8,1.3 28.9,1.3 31,0 0.6,-0.3 1.4,-3 1.7,-5.9 1.8,-16.7 2.6,-26.2 2.2,-26.6 -0.4,-0.5 -24.5,-1.1 -26,-0.6 z"
         id="path30"
         style="fill:#000000;stroke:none;stroke-width:0.1;fill-opacity:0.84705883"
         inkscape:connector-curvature="0" />
      <path
         d="m 1541.6,453.8 c -0.4,1 -0.8,5.5 -1.1,9.9 -0.2,4.4 -0.9,9.2 -1.5,10.7 -1.4,3.9 -1.2,9.1 0.4,10.5 2.2,1.8 29.7,0.6 31.2,-1.4 1.4,-1.8 2.8,-13.5 2.8,-23.5 l 0.1,-7.5 -15.7,-0.3 c -14.5,-0.2 -15.7,-0.1 -16.2,1.6 z"
         id="path52"
         style="fill:#000000;stroke:none;stroke-width:0.1;fill-opacity:0.84705883"
         inkscape:connector-curvature="0" />
    </g>
    <g
       id="g1352"
       style="fill:#000000;fill-opacity:0.84705883">
      <title
         id="title1022">6.3.0</title>
      <desc
         id="desc1380">h1o46</desc>
      <path
         d="m 2001.5,501 c -21,0.6 -22.2,0.9 -28.5,7.5 -1.9,2 -6.1,5.7 -9.2,8.2 -7.7,5.9 -7.7,7.7 0.1,14.8 l 3.2,3 38.2,0.2 c 21,0.1 39.9,0 41.9,-0.3 3.3,-0.5 3.8,-1 4.4,-4 0.4,-2.2 0.1,-4.6 -0.9,-6.7 -0.9,-1.7 -2.4,-6.4 -3.5,-10.2 -2.7,-9.7 -3.9,-12.5 -5.4,-12.7 -2.9,-0.4 -22.5,-0.3 -40.3,0.2 z"
         id="path54"
         style="fill:#000000;stroke:none;stroke-width:0.1;fill-opacity:0.84705883"
         inkscape:connector-curvature="0" />
    </g>
    <g
       id="g1331"
       style="fill:#000000;fill-opacity:0.84705883">
      <title
         id="title1023">5.3.0</title>
      <desc
         id="desc1378">h1o45</desc>
      <path
         d="m 1724.9,502 -17.5,0.5 -3.6,3 c -14.5,12.2 -20.8,18.1 -20.8,19.4 0.1,2.3 6.8,9.2 9.9,10 1.4,0.4 9.4,0.6 17.6,0.5 8.3,-0.1 26.1,-0.3 39.7,-0.3 22.8,-0.1 24.8,-0.2 25.7,-1.9 0.6,-1.1 0.6,-3.1 0.1,-5.3 -3.9,-15 -6.1,-22.7 -6.9,-24.6 -1.1,-2.4 -3.2,-2.5 -44.2,-1.3 z"
         id="path56"
         style="fill:#000000;stroke:none;stroke-width:0.1;fill-opacity:0.84705883"
         inkscape:connector-curvature="0" />
    </g>
    <g
       id="g1290"
       style="fill:#000000;fill-opacity:0.84705883">
      <title
         id="title1024">4.3.0</title>
      <desc
         id="desc1304">h1o44</desc>
      <path
         d="m 1339.6,504.4 c -1.7,1 -5.8,4.4 -9.2,7.5 -3.3,3.1 -7.7,6.9 -9.7,8.4 -2,1.5 -3.7,3.6 -3.7,4.6 0,1 2.2,3.9 5,6.5 l 4.9,4.6 40.8,-0.2 40.8,-0.3 0.3,-5.6 c 0.2,-4.2 -0.4,-7.5 -2.8,-13.8 -1.6,-4.5 -3,-9.1 -3,-10.1 0,-1 -0.6,-2.2 -1.2,-2.7 -0.7,-0.4 -14.3,-0.8 -30.2,-0.8 -26.4,0 -29.2,0.2 -32,1.9 z"
         id="path58"
         style="fill:#000000;stroke:none;stroke-width:0.1;fill-opacity:0.84705883"
         inkscape:connector-curvature="0" />
    </g>
    <g
       id="g1467"
       style="fill:#000000;fill-opacity:0.84705883">
      <title
         id="title1025">8.3.1</title>
      <desc
         id="desc1469">h2o48</desc>
      <path
         d="m 2762.5,625 c -1.8,0.7 -19.7,0.8 -110.7,1 -35,0 -34.9,0 -34.8,6.3 0,1.8 -0.2,43.7 -0.5,93.2 -0.2,49.5 -0.4,91.1 -0.4,92.5 -0.2,44.7 0.6,88.1 1.5,89 0.8,0.8 23.4,1.2 82.5,1.1 185.5,0 192.5,-0.1 194.2,-1.4 1.7,-1.2 1.9,-19.4 1.7,-253.4 0,-21.8 -0.2,-25.4 -1.6,-26.8 -1.5,-1.4 -7.8,-1.6 -64.9,-1.4 -34.8,0.1 -63.7,-0.1 -64.1,-0.4 -0.5,-0.2 -1.8,-0.1 -2.9,0.3 z"
         id="path60"
         style="fill:#000000;stroke:none;stroke-width:0.1;fill-opacity:0.84705883"
         inkscape:connector-curvature="0" />
    </g>
    <g
       id="g1472"
       style="fill:#000000;fill-opacity:0.84705883">
      <title
         id="title1026">8.3.0</title>
      <desc
         id="desc1474">h1o48</desc>
      <path
         d="m 2342.6,656.7 c -0.1,0.2 -73.8,0.3 -163.7,0.3 -127,0.1 -164,0.4 -165.9,1.3 l -2.5,1.3 -0.3,56.4 c -0.1,31.1 -0.2,57.8 -0.1,59.5 0.3,4.2 0.3,18.3 0.1,29.5 -0.1,5.2 -0.2,27.7 -0.1,50 0,22.3 0,54.6 -0.1,71.8 0,17.2 0.2,31.7 0.4,32.1 0.3,0.5 2.3,1.1 4.4,1.4 5.8,1 7.9,3.9 8.7,12.2 0.4,3.8 0.9,7.8 1.1,8.7 0.3,0.9 4.8,3.8 10,6.4 5.3,2.6 10.3,5.8 11.2,7.2 0.9,1.3 3.2,4.1 5,6.2 1.8,2.1 4.1,6.4 5.2,9.5 1.7,5 1.9,6.7 1,12.4 -2.1,13.1 -7.9,21.1 -20,27.6 -8.2,4.5 -14,8.8 -17,12.6 -2.9,3.6 -3.2,4.5 -2.6,8.5 0.3,2.5 1.7,6.4 3.1,8.8 1.4,2.3 2.5,5.2 2.5,6.3 0,3.2 -3,5.9 -8,7.2 -6.6,1.9 -8.8,3.6 -10,8.2 -1.9,7 2.4,15 10.2,19 8.2,4.2 8.4,9.9 0.4,9.9 -7.5,0 -11.4,-3.3 -17.6,-14.6 -3,-5.5 -6.3,-11.1 -7.2,-12.4 -2.7,-3.7 -2.3,-7.6 1.1,-10.6 1.6,-1.4 4.2,-5.3 5.7,-8.7 2.6,-5.5 2.9,-7.5 3.2,-17.7 0.2,-6.8 -0.3,-15.5 -1.2,-21.3 -0.8,-5.4 -1.2,-10.5 -1,-11.2 1.1,-2.9 4,-2.6 11.4,1.3 9.8,5.1 12.7,5.7 19.2,3.8 7.1,-2.1 11.3,-6 13.2,-12.7 2.1,-7 2,-8.9 -0.7,-15.1 -3.3,-7.3 -9.4,-11.9 -21.1,-15.7 -5,-1.7 -12,-3.3 -15.6,-3.7 -11.8,-1.1 -26.2,2.7 -40,10.6 -10.7,6.1 -22.1,17.6 -26.9,27 -4.1,8 -8.1,18.6 -8.6,22.5 -0.2,1.6 -0.9,6.6 -1.5,11 -1,7 -0.9,9.3 0.9,17.9 1.3,6.4 2.9,11.1 4.5,13.5 1.4,2 2.6,4.6 2.6,5.6 0,1.7 5.8,11 11.2,17.8 3,3.7 3,11.7 0,17.2 -1.2,2.2 -2.2,4.4 -2.2,4.9 0,0.9 -3,5.6 -11.3,18 -4.6,6.8 -15.3,17.2 -26.9,26.2 -14.4,11.1 -37.7,21.1 -54.8,23.4 -9.9,1.3 -38.1,3 -50.3,3 -5.4,0 -12.6,-0.6 -16,-1.4 -15.2,-3.5 -29.4,-3.8 -37,-0.7 -4,1.5 -14.5,11.8 -16.8,16.4 -1.1,2 -2.4,7.2 -3,11.5 -2.1,15.8 4.1,28.7 17,35.1 4.8,2.4 12.9,5 34.1,11 36.4,10.3 37.8,10.5 46.8,6.7 5,-2.1 7.9,-2.4 24.7,-3 18.9,-0.7 22.7,-1.3 38.5,-6.1 3,-1 7.3,-2.6 9.5,-3.7 8.7,-4.4 25.3,-15.3 30,-19.7 2.8,-2.6 6.8,-6 9,-7.6 8.5,-6.1 39.1,-38 48.4,-50.5 5.1,-6.8 9.6,-13.1 9.9,-14 0.3,-0.8 1.5,-2.9 2.7,-4.5 1.2,-1.7 4.8,-7.6 8,-13.2 6.7,-11.9 8.4,-13.8 11.9,-12.9 3.1,0.8 3.8,3 4,12.7 0,4.2 0.4,8 0.7,8.3 0.3,0.4 8.6,0.7 18.4,0.7 14,0.1 17.9,-0.2 18.6,-1.2 0.5,-0.8 0.8,-7.3 0.7,-14.4 -0.2,-13.7 0.1,-15.1 4.8,-20.8 3.2,-3.8 3,-5.9 -0.6,-9.5 -2,-2.1 -3,-4 -3,-6.1 0,-4.4 6.9,-13.2 13,-16.5 5.7,-3.1 8,-5.9 8,-9.8 0,-4 -3.3,-5.8 -10.6,-5.8 -4.8,0 -6.5,-0.4 -7.9,-2 -3,-3.3 -0.5,-6.1 10.2,-11.5 10.4,-5.3 14.5,-9.5 15.8,-16.1 1.1,-6.2 -4.8,-10.4 -14.9,-10.4 -10.4,0 -14.2,-3.3 -8.9,-7.9 1.6,-1.4 4,-3.3 5.2,-4.1 1.3,-0.8 5.4,-3.9 9.1,-6.7 9.2,-7.1 10.8,-11.8 7,-19.3 -2.2,-4.4 -6.7,-7.2 -14.6,-9.1 -6.4,-1.6 -10.1,-3.5 -11.4,-5.8 -0.5,-1.1 -1,-8.5 -1,-16.6 0,-12.7 0.3,-15.1 2,-18.5 l 2,-4 15.3,-0.1 c 8.3,0 49.9,-0.2 92.2,-0.5 42.4,-0.2 121.9,-0.5 176.8,-0.7 86.6,-0.2 99.9,-0.4 100.7,-1.7 1,-1.6 1,-1.8 1.1,-175.3 0.1,-73 -0.2,-123.2 -0.8,-123.8 -0.7,-0.7 -108,-1.9 -108.7,-1.2 z m -132.1,45.8 c 15.6,1.4 25.1,5.2 37.5,15.1 7.7,6.1 8.6,7.1 13.3,14.9 7.8,13.2 11.3,29.3 10.6,49.5 -0.4,9.7 -0.7,11.1 -4.1,18.2 -7.2,15.1 -19.5,27.2 -40.1,39.3 -4.5,2.6 -11.6,7.1 -15.7,9.9 -23.1,15.6 -35.2,29.9 -25.5,30.2 1.7,0 4.1,0.5 5.5,0.9 1.4,0.5 19.9,0.9 41.2,0.9 l 38.8,0.1 2.7,2.8 c 2.7,2.7 2.8,3 2.7,14 -0.1,6.2 -0.6,12.5 -1.2,14 -2.5,6 -1.9,6 -74.2,5.2 -36,-0.3 -66.7,-0.8 -68.1,-1.1 -6,-1.1 -9.7,-9.3 -7.8,-16.9 1.9,-7.2 3.1,-10.9 6,-17.3 1.6,-3.4 2.9,-6.5 2.9,-6.9 0,-0.3 1.9,-3 4.3,-5.9 2.3,-3 5.6,-7.2 7.2,-9.4 5.3,-7.2 16.2,-19.4 19.7,-22 1.8,-1.4 4.9,-3.6 7,-5 2,-1.4 6.7,-5 10.5,-8 3.7,-3 9.3,-7.2 12.3,-9.3 10.7,-7.3 13.5,-9.9 19.2,-18.2 9.9,-14.6 11.3,-17.8 11.3,-27 -0.1,-7 -0.5,-8.8 -3.2,-14 -8.1,-15.7 -19.8,-20.3 -38.3,-15 -4.1,1.1 -6.7,2.8 -10.7,6.7 -5.5,5.5 -6.4,7.2 -8.2,15.8 -2.1,9.9 -6.3,13 -17.6,13 -9.7,0 -14.9,-1.3 -18.2,-4.6 -2.3,-2.3 -2.5,-3 -1.9,-8.2 0.9,-7.7 5,-17.3 10.7,-25.3 2.6,-3.7 5.3,-7.8 6,-9 1.4,-2.8 9.6,-10.9 15.8,-15.7 7.1,-5.4 20.3,-11.2 25.8,-11.3 2.7,-0.1 6.2,-0.5 7.8,-0.9 1.7,-0.4 4.4,-0.6 6,-0.4 1.7,0.2 6.2,0.6 10,0.9 z"
         id="path62"
         style="fill:#000000;stroke:none;stroke-width:0.1;fill-opacity:0.84705883"
         inkscape:connector-curvature="0" />
    </g>
    <g
       id="g1425"
       style="fill:#000000;fill-opacity:0.84705883">
      <title
         id="title1027">2.0.0</title>
      <desc
         id="desc1427">h1o12</desc>
      <path
         d="m 1136.6,658.7 c -0.1,0.1 -80.7,0.4 -179.2,0.7 -98.4,0.2 -187.8,0.5 -198.6,0.5 l -19.7,0.1 -0.5,4.2 c -0.5,3.5 -1.9,103.4 -1.7,117.3 0.1,5.7 0.2,117.9 0.2,143.5 -0.1,19.5 0.5,36 1.3,36.8 0.2,0.1 84.5,0.4 187.3,0.6 185.4,0.3 187,0.4 191.5,2.4 2.6,1.1 5.1,2.9 5.7,4 0.6,1.2 1.2,8.1 1.2,15.7 0.2,17.2 -0.1,17.7 -12.5,22 -10.1,3.5 -14.2,6.7 -15.1,11.8 -1.7,9 1.8,14.2 16.5,24 6.7,4.5 8.7,7.8 5.3,9.1 -1,0.4 -5.1,1.1 -9.1,1.6 -8.3,0.9 -11.6,2.7 -13.9,7.4 -1.4,3 -1.4,3.6 0.2,6.9 2.7,5.7 7.5,10.5 14.5,14.6 5.6,3.2 6.5,4.1 6.8,6.9 0.3,3.4 -0.5,3.9 -7.7,4.4 -4.5,0.4 -7.7,4.4 -6.6,8.5 0.6,2.5 8.8,11.3 15.8,17 3.1,2.5 3.7,7.5 1.2,11 -3.6,5.2 -3.6,6.9 0,12.2 5.1,7.6 5.9,11.1 5.2,22.6 -0.3,5.6 -0.2,10.7 0.3,11.5 0.7,1.1 4.5,1.5 17.2,1.8 9,0.2 17.4,-0.1 18.6,-0.5 2.2,-0.8 2.4,-1.6 2.9,-9.8 0.5,-10.2 1.4,-12.5 4.7,-12.5 2.9,0 3.2,0.5 8.6,10.5 2.3,4.3 5,9 6.1,10.3 1,1.4 1.9,3.1 1.9,3.8 0,0.8 1.5,3.1 3.3,5.1 1.8,2.1 5.5,7.2 8.2,11.3 6,9.2 21.5,28.1 25,30.4 1.3,0.9 3.1,2.9 3.9,4.5 0.9,1.6 4.4,5.1 7.8,7.9 3.5,2.8 10.4,8.5 15.3,12.6 13.2,11.2 22.3,17.4 34.3,23.6 18.8,9.8 28.2,12 53.2,12.6 16.7,0.3 19.9,0.8 26,3.9 2.7,1.4 5.6,2.5 6.4,2.5 2.1,0 23.9,-6.1 52.1,-14.6 4.4,-1.3 10.6,-3.1 13.7,-4 8.5,-2.4 16.4,-9.3 20.8,-17.8 3.3,-6.5 3.5,-7.4 3.5,-17 0,-9.6 -0.2,-10.4 -3.3,-15.8 -4,-6.9 -9.8,-12.1 -17.2,-15.6 -4.7,-2.2 -6.8,-2.6 -14.5,-2.5 -5,0 -11.6,0.7 -14.9,1.7 -3.3,0.9 -10.7,1.9 -16.5,2.2 -14.6,0.8 -58,-1.2 -63.9,-3 -18.6,-5.6 -23.7,-7.5 -31.1,-11.4 -11.3,-6 -26.5,-17.7 -35.7,-27.5 -6.7,-7.2 -9.3,-10.8 -18,-24.2 -3,-4.7 -5.7,-12.6 -5.8,-17.1 0,-3.3 0.8,-5.4 3.9,-9.9 7.8,-11.1 11.5,-18.1 13.9,-25.5 3.2,-10.2 3.8,-14 3.7,-24.6 0,-8.6 -0.9,-12.7 -6.1,-29.4 -1.2,-3.9 -8.4,-14.2 -14.4,-20.7 -11.9,-12.8 -30.7,-21.8 -48,-23 -14.8,-0.9 -34.5,5.3 -42,13.4 -2.6,2.8 -5.6,11 -5.6,15.2 0,5.1 4.7,12.7 9.9,16 6.9,4.5 12.9,4.3 22.6,-0.5 5.2,-2.6 7.9,-3.5 9.8,-3.1 3.2,0.9 3.6,2.2 2.6,8.2 -0.5,2.8 -1.2,10.9 -1.6,18.1 -1.1,17.7 0.8,25.2 8.3,33.7 4.2,4.6 4.2,7 0.2,13.3 -1.7,2.7 -4.8,8.4 -6.9,12.6 -2.2,4.3 -5,8.5 -6.4,9.4 -1.3,0.9 -5,1.8 -8.2,2.1 -4.7,0.4 -6.1,0.2 -7.3,-1.2 -2.2,-2.6 0.5,-6.4 6.9,-9.9 6.5,-3.5 9.5,-9.2 8.8,-16.8 -0.5,-5.6 -3,-8.2 -9.5,-9.9 -7.8,-2.1 -9,-6.5 -4.2,-15.7 5.8,-11 2.7,-16.3 -14.5,-24.8 -5.6,-2.7 -9.5,-5.5 -13,-9.3 -7.4,-8 -9.5,-12.9 -9.5,-22.4 0,-6.8 0.4,-8.7 3.5,-15.1 4,-8.4 11,-15.7 18.3,-18.7 8.5,-3.6 9.2,-4.2 10.2,-7.8 0.5,-2 1,-5.9 1,-8.7 0,-6.9 2.1,-9.4 8.3,-10.1 2.6,-0.3 5.1,-1.1 5.4,-1.7 0.6,-0.9 1.5,-35.1 1.1,-43.6 0,-1.4 -0.1,-23.7 0,-49.5 0,-25.9 0,-51.3 0,-56.5 0,-9.1 0.1,-118.6 0.1,-134 0.1,-12.5 -0.7,-16.9 -3.2,-17.5 -2.2,-0.5 -38.7,-1.2 -39.1,-0.8 z m -100.9,51.6 c 1.7,1.7 1.8,7.2 1.8,103.8 v 102.1 l -2.2,1.8 c -2,1.6 -4,1.7 -16.1,1.5 -10.4,-0.2 -14.7,-0.7 -17.1,-1.9 -5.6,-2.9 -6,-4.5 -5.4,-20.1 0.3,-7.7 0.5,-15.4 0.5,-17 -0.1,-1.7 -0.1,-8 -0.1,-14 0.1,-6.1 0,-12.8 -0.1,-15 -0.3,-6.2 -0.5,-19.1 -0.3,-28.5 0.1,-4.7 0.1,-16.9 0,-27.1 -0.2,-16.4 -0.4,-18.9 -2,-20.7 -1.6,-1.7 -3.5,-2 -19,-2.5 -27,-0.9 -32.4,-3.2 -33.4,-14.5 -0.6,-5.9 -0.5,-6.3 2.6,-9.1 1.8,-1.7 5.8,-3.9 8.9,-5.1 3.1,-1.1 7.1,-2.7 8.7,-3.4 2.6,-1.2 9.9,-4.2 16.1,-6.6 1.2,-0.5 3.9,-3 6,-5.7 2.1,-2.6 4.5,-5.4 5.3,-6.1 0.9,-0.7 2.1,-2.7 2.7,-4.5 0.6,-2 2.7,-4.3 5.5,-6.2 l 4.5,-3.1 15.7,0.1 c 13.6,0 15.9,0.2 17.4,1.8 z"
         id="path64"
         style="fill:#000000;stroke:none;stroke-width:0.1;fill-opacity:0.84705883"
         inkscape:connector-curvature="0" />
    </g>
    <g
       id="g1410"
       style="fill:#000000;fill-opacity:0.84705883">
      <title
         id="title1028">2.1.1</title>
      <desc
         id="desc1412">h2o22</desc>
      <path
         d="m 310.5,696 -15.9,0.5 -0.3,15.5 c -0.2,8.5 -0.3,16.6 -0.4,18 -0.1,3.9 0,34.3 0.1,36.5 0,1.1 0,23.6 -0.1,50 -0.1,26.4 -0.2,49.6 -0.2,51.5 0.1,3 0.2,90.4 0.1,100 -0.2,33.8 0.4,77.8 1.2,79 0.8,1.3 19.9,1.5 161.7,1.5 127,0.1 161.5,0.3 164.3,1.3 3.6,1.3 18.4,0.8 20.8,-0.7 0.9,-0.6 1.4,-14.8 1.8,-57.7 0.3,-31.3 0.4,-58.3 0.3,-59.9 -0.3,-5.2 -0.3,-17.9 0,-21 0.2,-1.7 0.3,-4.8 0.3,-7 -0.1,-2.2 -0.1,-5.4 -0.2,-7 0,-4 -0.3,-55.7 -0.3,-61.5 0.1,-2.5 0.1,-10.4 0.1,-17.5 0.1,-14.8 0.1,-17 -0.1,-47 -0.1,-12.1 -0.1,-26.5 0,-32 0.1,-5.5 0.2,-17.5 0.2,-26.7 l 0.1,-16.7 -158.8,0.2 c -87.3,0.1 -165.9,0.4 -174.7,0.7 z M 488,731.5 c 4.1,0.2 8.9,0.8 10.5,1.4 1.7,0.5 7.6,2.3 13.2,4.1 7.5,2.4 12.2,4.6 18,8.6 4.3,2.9 9.4,6.5 11.4,7.8 5.1,3.5 10,9.4 16.2,20 11.4,19 13.7,27.9 13.7,52.1 0,12.9 -3.3,29.4 -7.4,37.1 -5.6,10.5 -19,26.3 -27.9,33 -2.9,2.1 -6.9,5.3 -8.9,7.1 -2,1.8 -5.4,4.2 -7.5,5.3 -4.8,2.6 -10.6,6.8 -27.7,20 -7.6,5.8 -17.6,13.1 -22.4,16.3 -11.1,7.4 -12.9,9.2 -15.3,14.6 -2.4,5.4 -2.4,6.7 -0.1,7.6 0.9,0.4 27,0.6 57.8,0.6 55.5,-0.1 60.7,0.1 62.6,3.2 0.5,0.8 1.2,24.1 1,37.6 0,5.5 4.1,5.3 -98.7,4.8 -74.6,-0.3 -95.6,-0.7 -97.7,-1.7 -2.6,-1.2 -3.8,-3.5 -3.8,-7.7 0,-3.8 5,-20.6 7.5,-25.4 1.4,-2.6 2.5,-5.9 2.5,-7.4 0,-1.5 1.1,-4.8 2.4,-7.4 1.3,-2.5 2.9,-5.7 3.5,-7.1 3.2,-7.1 14,-20.1 28.7,-34.5 13.4,-13.2 21.3,-19.6 33.8,-27.2 1.6,-1 5,-3.4 7.7,-5.3 2.7,-1.9 7.2,-5.1 10.1,-7 2.9,-1.9 7.7,-6 10.8,-9 3,-3.1 8,-7.7 11.1,-10.3 4.8,-4 6.6,-6.6 11.5,-16.2 l 5.7,-11.4 -0.1,-10.4 c -0.2,-12.8 -1.7,-17.6 -8.6,-27.7 -4.7,-6.7 -6,-7.9 -12.7,-11.2 -9.8,-4.9 -18.1,-6.2 -27.1,-4.3 -9.3,1.9 -13.4,4.1 -15.9,8.4 -1.2,2 -3.2,4.7 -4.5,6.1 -2,2.2 -4.3,6.3 -7.2,12.5 -0.5,1.1 -1.7,4.7 -2.6,8 -5,18.2 -3,17 -27.1,17 -18.8,0 -19.4,-0.1 -21.8,-2.3 -3.6,-3.4 -4.7,-10.4 -3.5,-22.6 0.5,-5.6 1.7,-11.7 2.5,-13.6 0.9,-1.9 2.4,-6 3.5,-9 1,-3 3.6,-8 5.8,-11.2 2.2,-3.1 4,-6.1 4,-6.7 0,-1.4 14.2,-15.1 21.5,-20.8 5.9,-4.6 11.3,-7.6 17.5,-9.8 20.3,-7.3 24.7,-7.7 54,-6 z"
         id="path66"
         style="fill:#000000;stroke:none;stroke-width:0.1;fill-opacity:0.84705883"
         inkscape:connector-curvature="0" />
    </g>
    <g
       id="g1484"
       style="fill:#000000;fill-opacity:0.84705883">
      <title
         id="title1029">7.0.0</title>
      <desc
         id="desc1486">h1o17</desc>
      <path
         d="m 1584.5,770.1 c -4.9,0.4 -13,0.8 -18,0.9 -8.5,0.2 -9.9,0.6 -25.5,6.7 -19.8,7.8 -21.4,8.6 -33.5,16.6 -5.2,3.4 -12.9,8.4 -17.2,11.2 -4.3,2.7 -9.6,6.6 -11.8,8.6 -2.2,1.9 -5.6,4.6 -7.5,5.9 -1.9,1.3 -6,4.6 -9.1,7.4 -3.1,2.8 -9.5,8.5 -14.3,12.6 -7.8,6.6 -13.7,13.1 -33,35.8 -2.6,3.1 -6.3,7.9 -8.2,10.7 -1.8,2.7 -5.5,7.8 -8.1,11.2 -2.7,3.4 -7.3,10.5 -10.3,15.8 -3,5.2 -7.7,13 -10.5,17.3 -4.3,6.6 -5.4,7.7 -8.1,8 -2.2,0.2 -4,-0.4 -6,-2.2 -2.5,-2.1 -2.9,-3.1 -2.8,-7.3 0,-4 1,-6.6 6,-15.2 12,-20.9 19.3,-31 33.4,-46.6 8.8,-9.6 9.3,-12.6 2.8,-15.5 -2.4,-1.1 -5.6,-2 -7.1,-2 -3.5,0 -9.7,3.1 -16.3,8.1 -2.8,2.2 -5.4,3.9 -5.8,3.9 -1.7,0 -9.1,6.9 -14.3,13.4 -9.7,12.1 -12.5,23.1 -12.4,49.1 0.1,22.2 2.3,30.5 7.8,30.5 2.8,0 7.3,3.1 8.9,6.2 2,3.8 1.3,14.3 -1.1,16.7 -1.5,1.5 -1,1.6 -14.9,-2.7 -6.4,-1.9 -18.1,-1.1 -25.8,1.7 -5.8,2.3 -15.8,10.2 -19.6,15.6 -1.1,1.6 -3.9,9.1 -6.2,16.5 -4.1,13.1 -4.2,14 -4.4,28 -0.1,13.3 0.1,15.2 2.7,23.4 7.8,24.5 21.8,42.5 38.7,49.7 7.2,3 7.8,3.1 19,2.7 14.5,-0.6 18.2,0.5 24.7,7.4 2.6,2.8 6.6,6.9 8.8,9.2 5.1,5.1 20.6,17.6 24.3,19.5 1.5,0.7 4.1,2.6 5.7,4.1 13.6,12.5 51,31.6 74.5,37.9 6.3,1.7 13.9,4 16.7,5.1 5.9,2.2 19.7,5.4 22.8,5.2 1.1,-0.1 4.5,0.3 7.5,1 3,0.6 8.4,1.2 12,1.3 12.4,0.4 16.9,5.3 15.1,16.7 -1.2,7.2 -3.8,10.5 -9,11.4 -5.9,1.1 -21.8,7 -25,9.3 -1.6,1.2 -3.2,2.1 -3.5,2.1 -0.3,0 -4,2.1 -8.3,4.7 -8,4.8 -8.9,5.5 -25.1,19 -5.2,4.3 -11.5,9.4 -14,11.3 -4.7,3.5 -24.6,24.2 -31.2,32.4 -12,15 -20,27 -26.4,39.6 -2.6,5.2 -5.4,10.2 -6.1,11 -4,4.7 -17.8,38.2 -20.5,50 -1,4.1 -2.3,8.8 -2.9,10.5 -4.3,12.4 -10.5,56 -8.8,62.7 0.5,1.7 3.3,4.3 8.6,7.8 4.3,2.9 8.4,6.4 9.1,7.9 0.7,1.4 1.6,7.3 2,13.1 1.6,21.1 4.1,30 14.1,49.3 2.8,5.6 3.9,7.3 11.4,18.2 4.4,6.3 28.3,29.6 35,34.1 2.7,1.8 7.3,5.1 10,7.2 6.1,4.6 19.2,13 26,16.5 17.1,8.8 41.6,18.7 46.4,18.7 0.9,0 4,0.9 6.8,2 11.2,4.3 19.9,5.5 38.3,5.4 19.8,-0.1 30.1,-1.6 47.5,-6.9 14.3,-4.4 22.5,-7.3 23.9,-8.4 0.6,-0.5 3.6,-1.9 6.6,-3 4.4,-1.7 25.5,-13 32,-17.2 0.8,-0.5 3.4,-2.2 5.8,-3.7 3.6,-2.3 11.5,-8.3 23.2,-17.7 1.4,-1.1 7.9,-7.3 14.6,-13.8 11.3,-11.1 12.7,-12.8 20.2,-26 12.6,-22.3 17.3,-36.7 18.7,-56.6 0.3,-5.2 1.3,-10.7 2.1,-12.2 0.8,-1.6 4.8,-5.3 8.9,-8.3 4,-3.1 7.9,-6.4 8.4,-7.5 2.2,-4 0.7,-24.9 -2.7,-39.4 -1.1,-4.5 -2.5,-10.9 -3.2,-14.2 -3.3,-16.1 -9.9,-35.6 -18.3,-54.1 -9.6,-21 -19.6,-39 -26.1,-46.6 -1.7,-2 -5.1,-6.4 -7.6,-9.8 -2.5,-3.3 -7,-9.1 -10.1,-12.8 -3,-3.7 -6.3,-7.8 -7.2,-9.2 -3.9,-5.6 -21.6,-22.5 -31.1,-29.5 -5.5,-4.2 -12.6,-9.5 -15.6,-11.8 -13.6,-10.6 -37,-21.6 -51.4,-24.3 -6.4,-1.1 -7.6,-3.1 -7.6,-12.8 0,-9.8 1,-13.3 4.3,-14.5 1.2,-0.5 8.1,-1.6 15.2,-2.5 20.7,-2.6 41.9,-7.3 54,-12 2.2,-0.8 6.7,-2.3 10,-3.2 8.7,-2.4 22,-8.5 38.5,-17.6 13.6,-7.6 15.7,-8.9 21,-13 2.6,-2 6.4,-4.5 8.6,-5.6 2.1,-1.1 4.5,-3 5.2,-4.1 0.7,-1.2 3.2,-3.3 5.6,-4.9 2.4,-1.5 8.6,-6.7 13.7,-11.5 5.1,-4.9 11.8,-11 14.8,-13.5 l 5.4,-4.7 12.1,0.3 c 20,0.5 27.1,-2.3 40.6,-15.9 14.4,-14.6 21.6,-30.5 24.1,-53.4 1.5,-14.4 -1.5,-31.4 -7.9,-44.4 -5.6,-11.3 -14.7,-19.5 -25.1,-22.8 -7,-2.2 -19.9,-2.1 -26,0.1 -4.9,1.8 -10.7,2.1 -11.6,0.6 -0.3,-0.5 -1.7,-6 -3.1,-12.2 -1.4,-6.2 -2.9,-12.9 -3.3,-14.8 -0.9,-4 -3.1,-8.7 -8.8,-18.5 -2.2,-3.9 -6.4,-11.2 -9.4,-16.3 -3,-5.2 -6.2,-10.2 -7.1,-11.2 -1,-1 -3,-3.8 -4.5,-6.2 -2.8,-4.4 -15.2,-20.9 -16.3,-21.8 -0.4,-0.3 -2,-2.5 -3.7,-5 -3.7,-5.3 -36,-38.2 -41.8,-42.5 -2.2,-1.6 -6.2,-4.9 -9,-7.4 -2.7,-2.4 -7.2,-5.9 -10,-7.8 -2.7,-1.8 -6.1,-4.1 -7.5,-5.1 -8,-5.9 -31,-19.6 -40,-24 -12,-5.7 -27,-11.2 -30.8,-11.2 -2,0 -5.3,-0.4 -7.2,-0.9 -4.9,-1.3 -26.7,-1.8 -37.5,-1 z m 40,135.8 c 20.8,1.4 41.8,3.6 44.1,4.9 1.1,0.5 4.8,1.2 8.4,1.5 3.6,0.3 8.5,1 11,1.6 4.6,1 19.2,3.8 38,7.2 5.8,1 13,2.6 16,3.4 3,0.8 6.4,1.5 7.5,1.5 1.1,0 4.9,0.6 8.5,1.4 3.6,0.9 11,2.5 16.5,3.6 23.3,4.9 24.8,5.6 28,13.2 1.9,4.6 1.9,8.7 0.1,9.4 -2,0.8 -27.8,-4.1 -41.1,-7.7 -3.8,-1 -8.5,-1.9 -10.3,-1.9 -1.8,0 -5.4,-0.6 -8,-1.4 -5.4,-1.6 -15.6,-3.4 -25.7,-4.6 -3.8,-0.5 -8.3,-1.3 -9.8,-1.9 -1.6,-0.6 -4.5,-1.1 -6.5,-1.1 -2,0 -6.1,-0.7 -9.1,-1.5 -3,-0.8 -9.7,-1.9 -15,-2.5 -5.3,-0.6 -11.6,-1.6 -14.1,-2.2 -4.9,-1 -30.7,-3.5 -46,-4.4 -29.6,-1.7 -72.3,1.3 -104.5,7.2 -7.1,1.3 -16.1,2.8 -20,3.3 -3.8,0.5 -9.9,1.6 -13.5,2.4 -3.6,0.8 -10.8,2.2 -16,3.1 -11.5,2 -22.5,4.4 -47.5,10.3 -10.4,2.4 -22,4.7 -25.6,5 -6,0.5 -6.8,0.4 -7.8,-1.4 -1.6,-3.1 0.9,-10.3 5.2,-15 2.1,-2.4 9.8,-5.1 21.7,-7.8 4.1,-0.9 10.3,-2.3 13.8,-3.1 6.9,-1.7 20.4,-4.1 30,-5.4 3.4,-0.5 7.9,-1.4 10,-1.9 8.1,-2.2 22.3,-5 33.2,-6.6 6.3,-0.9 14.4,-2.4 18,-3.2 3.6,-0.9 9.9,-1.9 14,-2.4 4.1,-0.4 12,-1.3 17.5,-1.9 5.5,-0.5 15.6,-1.3 22.5,-1.6 6.8,-0.3 12.6,-0.7 12.8,-0.9 0.5,-0.5 25.7,0.3 43.7,1.4 z m -83.9,43.6 c 4.7,1.9 12.2,8.2 14,11.6 2.4,4.6 1.8,10.5 -1.7,16.6 -1.7,2.9 -4.1,6 -5.3,6.8 -3.1,2.1 -13.5,3 -17.8,1.6 -4.8,-1.6 -10.2,-7.6 -12.4,-13.8 -1.8,-5.2 -1.8,-5.2 0.6,-10.2 3,-6.6 6.7,-10 13.2,-12.2 2.9,-1 5.4,-1.8 5.6,-1.9 0.1,0 1.8,0.7 3.8,1.5 z m 116.9,2.9 c 6,2.5 10.9,13.1 9.1,19.9 -0.8,3.4 -6.2,9.9 -9.9,11.9 -4.4,2.4 -11.2,2.3 -15.2,-0.2 -4.3,-2.7 -10.5,-13.1 -10.5,-17.6 0,-3.6 3.1,-10.7 5.2,-12.1 1.8,-1.1 10.6,-3.1 14.6,-3.2 1.8,0 4.8,0.5 6.7,1.3 z m -203,106.9 c 0.8,1.2 1.5,4.4 1.5,7.2 0.1,17.4 5.3,30.3 17.4,42.7 4.4,4.6 9.6,8.8 12.8,10.4 2.9,1.5 7.6,4.2 10.5,6.1 5.2,3.4 31.1,12.1 42.3,14.2 3,0.6 8,1.5 11,2.1 21.5,4 58.6,4.5 81.5,1 13.9,-2.2 32.9,-6.8 40.5,-9.8 1.4,-0.6 5,-2 8,-3.2 6,-2.4 13.1,-6.5 25.7,-14.7 9.1,-5.9 14.9,-12.5 20.8,-24 3.3,-6.2 3.8,-8.2 4.7,-18.4 0.5,-6.3 1.3,-12.1 1.7,-12.9 1.1,-2.1 5.8,-2.4 8.6,-0.6 5.5,3.6 5.5,18.1 0.2,32.6 -5,13.6 -7,18.1 -9.2,21.4 -3.2,4.8 -19.4,18.3 -26.7,22.3 -12,6.6 -12.6,6.9 -15.1,8.6 -2.3,1.5 -12.1,4.8 -28.2,9.5 -8.7,2.6 -25.6,5.7 -39.5,7.2 -13,1.5 -55.1,1.4 -64.5,0 -3.8,-0.6 -10.1,-1.6 -14,-2.1 -14.5,-2.2 -31.3,-6.5 -40,-10.2 -3.3,-1.4 -8.5,-3.6 -11.5,-4.9 -9,-3.8 -21.4,-11.4 -28.4,-17.4 -9.7,-8.1 -15.8,-17.6 -21.1,-32.7 -2.3,-6.7 -2.8,-9.6 -2.9,-19.2 -0.1,-10 0.1,-11.6 2,-14.1 3.4,-4.6 9.1,-5.1 11.9,-1.1 z M 1559,1254 c 2.3,2.2 5.1,4.2 6.3,4.5 22.5,4.9 53.3,3.6 61.8,-2.8 6,-4.4 8.2,1.8 2.6,7.3 -6.9,6.7 -20.1,9.4 -43,8.8 -15.9,-0.4 -17.7,-0.7 -23.9,-3.2 -6.7,-2.8 -15.8,-10.4 -15.8,-13.2 0,-2 3.7,-5.4 5.9,-5.4 1.1,0 3.8,1.8 6.1,4 z m 140.1,34.9 c 6.5,1.4 9.1,3.5 16.7,13.5 5.6,7.4 6,8.6 3.6,11 -1.2,1.3 -4,1.6 -12.7,1.7 -6.2,0.1 -13,0.3 -15.2,0.5 -2.2,0.1 -53.6,0.6 -114.1,0.9 l -110.2,0.7 -2.1,-2.1 c -1.4,-1.4 -1.8,-2.6 -1.3,-3.8 1,-2.5 15.2,-19.7 17.7,-21.4 2.7,-1.9 32.8,-2.4 133,-2.3 58.4,0 80.5,0.4 84.6,1.3 z m 16.4,62.9 c 29.4,0.6 33.4,0.9 35.8,2.5 3.3,2.1 10.8,17.6 10,20.6 -0.3,1.1 -1.9,2.5 -3.6,3.1 -6,2 -323.3,4 -330.8,2 -4.9,-1.3 -5.4,-3.1 -2.5,-8.8 1.3,-2.6 2.8,-6.3 3.5,-8.2 0.6,-1.9 2.5,-5.1 4.1,-7 l 2.9,-3.5 16.3,-0.5 c 26.2,-0.8 228.2,-0.9 264.3,-0.2 z m -26.5,63.3 c 49.8,0.2 79.5,0.6 83,1.3 4.9,1 5.7,1.5 7.2,4.6 2.3,4.8 4.1,16.5 2.9,18.9 -0.9,1.5 -2.9,1.9 -13.8,2.5 -24.9,1.3 -73.4,1.8 -218,1.9 -137.9,0.2 -146.3,0.1 -148,-1.5 -1.6,-1.7 -1.6,-2.3 0.7,-11.5 3,-11.8 4.9,-14.3 11.5,-15.3 2.8,-0.4 47.7,-0.8 100,-0.9 52.2,-0.1 95.1,-0.4 95.4,-0.6 0.2,-0.3 0.7,-0.3 1,0 0.4,0.2 35.6,0.5 78.1,0.6 z m 72,72.3 c 3.6,0.9 7.1,2.3 7.8,3.3 1,1.4 1.2,4.5 0.7,13.1 -0.6,12.1 -1.3,14.5 -4.6,16.3 -2.7,1.4 -83.4,2.2 -233.1,2.3 -127,0.1 -114.8,1.1 -115.3,-9 -0.1,-3.3 -0.6,-8.9 -1,-12.6 -0.9,-8 -0.2,-11.3 2.8,-13 2.9,-1.7 69.6,-2.4 220.7,-2.1 99.8,0.1 116.4,0.4 122,1.7 z"
         id="path68"
         style="fill:#000000;stroke:none;stroke-width:0.1;fill-opacity:0.84705883"
         inkscape:connector-curvature="0" />
      <path
         d="m 1401.5,774.5 c -10.3,3.3 -23.5,11.2 -30.1,17.9 -13.2,13.5 -20.9,31.1 -22.3,51.5 -0.8,11.6 -0.4,19.1 1.1,19.1 0.5,0 4,-2.7 7.9,-6 6.3,-5.4 14.4,-11.1 23.9,-16.8 6.4,-3.8 16.5,-15.3 20.5,-23.2 4.4,-8.7 8.4,-23.4 9.2,-33.7 0.8,-10.3 -0.9,-11.8 -10.2,-8.8 z"
         id="path70"
         style="fill:#000000;stroke:none;stroke-width:0.1;fill-opacity:0.84705883"
         inkscape:connector-curvature="0" />
      <path
         d="m 1326.4,912.5 c -2.2,1.3 -10.3,4.2 -18,6.4 -24.8,7.1 -26,7.6 -31,14 -11.6,14.5 -14.4,27.5 -13.5,62.3 0.1,4.5 0.3,4.9 4.1,6.8 2.1,1.1 4.5,2 5.2,2 0.7,0 2.9,-2.6 4.8,-5.8 4.6,-7.5 20.5,-23.4 30.4,-30.2 4.3,-3 12,-7.5 17,-10 7.2,-3.6 9.1,-4.9 8.9,-6.5 -0.1,-1.1 -0.8,-6.7 -1.4,-12.5 -0.7,-5.8 -1.4,-14.5 -1.5,-19.3 -0.1,-4.9 -0.4,-9 -0.6,-9.2 -0.2,-0.2 -2.2,0.7 -4.4,2 z"
         id="path72"
         style="fill:#000000;stroke:none;stroke-width:0.1;fill-opacity:0.84705883"
         inkscape:connector-curvature="0" />
    </g>
    <g
       id="g1457"
       style="fill:#000000;fill-opacity:0.84705883">
      <title
         id="title1030">8.2.1</title>
      <desc
         id="desc1459">h2o38</desc>
      <path
         d="m 2672.6,937.7 c -0.1,0.1 -12.1,0.3 -26.6,0.4 -20.9,0.1 -26.8,0.4 -28.1,1.5 -1.4,1.2 -1.5,11 -1.2,93.6 0.4,124.4 0.4,121.1 0.1,140.3 -0.1,9.4 -0.1,20.6 -0.1,25 0.1,4.4 0.2,10 0.2,12.5 0,6.6 0.8,8.7 3.3,9.3 1.3,0.2 44.8,0.3 96.8,0.1 52,-0.1 112.4,-0.3 134.3,-0.4 21.9,0 40.9,-0.5 42.2,-1 l 2.5,-1 v -139.4 c 0,-110.5 -0.3,-139.7 -1.2,-140.3 -1.1,-0.7 -221.5,-1.3 -222.2,-0.6 z"
         id="path74"
         style="fill:#000000;stroke:none;stroke-width:0.1;fill-opacity:0.84705883"
         inkscape:connector-curvature="0" />
    </g>
    <g
       id="g1400"
       style="fill:#000000;fill-opacity:0.84705883">
      <title
         id="title1031">2.2.1</title>
      <desc
         id="desc1405">h2o32</desc>
      <path
         d="m 466.3,1091.7 c -0.5,0.1 -38.9,0.4 -85.5,0.5 -60.5,0.2 -85,0.6 -85.8,1.4 -0.8,0.8 -1.1,12.6 -1.1,39 0,20.9 -0.1,44 -0.1,51.4 -0.1,7.4 -0.1,15.7 -0.1,18.5 0,2.7 0,18 0,34 0,15.9 0,30.8 0,33 0.1,2.2 0.1,30.1 0,62 0,106.4 0.1,111.8 1.8,113.1 1.1,0.8 28.5,1 99.2,0.8 53.8,-0.2 130.9,-0.3 171.4,-0.4 57.2,0 73.9,-0.3 75.2,-1.3 1.8,-1.3 2,-3.3 1.5,-22.2 -0.1,-5 -0.1,-13.5 0.1,-19 0.1,-5.5 0.2,-19.2 0.1,-30.5 -0.4,-32 -0.4,-51.3 -0.2,-69 0.6,-55.1 0.6,-71.5 0.2,-80 -0.3,-6.5 -0.2,-55.6 0.1,-68 0.2,-5.5 0.1,-15.4 -0.2,-31.5 0,-1.7 0,-9.3 0.1,-16.9 0.1,-10.5 -0.2,-14.1 -1.2,-14.8 -1.1,-0.7 -173.1,-0.8 -175.5,-0.1 z m 38.4,34.2 c 13.2,2.6 20,6 35.8,18.3 8,6.2 11.1,9.6 18.8,21.1 10.9,16 13.8,30.6 9.8,48.5 -2.7,11.7 -3.8,14.4 -9.2,21.2 -9.1,11.5 -19.2,17.9 -29.4,18.7 -9.1,0.7 -9.7,1 -9.3,4.6 0.3,2.8 0.7,3.2 3.3,3.4 15,1.3 22,3.8 34.3,12.4 6.2,4.4 7.5,6 13.2,15.9 8,14.2 9.3,18.7 9.8,35 0.3,12.2 0.1,15.8 -1.6,22.6 -2.1,8.2 -5.8,16.9 -11,25.4 -3.9,6.5 -16,18.3 -24.4,23.9 -6.9,4.5 -22.3,12.1 -24.6,12.1 -0.6,0 -3.1,0.9 -5.7,2 -8.9,3.8 -23.9,6.2 -38.5,6.1 -12.9,0 -28.5,-1.7 -36,-3.9 -25,-7.3 -41.7,-18.4 -52.7,-35.2 -2,-3 -4,-5.7 -4.3,-6 -0.4,-0.3 -2.5,-4.3 -4.7,-9 -4.5,-9.6 -7.6,-19.8 -9.3,-31.3 -1,-6.9 -0.9,-8.1 0.7,-11.4 3.8,-7.7 8.6,-9.1 32.1,-9.2 18.9,-0.1 18.9,-0.2 22.3,15.4 4.3,20.1 6.2,24.1 14.4,31.2 8.5,7.5 22.5,11 38.8,9.9 14.9,-1.1 18.8,-2.8 30.4,-13.3 9.3,-8.5 11,-12 11.9,-24.3 0.7,-9.8 -1.7,-18.1 -8,-27.8 -8.6,-13.1 -19.7,-17.7 -44.9,-18.6 -6.9,-0.2 -8.1,-0.6 -10.4,-2.9 -2.6,-2.5 -2.7,-3.1 -3,-16.4 -0.3,-11.8 -0.1,-14.3 1.4,-17.3 2.5,-4.8 5.1,-5.8 18.3,-6.6 10.8,-0.6 11.9,-0.9 18.5,-4.5 12.9,-7 19.5,-16.1 19.5,-27.1 0,-6.6 -2.7,-19.6 -4.6,-22.7 -2.1,-3.2 -8.4,-9.4 -11.8,-11.6 -3.5,-2.3 -16.9,-5.5 -23.1,-5.5 -5.1,0 -18.7,3 -22.3,4.9 -1,0.5 -4.5,4 -7.9,7.8 -5.1,5.8 -6.5,8.2 -8.7,15.1 -1.4,4.6 -2.6,9.3 -2.6,10.5 0,2.6 -2.6,6 -5.7,7.6 -2.1,1.1 -14.3,1.5 -33.1,1.2 -7.3,-0.1 -11.9,-2.1 -12.8,-5.6 -0.8,-3.3 1.2,-17.2 3.9,-27.6 2.9,-10.7 8.9,-20.6 19.4,-31.8 16.8,-18.2 29.3,-24.9 50.3,-27 13.8,-1.4 40.5,-0.5 52.7,1.8 z"
         id="path76"
         style="fill:#000000;stroke:none;stroke-width:0.1;fill-opacity:0.84705883"
         inkscape:connector-curvature="0" />
    </g>
    <g
       id="g1446"
       style="fill:#000000;fill-opacity:0.84705883">
      <title
         id="title1032">8.1.1</title>
      <desc
         id="desc1448">h2o28</desc>
      <path
         d="m 2708.9,1249.7 c -0.8,0.2 -21.5,0.4 -46.1,0.5 -24.5,0.2 -45,0.6 -45.4,1 -0.9,0.9 -0.9,279.3 0,280.7 0.7,1 266.6,0.6 274.3,-0.4 3.9,-0.6 4.3,-0.9 5.2,-4.3 0.9,-3.6 0.8,-275.9 -0.1,-276.8 -0.5,-0.4 -185.2,-1.1 -187.9,-0.7 z"
         id="path78"
         style="fill:#000000;stroke:none;stroke-width:0.1;fill-opacity:0.84705883"
         inkscape:connector-curvature="0" />
    </g>
    <g
       id="g1452"
       style="fill:#000000;fill-opacity:0.84705883">
      <title
         id="title1033">8.1.0</title>
      <desc
         id="desc1454">h1o28</desc>
      <path
         d="m 2113.5,1255.1 c -2.2,0.4 -6.7,1.3 -10.1,1.8 -6.2,1.1 -18.5,4.8 -23.9,7.2 -8.3,3.7 -26,18.2 -33.5,27.4 -11.6,14.2 -29.1,48.8 -34.9,69 -1.1,3.8 -2.6,9 -3.4,11.5 -1.5,4.3 -5.8,23 -7.8,33.5 -4,20.9 -4,20 -3.4,59.5 0.3,21.2 0.6,42.5 0.7,47.5 l 0.3,8.9 -3.4,2.3 c -1.9,1.3 -8,3.8 -13.5,5.5 -5.6,1.7 -18.6,6.2 -29.1,10 -21.8,7.9 -21.8,7.9 -34.5,12.3 -13.8,4.8 -67.1,28 -71.6,31.2 -1.6,1.2 -8.7,5.1 -15.9,8.9 -7.1,3.7 -14.3,7.8 -16,9 -1.6,1.2 -6.1,3.8 -10,5.8 -19.6,10.2 -59.7,36.4 -69,45.1 -5,4.6 -5.5,5.5 -5.5,9.3 0,7.9 7.2,18 14.5,20.5 4.1,1.4 5,1.4 11,-0.3 3.6,-1 8.9,-2.7 11.8,-3.8 11.1,-4.1 38,-11.3 55.2,-14.7 9.9,-2 21.7,-4.5 26.2,-5.6 20,-4.8 53.8,-9.5 77.3,-10.8 56.1,-3.2 93,-1.6 101.9,4.2 2,1.3 5.1,2.9 6.9,3.5 1.8,0.6 4.5,2 6,3 1.5,1.1 3.8,2.2 5.2,2.5 9.1,2.2 18.9,4.9 21.5,5.8 8.4,3 61.6,4.2 82,1.9 11.6,-1.3 32.5,-7.4 42.8,-12.6 8.4,-4.3 18.5,-11.4 22.3,-15.8 1.9,-2.3 5.8,-6.6 8.7,-9.7 2.9,-3 6.6,-7.3 8.3,-9.5 3.6,-4.7 16.3,-25.1 19.4,-31.4 1.3,-2.5 3.3,-5.7 4.5,-7.2 2.5,-3 16.7,-31.4 18.4,-36.8 0.6,-1.9 3.5,-10.9 6.5,-20 3,-9.1 6,-18.9 6.6,-21.9 0.6,-3 1.5,-6 2,-6.5 0.4,-0.6 1.8,-5.8 2.9,-11.5 1.2,-5.6 2.3,-10.7 2.6,-11.2 0.3,-0.4 1.5,-5.5 2.6,-11.1 1.6,-8.1 2.1,-16.1 2.6,-37.7 1,-44.2 -1,-57.3 -13.5,-87.6 -1.5,-3.6 -4.5,-8.3 -12.4,-19.4 -4,-5.6 -13.9,-14.4 -18.9,-16.9 -2.4,-1.2 -7.1,-3.8 -10.4,-5.7 -3.3,-1.9 -9.6,-4.9 -14,-6.6 -14.8,-5.9 -31,-11.9 -32.2,-11.9 -2,0 -13.2,-4 -20.1,-7.1 -3.5,-1.6 -6.7,-2.9 -7.1,-2.9 -0.5,0 -2.9,-0.9 -5.3,-2 -6.4,-2.8 -27.1,-8.2 -35.3,-9.1 -8.5,-0.9 -10.8,-0.9 -16,0.2 z m 72.2,102.5 c 5.5,2.3 5.6,3.5 5.9,61.9 0.3,51.4 0.9,67.4 2.2,67.6 0.4,0 5.9,0.3 12.2,0.5 15.2,0.5 15.5,0.8 15.5,14.2 0.1,19.2 -0.7,20.2 -16.8,20.4 -7.6,0 -12,0.4 -12.4,1.2 -0.4,0.6 -0.8,9.2 -0.8,19.1 0,20.6 -0.7,23.2 -6.5,25.2 -2,0.7 -9.4,1.2 -17.2,1.2 -12.5,0.1 -14,-0.1 -15.8,-1.9 -2.1,-2.1 -2.1,-2 -2.4,-31.2 -0.1,-6.4 -0.5,-11.1 -1.2,-11.8 -0.8,-0.8 -14.2,-1.3 -43.5,-1.6 -29.7,-0.4 -43.1,-0.9 -44.9,-1.7 -1.3,-0.7 -3.4,-3 -4.7,-5.2 -2,-3.6 -2.2,-5.2 -2.1,-18.5 0,-14.5 0.9,-19.2 4.2,-23 0.7,-0.8 1.9,-3.2 2.5,-5.2 0.7,-2 1.9,-4.2 2.8,-5 0.9,-0.7 2.6,-2.9 3.9,-5 1.3,-2 4.3,-5.9 6.6,-8.6 4.3,-4.8 8.3,-10.1 14.5,-19 1.8,-2.5 5,-6.4 7.1,-8.6 2.2,-2.3 4.8,-5.7 5.7,-7.6 0.9,-1.9 3,-4.9 4.6,-6.5 3,-3.2 8.7,-10.8 14.3,-19 4.5,-6.7 7.4,-10.3 23.5,-29.5 2.5,-3 3.6,-3.5 8.8,-4 9.3,-0.9 30.4,0.1 34,1.6 z"
         id="path80"
         style="fill:#000000;stroke:none;stroke-width:0.1;fill-opacity:0.84705883"
         inkscape:connector-curvature="0" />
      <path
         d="m 2141.5,1416.5 c -3.8,4.7 -9.1,11.1 -11.7,14.2 -2.7,3.1 -4.8,6.2 -4.8,7 0,0.7 -2.5,3.7 -5.5,6.7 -3,2.9 -5.5,5.9 -5.5,6.6 0,1.1 -7.5,11.1 -15.8,20.9 -8,9.5 -9,13.1 -4.3,15.6 2.5,1.2 6.4,1.4 24.2,0.9 11.6,-0.3 23.3,-0.9 25.8,-1.3 l 4.6,-0.6 0.6,-9.5 c 0.9,-13.1 0.9,-56.2 0.1,-63.3 l -0.7,-5.8 z"
         id="path82"
         style="fill:#000000;stroke:none;stroke-width:0.1;fill-opacity:0.84705883"
         inkscape:connector-curvature="0" />
    </g>
    <g
       id="g1403"
       style="fill:#000000;fill-opacity:0.84705883">
      <title
         id="title1034">2.2.0</title>
      <desc
         id="desc1407">h1o32</desc>
      <path
         d="m 1050,1258.7 c -8,1.5 -38,11.2 -52,16.8 -4.7,1.8 -14.8,5.7 -22.5,8.5 -31,11.3 -40.6,16.1 -50.4,24.9 -17.9,16.1 -28.8,37.3 -35.2,68.1 -2,9.6 -2.2,13.3 -2.2,45 0.1,29.3 0.3,35.5 1.8,41 0.9,3.6 2.5,10.1 3.5,14.5 1,4.4 3.2,12.9 4.9,19 4.2,14.9 4.7,16.9 7,25 3.1,11.3 8.7,26.6 14.6,40 3,6.8 5.5,12.6 5.5,12.9 0,1.7 23,37.5 27.4,42.6 1.2,1.4 3.8,5 5.8,8 4.4,6.6 17.6,20.3 23.8,24.6 9.5,6.7 30.9,15.8 44.1,18.8 9.4,2.1 56.6,3.5 70.9,2.1 26.2,-2.6 41.1,-6.3 57.5,-14.6 17,-8.5 21,-9.1 60.5,-9 45.7,0.1 78.1,3.3 120.5,12 7.7,1.6 19.2,3.9 25.5,5.1 23.2,4.4 43.4,9.8 62.1,16.6 l 9.7,3.5 4.5,-2 c 2.5,-1.2 5.2,-2.1 5.9,-2.1 1.6,0 12.2,-9.8 13.7,-12.6 1.1,-2.2 0.7,-6.5 -1,-9.5 -1.2,-2.3 -16.6,-15.2 -24.3,-20.4 -9.5,-6.4 -45.8,-28.3 -61.1,-36.9 -7.7,-4.3 -16.5,-9.3 -19.5,-11.1 -6.6,-3.9 -19.1,-9.8 -28,-13.2 -3.6,-1.3 -10.8,-4.6 -16,-7.3 -5.2,-2.7 -14,-6.5 -19.5,-8.5 -5.5,-2 -14.5,-5.4 -20,-7.4 -5.5,-2.1 -16.7,-6.2 -25,-9.1 -8.2,-2.9 -17.2,-6.1 -20,-7.1 -2.7,-0.9 -7.9,-2.7 -11.5,-3.8 -17.3,-5.6 -19.3,-6.5 -21.4,-10 -1.8,-3.2 -1.9,-4 -0.6,-19 2.5,-30.2 1.6,-83.9 -1.6,-96.6 -2.7,-10.6 -5.6,-22.9 -6.1,-26 -0.7,-4.5 -7,-25.6 -9.8,-32.7 -2,-5.5 -11.7,-25.4 -15.2,-31.3 -0.7,-1.1 -3.3,-5.6 -5.9,-10 -15.4,-26 -37.7,-42.7 -64.9,-48.2 -10.6,-2.2 -26.2,-2.4 -35.5,-0.6 z m 32,94.1 c 10.6,2.6 20.6,7.6 26.2,12.9 3.7,3.5 11.4,15.2 14.3,21.8 3.5,7.8 5.8,18.4 5.7,25.8 -0.1,10.4 -4.1,17.9 -13.5,25.2 -4.5,3.5 -9.1,6.1 -12.5,7.1 l -5.4,1.6 0.6,4.1 c 0.4,2.2 0.9,4.3 1.1,4.7 0.2,0.4 3,1 6,1.4 12.1,1.4 23.7,10.5 29.8,23.4 3.1,6.5 3.2,7.1 3.2,20.2 0,23.2 -4.2,34.6 -18.2,49.6 -6.6,7.1 -14.2,11.7 -28.2,16.9 -11.4,4.3 -12.6,4.5 -22.4,4.5 -13.7,0 -31,-1.7 -37.2,-3.7 -14.9,-4.8 -35.4,-19.1 -42.6,-29.8 -6.1,-9.1 -7.7,-12.7 -9.9,-21.7 -2.4,-9.9 -2.5,-14.6 -0.5,-17.5 1.7,-2.5 4.6,-3 19.8,-3.8 10.4,-0.6 10.8,-0.5 13.2,1.9 1.4,1.4 2.5,3.5 2.5,4.7 0,4.2 7.8,18.3 13.1,23.6 6.5,6.6 13.2,9.3 24.9,10 7.4,0.4 9.5,0.1 16,-2.1 4.1,-1.5 9.1,-3.8 11.1,-5.2 10.6,-7.3 14.6,-22.1 9.9,-36 -4.8,-13.9 -11.3,-18 -34.6,-21.9 -10.2,-1.6 -14.1,-3.7 -16,-8 -1.6,-4 -1.9,-13.8 -0.4,-16.6 1.6,-2.9 9.7,-6.5 17.9,-7.8 12,-1.9 20.9,-8 25.6,-17.5 2.9,-5.8 3.1,-8.8 0.9,-16.2 -4.4,-15.3 -19.4,-22.7 -39.3,-19.5 -5.1,0.8 -7,1.7 -11.5,5.7 -5.3,4.6 -6.5,6.4 -12.2,19.2 -4,8.9 -5.4,9.6 -18.6,8.9 -11.1,-0.6 -15.8,-2.1 -18.1,-5.9 -1.4,-2.1 0.8,-16.2 3.5,-23.3 7.8,-20.1 26.8,-35.6 47.1,-38.5 10.3,-1.5 40,-0.4 48.7,1.8 z"
         id="path84"
         style="fill:#000000;stroke:none;stroke-width:0.1;fill-opacity:0.84705883"
         inkscape:connector-curvature="0" />
    </g>
    <g
       id="g1462"
       style="fill:#000000;fill-opacity:0.84705883">
      <title
         id="title1035">8.2.0</title>
      <desc
         id="desc1464">h1o38</desc>
      <path
         d="m 1771,1303.3 c -4.7,2.4 -4.4,8 1,14.5 1.7,2 3,4.4 3,5.3 0,0.9 0.6,2.2 1.4,2.8 3.4,2.8 21.1,37.7 24.5,48.3 0.7,2.1 1.6,4 2.1,4.3 0.4,0.3 1.4,2.9 2,5.7 0.7,2.9 2.8,8.5 4.6,12.4 4.8,10.2 12.5,43.1 15.4,65.9 0.6,4.4 1.3,17.2 1.6,28.4 0.3,11.3 0.7,20.8 0.9,21.2 0.7,1.1 9.7,1.8 16.7,1.2 6.6,-0.6 6.8,-0.7 16,-8.3 12.2,-10.1 16,-14.5 21.6,-25.9 l 4.7,-9.4 -0.1,-13.1 c -0.1,-21.5 -5.2,-43.4 -14.9,-64 -2.5,-5.3 -3.9,-10 -4.3,-14 -0.4,-4.6 -1.3,-7.4 -3.9,-11.5 -3.8,-5.9 -29.8,-33 -35.3,-36.7 -1.9,-1.4 -5.4,-3.9 -7.7,-5.7 -7.8,-6 -17.3,-11.3 -32.8,-18.4 -8.5,-3.8 -13.2,-4.7 -16.5,-3 z"
         id="path86"
         style="fill:#000000;stroke:none;stroke-width:0.1;fill-opacity:0.84705883"
         inkscape:connector-curvature="0" />
    </g>
    <g
       id="g1415"
       style="fill:#000000;fill-opacity:0.84705883">
      <title
         id="title1036">2.1.0</title>
      <desc
         id="desc1417">h1o22</desc>
      <path
         d="m 1411,1303.7 c -10.1,1.7 -29.6,10.6 -41,18.6 -12.9,9 -38.3,34.8 -47.9,48.5 -1.7,2.5 -2.6,5.5 -3.2,11.2 -0.6,6.3 -1.5,9.4 -4.7,15.3 -4.4,8.3 -9.2,22.7 -11.9,35.7 -1.3,6.1 -1.8,12.8 -1.7,23.5 0,13.3 0.3,15.7 2.3,20.9 5,12.6 10.8,19.8 25.8,31.7 3.4,2.8 13.5,4.9 23.1,4.9 8.1,0 8,0.4 8.5,-24.5 0.5,-24.4 2.1,-36.5 8.6,-65.3 7.2,-32.2 30.4,-84.4 47.2,-106.2 4.1,-5.3 4.6,-9.4 1.5,-12.5 -1.4,-1.4 -2.9,-2.4 -3.3,-2.4 -0.4,0.1 -1.9,0.4 -3.3,0.6 z"
         id="path88"
         style="fill:#000000;stroke:none;stroke-width:0.1;fill-opacity:0.84705883"
         inkscape:connector-curvature="0" />
    </g>
    <g
       id="g1395"
       style="fill:#000000;fill-opacity:0.84705883">
      <title
         id="title1037">2.3.1</title>
      <desc
         id="desc1397">h2o42</desc>
      <path
         d="m 440.6,1488.7 c -0.1,0.1 -32.4,0.3 -71.8,0.3 -56.1,0.1 -71.9,0.3 -73.2,1.3 -1.7,1.2 -1.8,11.5 -1.9,175 -0.1,130.1 0.1,173.9 1,174.8 0.8,0.8 30,1.1 114.5,1.1 187.2,-0.1 228.3,-0.3 229.4,-1 0.6,-0.4 1.4,-1.6 1.8,-2.7 0.6,-1.6 2,-151.5 1.9,-195.5 -0.1,-5.8 -0.1,-22.7 -0.1,-37.5 0,-32.6 0,-67.1 -0.2,-93.5 0,-10.7 -0.4,-20.1 -0.9,-20.9 -0.7,-1.1 -17.7,-1.4 -100.5,-1.5 -54.8,-0.1 -99.8,-0.1 -100,0.1 z m 74.7,34.8 c 10.4,0.6 14.1,2.2 15.6,6.7 0.7,2.2 1.2,31.5 1.5,85.6 0.3,45.2 0.8,82.7 1.1,83.2 0.4,0.6 7.6,1 17.8,0.9 l 17.1,-0.1 2.8,3.1 2.8,3.1 v 16.3 c 0,17.5 -0.6,19.8 -5.5,21.7 -1.3,0.5 -9.8,1 -18.9,1.1 -9.1,0.1 -17,0.5 -17.5,0.9 -1,0.5 -1.9,20.5 -2.2,44.5 -0.1,10 -1.2,12 -8.2,14 -5.8,1.6 -23.3,2.1 -33.7,0.9 -10.2,-1.2 -10.5,-1.8 -11.3,-20.3 -0.4,-8.5 -0.7,-20.8 -0.7,-27.3 0,-8.6 -0.3,-12 -1.2,-12.3 -0.7,-0.3 -27.2,-0.6 -58.8,-0.7 -61.2,-0.3 -60.1,-0.2 -64.3,-5.2 -3.7,-4.3 -4,-6.7 -3.8,-28.4 0.1,-19.8 0.3,-21.8 2.5,-27.1 2.3,-5.7 7.4,-13.6 13,-20.2 3.2,-3.6 7.6,-9.5 13.3,-17.6 1.7,-2.5 4.7,-6.2 6.6,-8.2 1.8,-2 4.2,-5 5.2,-6.6 1,-1.7 4,-5.7 6.7,-9 12,-14.8 14.2,-17.6 21.3,-27 4.1,-5.5 10.9,-14.3 15,-19.5 12.2,-15.3 18.8,-23.9 22,-28.4 1.7,-2.4 4.6,-6.1 6.5,-8.3 1.9,-2.3 5,-5.9 6.8,-8.2 5.2,-6.5 8,-7.5 22.2,-8.1 6.9,-0.3 13.6,-0.5 15,-0.3 1.4,0.1 6.5,0.5 11.3,0.8 z"
         id="path90"
         style="fill:#000000;stroke:none;stroke-width:0.1;fill-opacity:0.84705883"
         inkscape:connector-curvature="0" />
      <path
         d="m 471.6,1609.1 c -1.5,1.1 -3.5,3.7 -4.5,5.7 -1.1,2.1 -3.8,5.5 -6.1,7.7 -2.3,2.2 -5,5.6 -6,7.5 -1,1.9 -3.3,4.8 -5,6.5 -1.8,1.6 -4.7,5.3 -6.6,8.2 -1.8,2.9 -4.4,5.9 -5.8,6.8 -1.3,0.9 -3.2,3.2 -4.1,5.2 -1,2 -3.4,5.4 -5.5,7.7 -2,2.3 -5.1,6.2 -6.7,8.7 -1.7,2.5 -3.9,5.1 -4.8,5.9 -2.3,1.9 -10.5,14.8 -10.5,16.5 0,2.6 4.6,4.6 10.7,4.8 15.3,0.5 56,-0.4 57.3,-1.3 1.2,-0.7 1.5,-7.7 1.6,-46.4 0.2,-25.1 -0.1,-45.6 -0.5,-45.6 -0.5,0 -2,0.9 -3.5,2.1 z"
         id="path92"
         style="fill:#000000;stroke:none;stroke-width:0.1;fill-opacity:0.84705883"
         inkscape:connector-curvature="0" />
    </g>
    <g
       id="g1436"
       style="fill:#000000;fill-opacity:0.84705883">
      <title
         id="title1038">8.0.1</title>
      <desc
         id="desc1438">h2o18</desc>
      <path
         d="m 2694,1562.8 c -41.5,0.1 -75.8,0.6 -76.3,1.1 -0.7,0.7 -1.1,31.6 -0.9,63.1 0,5.2 0,13.8 0,19 -0.1,5.2 -0.1,22.3 -0.1,38 0.1,15.7 0.1,29.8 0.1,31.5 -0.1,1.6 -0.1,24.6 0,51 0,26.4 0,48.9 0,50 -0.1,13 0.8,25.7 1.8,26.6 2,1.6 272,1.2 275.5,-0.5 1.3,-0.5 1.7,-2.8 2.1,-10.4 1.1,-19.4 0.3,-267.1 -0.8,-268.2 -1.2,-1.2 -79.2,-1.7 -201.4,-1.2 z"
         id="path94"
         style="fill:#000000;stroke:none;stroke-width:0.1;fill-opacity:0.84705883"
         inkscape:connector-curvature="0" />
    </g>
    <g
       id="g1386"
       style="fill:#000000;fill-opacity:0.84705883">
      <title
         id="title1039">2.3.0</title>
      <desc
         id="desc1388">h1o42</desc>
      <path
         d="m 1517.2,1676.9 c -2.8,1 -6.1,2.6 -7.2,3.6 -2.2,2 -8.3,14.1 -10,20 -0.6,2.2 -1.9,6 -3,8.5 -2.3,5.6 -5.6,17.6 -6.9,25.3 -0.6,3.2 -1.3,6.2 -1.6,6.7 -0.6,0.9 -2,13.8 -3.4,29 -0.6,7.5 0.1,33.7 1.4,50.6 0.7,8.5 0.6,9.3 -1.4,11.3 -2.7,2.7 -7.4,2.7 -14.3,0.1 -2.9,-1.1 -8.4,-2.9 -12.3,-4 -3.8,-1 -9.5,-2.6 -12.5,-3.5 -14.9,-4.2 -20.5,-4.9 -38.5,-4.9 -16.6,-0.1 -18.7,0.1 -27.5,2.6 -18.3,5.2 -26.3,9.1 -32.9,16.4 -6.1,6.7 -7.6,11.2 -7.5,22.4 0,7.2 0.4,9.3 2.7,13.6 1.4,2.8 3.3,5.4 4.2,5.8 0.8,0.3 45,0.6 98,0.5 106.9,0 98.4,0.6 100.5,-6.7 1.5,-5.5 1.2,-8.4 -1.5,-15.9 -6.2,-17.3 -7.9,-34.3 -7.9,-81.3 -0.1,-40.7 0.4,-47.3 5.5,-69.1 1.9,-8.3 2.7,-13.8 2.3,-16 -2.5,-12.6 -14,-19.3 -26.2,-15 z"
         id="path96"
         style="fill:#000000;stroke:none;stroke-width:0.1;fill-opacity:0.84705883"
         inkscape:connector-curvature="0" />
    </g>
    <g
       id="g1441"
       style="fill:#000000;fill-opacity:0.84705883">
      <title
         id="title1040">8.0.0</title>
      <desc
         id="desc1443">h1o18</desc>
      <path
         d="m 1656.5,1675.9 c -4.4,1.1 -7.9,3.7 -11,8.2 -4,5.7 -4.2,11.2 -1.1,23.9 4.9,19.5 7,52.7 5.6,88 -1.3,33.3 -2.5,42.7 -7.5,61.5 -2,7.4 -2.5,11.4 -2.1,15.5 0.9,9.6 -8.6,8.8 99.8,8.4 70.6,-0.2 95.9,-0.6 97.5,-1.5 3,-1.6 7,-10.1 8.1,-17.2 1.6,-9.9 -1.6,-20.4 -7.9,-26.4 -5.6,-5.3 -18.3,-10.9 -33.4,-14.9 l -14,-3.6 -15.5,0.6 c -8.5,0.3 -17.7,1.1 -20.5,1.7 -10.2,2.2 -21.3,5.3 -32.7,9.1 -14.5,4.9 -19.3,4.9 -22,0.1 -1.7,-2.8 -1.8,-4.1 -0.8,-13.3 1.3,-13.2 1.3,-49.9 -0.1,-60.9 -3.5,-28.9 -13.9,-63.9 -21.2,-72 -2.6,-2.8 -13.4,-8.1 -16.2,-8 -1.1,0.1 -3.4,0.4 -5,0.8 z"
         id="path98"
         style="fill:#000000;stroke:none;stroke-width:0.1;fill-opacity:0.84705883"
         inkscape:connector-curvature="0" />
    </g>
  </g>
</svg>
